<svg xmlns="http://www.w3.org/2000/svg" xmlns:xlink="http://www.w3.org/1999/xlink" contentStyleType="text/css" height="509px" preserveAspectRatio="none" style="width:399px;height:509px;background:#FFFFFF;" version="1.1" viewBox="0 0 399 509" width="399px" zoomAndPan="magnify"><defs/><g><!--class bookings--><g id="elem_bookings"><rect codeLine="12" fill="#FFFFFF" height="58.5938" id="bookings" rx="2.5" ry="2.5" style="stroke:#000000;stroke-width:0.5;" width="77.6885" x="7" y="7"/><text fill="#000000" font-family="sans-serif" font-size="14" font-weight="bold" lengthAdjust="spacing" textLength="71.6885" x="10" y="24.9951">bookings</text><line style="stroke:#000000;stroke-width:0.5;" x1="8" x2="83.6885" y1="33.2969" y2="33.2969"/><text fill="#000000" font-family="sans-serif" font-size="14" lengthAdjust="spacing" textLength="60.4229" x="13" y="50.292">book_ref</text><line style="stroke:#000000;stroke-width:1.0;" x1="8" x2="83.6885" y1="57.5938" y2="57.5938"/></g><!--class tickets--><g id="elem_tickets"><rect codeLine="17" fill="#FFFFFF" height="74.8906" id="tickets" rx="2.5" ry="2.5" style="stroke:#000000;stroke-width:0.5;" width="75.7246" x="7.98" y="141.89"/><text fill="#000000" font-family="sans-serif" font-size="14" font-weight="bold" lengthAdjust="spacing" textLength="53.6211" x="19.0318" y="159.8851">tickets</text><line style="stroke:#000000;stroke-width:0.5;" x1="8.98" x2="82.7046" y1="168.1869" y2="168.1869"/><text fill="#000000" font-family="sans-serif" font-size="14" lengthAdjust="spacing" textLength="63.7246" x="13.98" y="185.182">ticket_no</text><line style="stroke:#000000;stroke-width:1.0;" x1="8.98" x2="82.7046" y1="192.4838" y2="192.4838"/><text fill="#000000" font-family="sans-serif" font-size="14" lengthAdjust="spacing" textLength="60.4229" x="13.98" y="209.4789">book_ref</text></g><!--class ticket_flights--><g id="elem_ticket_flights"><rect codeLine="23" fill="#FFFFFF" height="74.8906" id="ticket_flights" rx="2.5" ry="2.5" style="stroke:#000000;stroke-width:0.5;" width="108.9902" x="61.35" y="293.08"/><text fill="#000000" font-family="sans-serif" font-size="14" font-weight="bold" lengthAdjust="spacing" textLength="102.9902" x="64.35" y="311.0751">ticket_flights</text><line style="stroke:#000000;stroke-width:0.5;" x1="62.35" x2="169.3402" y1="319.3769" y2="319.3769"/><text fill="#000000" font-family="sans-serif" font-size="14" lengthAdjust="spacing" textLength="63.7246" x="67.35" y="336.372">ticket_no</text><text fill="#000000" font-family="sans-serif" font-size="14" lengthAdjust="spacing" textLength="55.7334" x="67.35" y="352.6689">flight_id</text><line style="stroke:#000000;stroke-width:1.0;" x1="62.35" x2="169.3402" y1="359.9706" y2="359.9706"/></g><!--class flights--><g id="elem_flights"><rect codeLine="29" fill="#FFFFFF" height="107.4844" id="flights" rx="2.5" ry="2.5" style="stroke:#000000;stroke-width:0.5;" width="135.375" x="119.16" y="125.59"/><text fill="#000000" font-family="sans-serif" font-size="14" font-weight="bold" lengthAdjust="spacing" textLength="50.7021" x="161.4964" y="143.5851">flights</text><line style="stroke:#000000;stroke-width:0.5;" x1="120.16" x2="253.535" y1="151.8869" y2="151.8869"/><text fill="#000000" font-family="sans-serif" font-size="14" lengthAdjust="spacing" textLength="55.7334" x="125.16" y="168.882">flight_id</text><line style="stroke:#000000;stroke-width:1.0;" x1="120.16" x2="253.535" y1="176.1838" y2="176.1838"/><text fill="#000000" font-family="sans-serif" font-size="14" lengthAdjust="spacing" textLength="123.375" x="125.16" y="193.1789">departure_airport</text><text fill="#000000" font-family="sans-serif" font-size="14" lengthAdjust="spacing" textLength="98.6563" x="125.16" y="209.4757">arrival_airport</text><text fill="#000000" font-family="sans-serif" font-size="14" lengthAdjust="spacing" textLength="91.4375" x="125.16" y="225.7726">aircraft_code</text></g><!--class airports--><g id="elem_airports"><rect codeLine="37" fill="#FFFFFF" height="58.5938" id="airports" rx="2.5" ry="2.5" style="stroke:#000000;stroke-width:0.5;" width="99.6846" x="137" y="7"/><text fill="#000000" font-family="sans-serif" font-size="14" font-weight="bold" lengthAdjust="spacing" textLength="62.7197" x="155.4824" y="24.9951">airports</text><line style="stroke:#000000;stroke-width:0.5;" x1="138" x2="235.6846" y1="33.2969" y2="33.2969"/><text fill="#000000" font-family="sans-serif" font-size="14" lengthAdjust="spacing" textLength="87.6846" x="143" y="50.292">airport_code</text><line style="stroke:#000000;stroke-width:1.0;" x1="138" x2="235.6846" y1="57.5938" y2="57.5938"/></g><!--class boarding_passes--><g id="elem_boarding_passes"><rect codeLine="42" fill="#FFFFFF" height="74.8906" id="boarding_passes" rx="2.5" ry="2.5" style="stroke:#000000;stroke-width:0.5;" width="137.7627" x="46.96" y="427.97"/><text fill="#000000" font-family="sans-serif" font-size="14" font-weight="bold" lengthAdjust="spacing" textLength="131.7627" x="49.96" y="445.9651">boarding_passes</text><line style="stroke:#000000;stroke-width:0.5;" x1="47.96" x2="183.7227" y1="454.2669" y2="454.2669"/><text fill="#000000" font-family="sans-serif" font-size="14" lengthAdjust="spacing" textLength="63.7246" x="52.96" y="471.262">ticket_no</text><text fill="#000000" font-family="sans-serif" font-size="14" lengthAdjust="spacing" textLength="55.7334" x="52.96" y="487.5589">flight_id</text><line style="stroke:#000000;stroke-width:1.0;" x1="47.96" x2="183.7227" y1="494.8606" y2="494.8606"/></g><!--class aircrafts--><g id="elem_aircrafts"><rect codeLine="48" fill="#FFFFFF" height="58.5938" id="aircrafts" rx="2.5" ry="2.5" style="stroke:#000000;stroke-width:0.5;" width="103.4375" x="280.13" y="7"/><text fill="#000000" font-family="sans-serif" font-size="14" font-weight="bold" lengthAdjust="spacing" textLength="66.917" x="298.3903" y="24.9951">aircrafts</text><line style="stroke:#000000;stroke-width:0.5;" x1="281.13" x2="382.5675" y1="33.2969" y2="33.2969"/><text fill="#000000" font-family="sans-serif" font-size="14" lengthAdjust="spacing" textLength="91.4375" x="286.13" y="50.292">aircraft_code</text><line style="stroke:#000000;stroke-width:1.0;" x1="281.13" x2="382.5675" y1="57.5938" y2="57.5938"/></g><!--class seats--><g id="elem_seats"><rect codeLine="53" fill="#FFFFFF" height="74.8906" id="seats" rx="2.5" ry="2.5" style="stroke:#000000;stroke-width:0.5;" width="103.4375" x="289.13" y="141.89"/><text fill="#000000" font-family="sans-serif" font-size="14" font-weight="bold" lengthAdjust="spacing" textLength="42.3008" x="319.6984" y="159.8851">seats</text><line style="stroke:#000000;stroke-width:0.5;" x1="290.13" x2="391.5675" y1="168.1869" y2="168.1869"/><text fill="#000000" font-family="sans-serif" font-size="14" lengthAdjust="spacing" textLength="91.4375" x="295.13" y="185.182">aircraft_code</text><text fill="#000000" font-family="sans-serif" font-size="14" lengthAdjust="spacing" textLength="54.4141" x="295.13" y="201.4789">seat_no</text><line style="stroke:#000000;stroke-width:1.0;" x1="290.13" x2="391.5675" y1="208.7806" y2="208.7806"/></g><!--link bookings to tickets--><g id="link_bookings_tickets"><path codeLine="59" d="M45.84,65.94 C45.84,87.87 45.84,109.91 45.84,133.56 " fill="none" id="bookings-to-tickets" style="stroke:#181818;stroke-width:1.0;"/><line style="stroke:#181818;stroke-width:1.0;" x1="45.84" x2="51.84" y1="133.56" y2="141.56"/><line style="stroke:#181818;stroke-width:1.0;" x1="45.84" x2="39.84" y1="133.56" y2="141.56"/><line style="stroke:#181818;stroke-width:1.0;" x1="45.84" x2="45.84" y1="133.56" y2="141.56"/><line style="stroke:#181818;stroke-width:1.0;" x1="49.84" x2="41.84" y1="131.56" y2="131.56"/></g><!--link tickets to ticket_flights--><g id="link_tickets_ticket_flights"><path codeLine="60" d="M72.53,217.1 C72.53,240.19 72.53,261.62 72.53,284.72 " fill="none" id="tickets-to-ticket_flights" style="stroke:#181818;stroke-width:1.0;"/><line style="stroke:#181818;stroke-width:1.0;" x1="72.53" x2="78.53" y1="284.72" y2="292.72"/><line style="stroke:#181818;stroke-width:1.0;" x1="72.53" x2="66.53" y1="284.72" y2="292.72"/><line style="stroke:#181818;stroke-width:1.0;" x1="72.53" x2="72.53" y1="284.72" y2="292.72"/><line style="stroke:#181818;stroke-width:1.0;" x1="76.53" x2="68.53" y1="282.72" y2="282.72"/></g><!--link ticket_flights to boarding_passes--><g id="link_ticket_flights_boarding_passes"><path codeLine="61" d="M115.84,368.46 C115.84,387 115.84,409.26 115.84,427.77 " fill="none" id="ticket_flights-boarding_passes" style="stroke:#181818;stroke-width:1.0;"/></g><!--link flights to ticket_flights--><g id="link_flights_ticket_flights"><path codeLine="62" d="M144.75,233.49 C144.75,253.15 144.75,266.91 144.75,284.84 " fill="none" id="flights-to-ticket_flights" style="stroke:#181818;stroke-width:1.0;"/><line style="stroke:#181818;stroke-width:1.0;" x1="144.75" x2="150.75" y1="284.84" y2="292.84"/><line style="stroke:#181818;stroke-width:1.0;" x1="144.75" x2="138.75" y1="284.84" y2="292.84"/><line style="stroke:#181818;stroke-width:1.0;" x1="144.75" x2="144.75" y1="284.84" y2="292.84"/><line style="stroke:#181818;stroke-width:1.0;" x1="148.75" x2="140.75" y1="282.84" y2="282.84"/></g><!--link airports to flights--><g id="link_airports_flights"><path codeLine="63" d="M170.23,65.94 C170.23,83.04 170.23,97.07 170.23,117.17 " fill="none" id="airports-to-flights" style="stroke:#181818;stroke-width:1.0;"/><line style="stroke:#181818;stroke-width:1.0;" x1="170.23" x2="176.23" y1="117.17" y2="125.17"/><line style="stroke:#181818;stroke-width:1.0;" x1="170.23" x2="164.23" y1="117.17" y2="125.17"/><line style="stroke:#181818;stroke-width:1.0;" x1="170.23" x2="170.23" y1="117.17" y2="125.17"/><line style="stroke:#181818;stroke-width:1.0;" x1="174.23" x2="166.23" y1="115.17" y2="115.17"/></g><!--link airports to flights--><g id="link_airports_flights"><path codeLine="64" d="M203.46,65.94 C203.46,83.04 203.46,97.07 203.46,117.17 " fill="none" id="airports-to-flights-1" style="stroke:#181818;stroke-width:1.0;"/><line style="stroke:#181818;stroke-width:1.0;" x1="203.46" x2="209.46" y1="117.17" y2="125.17"/><line style="stroke:#181818;stroke-width:1.0;" x1="203.46" x2="197.46" y1="117.17" y2="125.17"/><line style="stroke:#181818;stroke-width:1.0;" x1="203.46" x2="203.46" y1="117.17" y2="125.17"/><line style="stroke:#181818;stroke-width:1.0;" x1="207.46" x2="199.46" y1="115.17" y2="115.17"/></g><!--link aircrafts to flights--><g id="link_aircrafts_flights"><path codeLine="65" d="M284.63,66.06 C284.63,94.72 284.63,133.74 284.63,133.74 C284.63,133.74 279.58,133.74 263.02,133.74 " fill="none" id="aircrafts-to-flights" style="stroke:#181818;stroke-width:1.0;"/><line style="stroke:#181818;stroke-width:1.0;" x1="263.02" x2="255.02" y1="133.74" y2="139.74"/><line style="stroke:#181818;stroke-width:1.0;" x1="263.02" x2="255.02" y1="133.74" y2="127.74"/><line style="stroke:#181818;stroke-width:1.0;" x1="263.02" x2="255.02" y1="133.74" y2="133.74"/><line style="stroke:#181818;stroke-width:1.0;" x1="265.02" x2="265.02" y1="137.74" y2="129.74"/></g><!--link aircrafts to seats--><g id="link_aircrafts_seats"><path codeLine="66" d="M336.34,65.94 C336.34,87.87 336.34,109.91 336.34,133.56 " fill="none" id="aircrafts-to-seats" style="stroke:#181818;stroke-width:1.0;"/><line style="stroke:#181818;stroke-width:1.0;" x1="336.34" x2="342.34" y1="133.56" y2="141.56"/><line style="stroke:#181818;stroke-width:1.0;" x1="336.34" x2="330.34" y1="133.56" y2="141.56"/><line style="stroke:#181818;stroke-width:1.0;" x1="336.34" x2="336.34" y1="133.56" y2="141.56"/><line style="stroke:#181818;stroke-width:1.0;" x1="340.34" x2="332.34" y1="131.56" y2="131.56"/></g><!--SRC=[ZP5DJiCm48NtFeKb5goyGE84HU827C1oxKaoYl544xTIADmTruaR9qM0LwCtt_mzFqfBeS7sn2OY1T6X0scHhGSnzXW6m-PTUWmGfm4aSUn8L1dhpJZAYv3f7OpjMwPJS2_aYUL3az-S8tR0itxm2SpgAuNu5YSFyaZUhH9-W7nw5bz2G8WOfvIcDBBDawwnPaXzbQgGYBQ7c8avr84oiXRiOTruRBkxcbdLw7OJAdgBI0V9ZNXYq0PvI2O9QPZnR7mb95FPD55RSb1rNO3STebdP3lyI8PTia0FoN3uxyfbQEbURR05Hp0_GbUz69despyezNafbejYVIKMQyNEQQNsbuWrTLzzCoSd_rINMt-Jyw7V]--></g></svg>