<?xml version="1.0" encoding="UTF-8" standalone="no"?>
<!DOCTYPE svg PUBLIC "-//W3C//DTD SVG 1.1//EN"
 "http://www.w3.org/Graphics/SVG/1.1/DTD/svg11.dtd">
<!-- Generated by graphviz version 2.40.1 (20161225.0304)
 -->
<!-- Title: expertise Pages: 1 -->
<svg width="1353pt" height="332pt"
 viewBox="0.00 0.00 1352.60 332.00" xmlns="http://www.w3.org/2000/svg" xmlns:xlink="http://www.w3.org/1999/xlink">
<g id="graph0" class="graph" transform="scale(1 1) rotate(0) translate(4 328)">
<title>expertise</title>
<polygon fill="#ffffff" stroke="transparent" points="-4,4 -4,-328 1348.5952,-328 1348.5952,4 -4,4"/>
<!-- programming -->
<g id="node1" class="node">
<title>programming</title>
<ellipse fill="none" stroke="#000000" cx="649" cy="-306" rx="60.3893" ry="18"/>
<text text-anchor="middle" x="649" y="-302.3" font-family="Times,serif" font-size="14.00" fill="#000000">Programming</text>
</g>
<!-- computer_languages -->
<g id="node2" class="node">
<title>computer_languages</title>
<ellipse fill="none" stroke="#000000" cx="211" cy="-234" rx="85.5853" ry="18"/>
<text text-anchor="middle" x="211" y="-230.3" font-family="Times,serif" font-size="14.00" fill="#000000">Computer languages</text>
</g>
<!-- programming&#45;&#45;computer_languages -->
<g id="edge1" class="edge">
<title>programming&#45;&#45;computer_languages</title>
<path fill="none" stroke="#000000" d="M595.7305,-297.2434C516.0501,-284.1452 365.8807,-259.4598 278.5847,-245.1098"/>
</g>
<!-- desing -->
<g id="node3" class="node">
<title>desing</title>
<ellipse fill="none" stroke="#000000" cx="582" cy="-234" rx="36.2938" ry="18"/>
<text text-anchor="middle" x="582" y="-230.3" font-family="Times,serif" font-size="14.00" fill="#000000">Design</text>
</g>
<!-- programming&#45;&#45;desing -->
<g id="edge2" class="edge">
<title>programming&#45;&#45;desing</title>
<path fill="none" stroke="#000000" d="M632.7812,-288.5708C622.0922,-277.0841 608.1708,-262.1239 597.6081,-250.7729"/>
</g>
<!-- web_programming -->
<g id="node4" class="node">
<title>web_programming</title>
<ellipse fill="none" stroke="#000000" cx="716" cy="-234" rx="79.8859" ry="18"/>
<text text-anchor="middle" x="716" y="-230.3" font-family="Times,serif" font-size="14.00" fill="#000000">Web programming</text>
</g>
<!-- programming&#45;&#45;web_programming -->
<g id="edge3" class="edge">
<title>programming&#45;&#45;web_programming</title>
<path fill="none" stroke="#000000" d="M665.2188,-288.5708C675.598,-277.4171 689.0248,-262.9882 699.4651,-251.7689"/>
</g>
<!-- desktop_programming -->
<g id="node5" class="node">
<title>desktop_programming</title>
<ellipse fill="none" stroke="#000000" cx="971" cy="-234" rx="92.8835" ry="18"/>
<text text-anchor="middle" x="971" y="-230.3" font-family="Times,serif" font-size="14.00" fill="#000000">Desktop programming</text>
</g>
<!-- programming&#45;&#45;desktop_programming -->
<g id="edge4" class="edge">
<title>programming&#45;&#45;desktop_programming</title>
<path fill="none" stroke="#000000" d="M697.5553,-295.1429C754.3034,-282.4539 848.2778,-261.441 909.9247,-247.6566"/>
</g>
<!-- csharp -->
<g id="node6" class="node">
<title>csharp</title>
<ellipse fill="none" stroke="#000000" cx="27" cy="-162" rx="27" ry="18"/>
<text text-anchor="middle" x="27" y="-158.3" font-family="Times,serif" font-size="14.00" fill="#000000">C#</text>
</g>
<!-- computer_languages&#45;&#45;csharp -->
<g id="edge5" class="edge">
<title>computer_languages&#45;&#45;csharp</title>
<path fill="none" stroke="#000000" d="M165.1334,-218.7765C135.6327,-208.6157 96.6605,-194.5001 63,-180 58.251,-177.9542 53.2394,-175.5872 48.5139,-173.2555"/>
</g>
<!-- t_sql -->
<g id="node7" class="node">
<title>t_sql</title>
<ellipse fill="none" stroke="#000000" cx="108" cy="-162" rx="36.2938" ry="18"/>
<text text-anchor="middle" x="108" y="-158.3" font-family="Times,serif" font-size="14.00" fill="#000000">T&#45;SQL</text>
</g>
<!-- computer_languages&#45;&#45;t_sql -->
<g id="edge6" class="edge">
<title>computer_languages&#45;&#45;t_sql</title>
<path fill="none" stroke="#000000" d="M186.3289,-216.7542C168.9506,-204.6062 145.9174,-188.5054 129.3319,-176.9116"/>
</g>
<!-- javascript -->
<g id="node8" class="node">
<title>javascript</title>
<ellipse fill="none" stroke="#000000" cx="211" cy="-162" rx="48.9926" ry="18"/>
<text text-anchor="middle" x="211" y="-158.3" font-family="Times,serif" font-size="14.00" fill="#000000">JavaScript</text>
</g>
<!-- computer_languages&#45;&#45;javascript -->
<g id="edge7" class="edge">
<title>computer_languages&#45;&#45;javascript</title>
<path fill="none" stroke="#000000" d="M211,-215.8314C211,-205 211,-191.2876 211,-180.4133"/>
</g>
<!-- typescript -->
<g id="node9" class="node">
<title>typescript</title>
<ellipse fill="none" stroke="#000000" cx="329" cy="-162" rx="51.1914" ry="18"/>
<text text-anchor="middle" x="329" y="-158.3" font-family="Times,serif" font-size="14.00" fill="#000000">TypeScript</text>
</g>
<!-- computer_languages&#45;&#45;typescript -->
<g id="edge8" class="edge">
<title>computer_languages&#45;&#45;typescript</title>
<path fill="none" stroke="#000000" d="M238.9644,-216.937C258.456,-205.0438 284.2654,-189.2957 303.2525,-177.7103"/>
</g>
<!-- desing_patterns -->
<g id="node10" class="node">
<title>desing_patterns</title>
<ellipse fill="none" stroke="#000000" cx="466" cy="-162" rx="67.6881" ry="18"/>
<text text-anchor="middle" x="466" y="-158.3" font-family="Times,serif" font-size="14.00" fill="#000000">Design patterns</text>
</g>
<!-- desing&#45;&#45;desing_patterns -->
<g id="edge9" class="edge">
<title>desing&#45;&#45;desing_patterns</title>
<path fill="none" stroke="#000000" d="M559.0821,-219.7751C540.0663,-207.9722 512.9915,-191.1671 492.9408,-178.7219"/>
</g>
<!-- solid -->
<g id="node11" class="node">
<title>solid</title>
<ellipse fill="none" stroke="#000000" cx="589" cy="-162" rx="37.8943" ry="18"/>
<text text-anchor="middle" x="589" y="-158.3" font-family="Times,serif" font-size="14.00" fill="#000000">SOLID</text>
</g>
<!-- desing&#45;&#45;solid -->
<g id="edge10" class="edge">
<title>desing&#45;&#45;solid</title>
<path fill="none" stroke="#000000" d="M583.7664,-215.8314C584.8194,-205 586.1526,-191.2876 587.2098,-180.4133"/>
</g>
<!-- client_side -->
<g id="node13" class="node">
<title>client_side</title>
<ellipse fill="none" stroke="#000000" cx="709" cy="-162" rx="50.8918" ry="18"/>
<text text-anchor="middle" x="709" y="-158.3" font-family="Times,serif" font-size="14.00" fill="#000000">Client&#45;side</text>
</g>
<!-- web_programming&#45;&#45;client_side -->
<g id="edge12" class="edge">
<title>web_programming&#45;&#45;client_side</title>
<path fill="none" stroke="#000000" d="M714.2336,-215.8314C713.1806,-205 711.8474,-191.2876 710.7902,-180.4133"/>
</g>
<!-- server_side -->
<g id="node14" class="node">
<title>server_side</title>
<ellipse fill="none" stroke="#000000" cx="854" cy="-162" rx="51.9908" ry="18"/>
<text text-anchor="middle" x="854" y="-158.3" font-family="Times,serif" font-size="14.00" fill="#000000">Server&#45;side</text>
</g>
<!-- web_programming&#45;&#45;server_side -->
<g id="edge13" class="edge">
<title>web_programming&#45;&#45;server_side</title>
<path fill="none" stroke="#000000" d="M748.0068,-217.3008C771.2565,-205.1705 802.462,-188.8894 824.9866,-177.1374"/>
</g>
<!-- desktop_programming_windows -->
<g id="node15" class="node">
<title>desktop_programming_windows</title>
<ellipse fill="none" stroke="#000000" cx="1028" cy="-162" rx="45.4919" ry="18"/>
<text text-anchor="middle" x="1028" y="-158.3" font-family="Times,serif" font-size="14.00" fill="#000000">Windows</text>
</g>
<!-- desktop_programming&#45;&#45;desktop_programming_windows -->
<g id="edge14" class="edge">
<title>desktop_programming&#45;&#45;desktop_programming_windows</title>
<path fill="none" stroke="#000000" d="M985.0899,-216.2022C993.9911,-204.9586 1005.4372,-190.5003 1014.2689,-179.3446"/>
</g>
<!-- single_responsibility_principle -->
<g id="node12" class="node">
<title>single_responsibility_principle</title>
<ellipse fill="none" stroke="#000000" cx="380" cy="-90" rx="120.7786" ry="18"/>
<text text-anchor="middle" x="380" y="-86.3" font-family="Times,serif" font-size="14.00" fill="#000000">Single&#45;responsibility principle</text>
</g>
<!-- solid&#45;&#45;single_responsibility_principle -->
<g id="edge11" class="edge">
<title>solid&#45;&#45;single_responsibility_principle</title>
<path fill="none" stroke="#000000" d="M559.8869,-150.3391C554.3017,-148.1784 548.485,-145.9801 543,-144 505.9874,-130.6381 463.8073,-116.6987 431.6293,-106.3299"/>
</g>
<!-- html -->
<g id="node22" class="node">
<title>html</title>
<ellipse fill="none" stroke="#000000" cx="555" cy="-90" rx="36.2938" ry="18"/>
<text text-anchor="middle" x="555" y="-86.3" font-family="Times,serif" font-size="14.00" fill="#000000">HTML</text>
</g>
<!-- client_side&#45;&#45;html -->
<g id="edge21" class="edge">
<title>client_side&#45;&#45;html</title>
<path fill="none" stroke="#000000" d="M678.2059,-147.6028C649.9422,-134.3886 608.4981,-115.0121 581.6311,-102.4509"/>
</g>
<!-- css -->
<g id="node23" class="node">
<title>css</title>
<ellipse fill="none" stroke="#000000" cx="636" cy="-90" rx="27" ry="18"/>
<text text-anchor="middle" x="636" y="-86.3" font-family="Times,serif" font-size="14.00" fill="#000000">CSS</text>
</g>
<!-- client_side&#45;&#45;css -->
<g id="edge22" class="edge">
<title>client_side&#45;&#45;css</title>
<path fill="none" stroke="#000000" d="M691.7,-144.937C679.3886,-132.7943 663.0031,-116.6332 651.1949,-104.9868"/>
</g>
<!-- spa -->
<g id="node24" class="node">
<title>spa</title>
<ellipse fill="none" stroke="#000000" cx="782" cy="-90" rx="100.9827" ry="18"/>
<text text-anchor="middle" x="782" y="-86.3" font-family="Times,serif" font-size="14.00" fill="#000000">Single&#45;page applications</text>
</g>
<!-- client_side&#45;&#45;spa -->
<g id="edge23" class="edge">
<title>client_side&#45;&#45;spa</title>
<path fill="none" stroke="#000000" d="M726.3,-144.937C737.5995,-133.7923 752.3309,-119.2627 763.8055,-107.9453"/>
</g>
<!-- dot_net_core -->
<g id="node20" class="node">
<title>dot_net_core</title>
<ellipse fill="none" stroke="#000000" cx="951" cy="-90" rx="50.8918" ry="18"/>
<text text-anchor="middle" x="951" y="-86.3" font-family="Times,serif" font-size="14.00" fill="#000000">.NET Core</text>
</g>
<!-- server_side&#45;&#45;dot_net_core -->
<g id="edge19" class="edge">
<title>server_side&#45;&#45;dot_net_core</title>
<path fill="none" stroke="#000000" d="M876.0108,-145.6621C891.8854,-133.8788 913.2217,-118.0416 929.0763,-106.2733"/>
</g>
<!-- dot_net_framework -->
<g id="node16" class="node">
<title>dot_net_framework</title>
<ellipse fill="none" stroke="#000000" cx="1131" cy="-90" rx="74.9875" ry="18"/>
<text text-anchor="middle" x="1131" y="-86.3" font-family="Times,serif" font-size="14.00" fill="#000000">.NET Framework</text>
</g>
<!-- desktop_programming_windows&#45;&#45;dot_net_framework -->
<g id="edge15" class="edge">
<title>desktop_programming_windows&#45;&#45;dot_net_framework</title>
<path fill="none" stroke="#000000" d="M1050.6038,-146.1993C1067.1849,-134.6086 1089.6747,-118.8876 1106.6516,-107.0202"/>
</g>
<!-- wpf -->
<g id="node17" class="node">
<title>wpf</title>
<ellipse fill="none" stroke="#000000" cx="1071" cy="-18" rx="29.4969" ry="18"/>
<text text-anchor="middle" x="1071" y="-14.3" font-family="Times,serif" font-size="14.00" fill="#000000">WPF</text>
</g>
<!-- dot_net_framework&#45;&#45;wpf -->
<g id="edge16" class="edge">
<title>dot_net_framework&#45;&#45;wpf</title>
<path fill="none" stroke="#000000" d="M1116.1685,-72.2022C1106.4518,-60.5422 1093.8541,-45.4249 1084.4325,-34.119"/>
</g>
<!-- winforms -->
<g id="node18" class="node">
<title>winforms</title>
<ellipse fill="none" stroke="#000000" cx="1168" cy="-18" rx="49.2915" ry="18"/>
<text text-anchor="middle" x="1168" y="-14.3" font-family="Times,serif" font-size="14.00" fill="#000000">WinForms</text>
</g>
<!-- dot_net_framework&#45;&#45;winforms -->
<g id="edge17" class="edge">
<title>dot_net_framework&#45;&#45;winforms</title>
<path fill="none" stroke="#000000" d="M1140.3367,-71.8314C1145.9884,-60.8334 1153.1666,-46.865 1158.7945,-35.9134"/>
</g>
<!-- devexpress -->
<g id="node19" class="node">
<title>devexpress</title>
<ellipse fill="none" stroke="#000000" cx="1290" cy="-18" rx="54.6905" ry="18"/>
<text text-anchor="middle" x="1290" y="-14.3" font-family="Times,serif" font-size="14.00" fill="#000000">DevExpress</text>
</g>
<!-- dot_net_framework&#45;&#45;devexpress -->
<g id="edge18" class="edge">
<title>dot_net_framework&#45;&#45;devexpress</title>
<path fill="none" stroke="#000000" d="M1166.2873,-74.0209C1193.6427,-61.6335 1231.2385,-44.609 1257.7851,-32.5879"/>
</g>
<!-- asp_net_core -->
<g id="node21" class="node">
<title>asp_net_core</title>
<ellipse fill="none" stroke="#000000" cx="943" cy="-18" rx="81.4863" ry="18"/>
<text text-anchor="middle" x="943" y="-14.3" font-family="Times,serif" font-size="14.00" fill="#000000">ASP.NET Core 3.1</text>
</g>
<!-- dot_net_core&#45;&#45;asp_net_core -->
<g id="edge20" class="edge">
<title>dot_net_core&#45;&#45;asp_net_core</title>
<path fill="none" stroke="#000000" d="M948.9813,-71.8314C947.7778,-61 946.2542,-47.2876 945.0459,-36.4133"/>
</g>
<!-- react -->
<g id="node25" class="node">
<title>react</title>
<ellipse fill="none" stroke="#000000" cx="700" cy="-18" rx="31.3957" ry="18"/>
<text text-anchor="middle" x="700" y="-14.3" font-family="Times,serif" font-size="14.00" fill="#000000">React</text>
</g>
<!-- spa&#45;&#45;react -->
<g id="edge24" class="edge">
<title>spa&#45;&#45;react</title>
<path fill="none" stroke="#000000" d="M761.7303,-72.2022C748.0714,-60.209 730.2469,-44.5583 717.2649,-33.1594"/>
</g>
<!-- angular -->
<g id="node26" class="node">
<title>angular</title>
<ellipse fill="none" stroke="#000000" cx="789" cy="-18" rx="40.0939" ry="18"/>
<text text-anchor="middle" x="789" y="-14.3" font-family="Times,serif" font-size="14.00" fill="#000000">Angular</text>
</g>
<!-- spa&#45;&#45;angular -->
<g id="edge25" class="edge">
<title>spa&#45;&#45;angular</title>
<path fill="none" stroke="#000000" d="M783.7664,-71.8314C784.8194,-61 786.1526,-47.2876 787.2098,-36.4133"/>
</g>
</g>
</svg>
