<?xml version="1.0" encoding="UTF-8" standalone="no"?>
<!DOCTYPE svg PUBLIC "-//W3C//DTD SVG 1.1//EN"
 "http://www.w3.org/Graphics/SVG/1.1/DTD/svg11.dtd">
<!-- Generated by graphviz version 2.40.1 (20161225.0304)
 -->
<!-- Title: expertise Pages: 1 -->
<svg width="3149pt" height="476pt"
 viewBox="0.00 0.00 3148.59 476.00" xmlns="http://www.w3.org/2000/svg" xmlns:xlink="http://www.w3.org/1999/xlink">
<g id="graph0" class="graph" transform="scale(1 1) rotate(0) translate(4 472)">
<title>expertise</title>
<polygon fill="#ffffff" stroke="transparent" points="-4,4 -4,-472 3144.5905,-472 3144.5905,4 -4,4"/>
<!-- software_development -->
<g id="node1" class="node">
<title>software_development</title>
<ellipse fill="none" stroke="#000000" cx="1989.9954" cy="-450" rx="92.8835" ry="18"/>
<text text-anchor="middle" x="1989.9954" y="-446.3" font-family="Times,serif" font-size="14.00" fill="#000000">Software development</text>
</g>
<!-- computer_science -->
<g id="node2" class="node">
<title>computer_science</title>
<ellipse fill="none" stroke="#000000" cx="304.9954" cy="-378" rx="76.0865" ry="18"/>
<text text-anchor="middle" x="304.9954" y="-374.3" font-family="Times,serif" font-size="14.00" fill="#000000">Computer science</text>
</g>
<!-- software_development&#45;&#45;computer_science -->
<g id="edge1" class="edge">
<title>software_development&#45;&#45;computer_science</title>
<path fill="none" stroke="#000000" d="M1899.104,-446.1162C1600.7163,-433.3661 654.5384,-392.936 380.2165,-381.2142"/>
</g>
<!-- operating_systems -->
<g id="node3" class="node">
<title>operating_systems</title>
<ellipse fill="none" stroke="#000000" cx="903.9954" cy="-378" rx="77.9862" ry="18"/>
<text text-anchor="middle" x="903.9954" y="-374.3" font-family="Times,serif" font-size="14.00" fill="#000000">Operating systems</text>
</g>
<!-- software_development&#45;&#45;operating_systems -->
<g id="edge2" class="edge">
<title>software_development&#45;&#45;operating_systems</title>
<path fill="none" stroke="#000000" d="M1902.0434,-444.1689C1693.8739,-430.3676 1173.8879,-395.8934 979.1776,-382.9845"/>
</g>
<!-- programming -->
<g id="node4" class="node">
<title>programming</title>
<ellipse fill="none" stroke="#000000" cx="1835.9954" cy="-378" rx="60.3893" ry="18"/>
<text text-anchor="middle" x="1835.9954" y="-374.3" font-family="Times,serif" font-size="14.00" fill="#000000">Programming</text>
</g>
<!-- software_development&#45;&#45;programming -->
<g id="edge3" class="edge">
<title>software_development&#45;&#45;programming</title>
<path fill="none" stroke="#000000" d="M1954.2776,-433.3008C1928.4211,-421.212 1893.7472,-405.0009 1868.6313,-393.2583"/>
</g>
<!-- developer_platform -->
<g id="node5" class="node">
<title>developer_platform</title>
<ellipse fill="none" stroke="#000000" cx="2113.9954" cy="-378" rx="82.5854" ry="18"/>
<text text-anchor="middle" x="2113.9954" y="-374.3" font-family="Times,serif" font-size="14.00" fill="#000000">Developer platform</text>
</g>
<!-- software_development&#45;&#45;developer_platform -->
<g id="edge4" class="edge">
<title>software_development&#45;&#45;developer_platform</title>
<path fill="none" stroke="#000000" d="M2019.6965,-432.7542C2039.4716,-421.2719 2065.3288,-406.258 2084.9645,-394.8566"/>
</g>
<!-- databases -->
<g id="node6" class="node">
<title>databases</title>
<ellipse fill="none" stroke="#000000" cx="2415.9954" cy="-378" rx="47.3916" ry="18"/>
<text text-anchor="middle" x="2415.9954" y="-374.3" font-family="Times,serif" font-size="14.00" fill="#000000">Databases</text>
</g>
<!-- software_development&#45;&#45;databases -->
<g id="edge5" class="edge">
<title>software_development&#45;&#45;databases</title>
<path fill="none" stroke="#000000" d="M2060.3406,-438.1107C2149.0789,-423.1127 2298.9533,-397.7818 2372.5597,-385.3413"/>
</g>
<!-- mathematics -->
<g id="node7" class="node">
<title>mathematics</title>
<ellipse fill="none" stroke="#000000" cx="2538.9954" cy="-378" rx="57.6901" ry="18"/>
<text text-anchor="middle" x="2538.9954" y="-374.3" font-family="Times,serif" font-size="14.00" fill="#000000">Mathematics</text>
</g>
<!-- software_development&#45;&#45;mathematics -->
<g id="edge6" class="edge">
<title>software_development&#45;&#45;mathematics</title>
<path fill="none" stroke="#000000" d="M2078.1023,-444.1396C2175.1968,-436.7522 2335.688,-421.7927 2471.9954,-396 2480.0428,-394.4772 2488.5423,-392.4934 2496.6859,-390.4009"/>
</g>
<!-- algorithms -->
<g id="node11" class="node">
<title>algorithms</title>
<ellipse fill="none" stroke="#000000" cx="51.9954" cy="-306" rx="51.9908" ry="18"/>
<text text-anchor="middle" x="51.9954" y="-302.3" font-family="Times,serif" font-size="14.00" fill="#000000">Algorithms</text>
</g>
<!-- computer_science&#45;&#45;algorithms -->
<g id="edge10" class="edge">
<title>computer_science&#45;&#45;algorithms</title>
<path fill="none" stroke="#000000" d="M255.6196,-364.2999C216.8107,-353.4866 161.4073,-337.95 112.9954,-324 106.0989,-322.0127 98.7719,-319.8742 91.6777,-317.7893"/>
</g>
<!-- analysis_of_algorithms -->
<g id="node12" class="node">
<title>analysis_of_algorithms</title>
<ellipse fill="none" stroke="#000000" cx="215.9954" cy="-306" rx="93.6835" ry="18"/>
<text text-anchor="middle" x="215.9954" y="-302.3" font-family="Times,serif" font-size="14.00" fill="#000000">Analysis of algorithms</text>
</g>
<!-- computer_science&#45;&#45;analysis_of_algorithms -->
<g id="edge11" class="edge">
<title>computer_science&#45;&#45;analysis_of_algorithms</title>
<path fill="none" stroke="#000000" d="M283.451,-360.5708C269.5608,-349.3339 251.5616,-334.7727 237.6499,-323.5182"/>
</g>
<!-- data_structures -->
<g id="node13" class="node">
<title>data_structures</title>
<ellipse fill="none" stroke="#000000" cx="392.9954" cy="-306" rx="65.7887" ry="18"/>
<text text-anchor="middle" x="392.9954" y="-302.3" font-family="Times,serif" font-size="14.00" fill="#000000">Data structures</text>
</g>
<!-- computer_science&#45;&#45;data_structures -->
<g id="edge12" class="edge">
<title>computer_science&#45;&#45;data_structures</title>
<path fill="none" stroke="#000000" d="M326.2977,-360.5708C340.1335,-349.2506 358.0926,-334.5568 371.8892,-323.2687"/>
</g>
<!-- unix -->
<g id="node14" class="node">
<title>unix</title>
<ellipse fill="none" stroke="#000000" cx="509.9954" cy="-306" rx="33.2948" ry="18"/>
<text text-anchor="middle" x="509.9954" y="-302.3" font-family="Times,serif" font-size="14.00" fill="#000000">UNIX</text>
</g>
<!-- operating_systems&#45;&#45;unix -->
<g id="edge13" class="edge">
<title>operating_systems&#45;&#45;unix</title>
<path fill="none" stroke="#000000" d="M842.4329,-366.75C757.3756,-351.2065 607.0303,-323.7323 541.738,-311.8007"/>
</g>
<!-- windows -->
<g id="node15" class="node">
<title>windows</title>
<ellipse fill="none" stroke="#000000" cx="903.9954" cy="-306" rx="45.4919" ry="18"/>
<text text-anchor="middle" x="903.9954" y="-302.3" font-family="Times,serif" font-size="14.00" fill="#000000">Windows</text>
</g>
<!-- operating_systems&#45;&#45;windows -->
<g id="edge14" class="edge">
<title>operating_systems&#45;&#45;windows</title>
<path fill="none" stroke="#000000" d="M903.9954,-359.8314C903.9954,-349 903.9954,-335.2876 903.9954,-324.4133"/>
</g>
<!-- desing -->
<g id="node8" class="node">
<title>desing</title>
<ellipse fill="none" stroke="#000000" cx="1152.9954" cy="-306" rx="36.2938" ry="18"/>
<text text-anchor="middle" x="1152.9954" y="-302.3" font-family="Times,serif" font-size="14.00" fill="#000000">Design</text>
</g>
<!-- programming&#45;&#45;desing -->
<g id="edge7" class="edge">
<title>programming&#45;&#45;desing</title>
<path fill="none" stroke="#000000" d="M1778.9379,-371.9852C1642.5186,-357.6042 1300.5347,-321.5532 1188.8753,-309.7824"/>
</g>
<!-- web_programming -->
<g id="node9" class="node">
<title>web_programming</title>
<ellipse fill="none" stroke="#000000" cx="1719.9954" cy="-306" rx="79.8859" ry="18"/>
<text text-anchor="middle" x="1719.9954" y="-302.3" font-family="Times,serif" font-size="14.00" fill="#000000">Web programming</text>
</g>
<!-- programming&#45;&#45;web_programming -->
<g id="edge8" class="edge">
<title>programming&#45;&#45;web_programming</title>
<path fill="none" stroke="#000000" d="M1809.6732,-361.6621C1791.0902,-350.1278 1766.2488,-334.709 1747.4238,-323.0245"/>
</g>
<!-- ide -->
<g id="node10" class="node">
<title>ide</title>
<ellipse fill="none" stroke="#000000" cx="1898.9954" cy="-306" rx="27" ry="18"/>
<text text-anchor="middle" x="1898.9954" y="-302.3" font-family="Times,serif" font-size="14.00" fill="#000000">IDE</text>
</g>
<!-- programming&#45;&#45;ide -->
<g id="edge9" class="edge">
<title>programming&#45;&#45;ide</title>
<path fill="none" stroke="#000000" d="M1851.2459,-360.5708C1861.5881,-348.7512 1875.1484,-333.2537 1885.1746,-321.7951"/>
</g>
<!-- dot_net -->
<g id="node54" class="node">
<title>dot_net</title>
<ellipse fill="none" stroke="#000000" cx="2113.9954" cy="-306" rx="30.5947" ry="18"/>
<text text-anchor="middle" x="2113.9954" y="-302.3" font-family="Times,serif" font-size="14.00" fill="#000000">.NET</text>
</g>
<!-- developer_platform&#45;&#45;dot_net -->
<g id="edge52" class="edge">
<title>developer_platform&#45;&#45;dot_net</title>
<path fill="none" stroke="#000000" d="M2113.9954,-359.8314C2113.9954,-349 2113.9954,-335.2876 2113.9954,-324.4133"/>
</g>
<!-- java -->
<g id="node55" class="node">
<title>java</title>
<ellipse fill="none" stroke="#000000" cx="2189.9954" cy="-306" rx="27" ry="18"/>
<text text-anchor="middle" x="2189.9954" y="-302.3" font-family="Times,serif" font-size="14.00" fill="#000000">Java</text>
</g>
<!-- developer_platform&#45;&#45;java -->
<g id="edge53" class="edge">
<title>developer_platform&#45;&#45;java</title>
<path fill="none" stroke="#000000" d="M2132.7819,-360.2022C2145.4414,-348.209 2161.9617,-332.5583 2173.9938,-321.1594"/>
</g>
<!-- relational_dbms -->
<g id="node32" class="node">
<title>relational_dbms</title>
<ellipse fill="none" stroke="#000000" cx="2415.9954" cy="-306" rx="76.0865" ry="18"/>
<text text-anchor="middle" x="2415.9954" y="-302.3" font-family="Times,serif" font-size="14.00" fill="#000000">Relational DBMS</text>
</g>
<!-- databases&#45;&#45;relational_dbms -->
<g id="edge30" class="edge">
<title>databases&#45;&#45;relational_dbms</title>
<path fill="none" stroke="#000000" d="M2415.9954,-359.8314C2415.9954,-349 2415.9954,-335.2876 2415.9954,-324.4133"/>
</g>
<!-- nosql_databases -->
<g id="node33" class="node">
<title>nosql_databases</title>
<ellipse fill="none" stroke="#000000" cx="2585.9954" cy="-306" rx="76.0865" ry="18"/>
<text text-anchor="middle" x="2585.9954" y="-302.3" font-family="Times,serif" font-size="14.00" fill="#000000">NoSQL databases</text>
</g>
<!-- databases&#45;&#45;nosql_databases -->
<g id="edge31" class="edge">
<title>databases&#45;&#45;nosql_databases</title>
<path fill="none" stroke="#000000" d="M2447.9711,-364.4574C2476.6331,-352.3181 2518.6879,-334.5067 2548.8359,-321.7381"/>
</g>
<!-- column_oriented_dbms -->
<g id="node34" class="node">
<title>column_oriented_dbms</title>
<ellipse fill="none" stroke="#000000" cx="2780.9954" cy="-306" rx="100.9827" ry="18"/>
<text text-anchor="middle" x="2780.9954" y="-302.3" font-family="Times,serif" font-size="14.00" fill="#000000">Column&#45;oriented DBMS</text>
</g>
<!-- databases&#45;&#45;column_oriented_dbms -->
<g id="edge32" class="edge">
<title>databases&#45;&#45;column_oriented_dbms</title>
<path fill="none" stroke="#000000" d="M2451.3331,-365.8279C2458.1421,-363.7143 2465.2535,-361.6642 2471.9954,-360 2494.4659,-354.4533 2623.3553,-332.4605 2707.417,-318.31"/>
</g>
<!-- desing_patterns -->
<g id="node38" class="node">
<title>desing_patterns</title>
<ellipse fill="none" stroke="#000000" cx="802.9954" cy="-234" rx="67.6881" ry="18"/>
<text text-anchor="middle" x="802.9954" y="-230.3" font-family="Times,serif" font-size="14.00" fill="#000000">Design patterns</text>
</g>
<!-- desing&#45;&#45;desing_patterns -->
<g id="edge36" class="edge">
<title>desing&#45;&#45;desing_patterns</title>
<path fill="none" stroke="#000000" d="M1119.1179,-299.0309C1058.2156,-286.5024 929.7926,-260.084 856.7598,-245.0601"/>
</g>
<!-- desing_principles -->
<g id="node39" class="node">
<title>desing_principles</title>
<ellipse fill="none" stroke="#000000" cx="1152.9954" cy="-234" rx="74.9875" ry="18"/>
<text text-anchor="middle" x="1152.9954" y="-230.3" font-family="Times,serif" font-size="14.00" fill="#000000">Desing principles</text>
</g>
<!-- desing&#45;&#45;desing_principles -->
<g id="edge37" class="edge">
<title>desing&#45;&#45;desing_principles</title>
<path fill="none" stroke="#000000" d="M1152.9954,-287.8314C1152.9954,-277 1152.9954,-263.2876 1152.9954,-252.4133"/>
</g>
<!-- client_side -->
<g id="node47" class="node">
<title>client_side</title>
<ellipse fill="none" stroke="#000000" cx="1666.9954" cy="-234" rx="50.8918" ry="18"/>
<text text-anchor="middle" x="1666.9954" y="-230.3" font-family="Times,serif" font-size="14.00" fill="#000000">Client&#45;side</text>
</g>
<!-- web_programming&#45;&#45;client_side -->
<g id="edge45" class="edge">
<title>web_programming&#45;&#45;client_side</title>
<path fill="none" stroke="#000000" d="M1706.8943,-288.2022C1698.679,-277.0419 1688.1323,-262.7143 1679.9458,-251.593"/>
</g>
<!-- visual_studio -->
<g id="node56" class="node">
<title>visual_studio</title>
<ellipse fill="none" stroke="#000000" cx="1898.9954" cy="-234" rx="98.5829" ry="18"/>
<text text-anchor="middle" x="1898.9954" y="-230.3" font-family="Times,serif" font-size="14.00" fill="#000000">Microsoft Visual Studio</text>
</g>
<!-- ide&#45;&#45;visual_studio -->
<g id="edge55" class="edge">
<title>ide&#45;&#45;visual_studio</title>
<path fill="none" stroke="#000000" d="M1898.9954,-287.8314C1898.9954,-277 1898.9954,-263.2876 1898.9954,-252.4133"/>
</g>
<!-- rider -->
<g id="node57" class="node">
<title>rider</title>
<ellipse fill="none" stroke="#000000" cx="2046.9954" cy="-234" rx="31.3957" ry="18"/>
<text text-anchor="middle" x="2046.9954" y="-230.3" font-family="Times,serif" font-size="14.00" fill="#000000">Rider</text>
</g>
<!-- ide&#45;&#45;rider -->
<g id="edge56" class="edge">
<title>ide&#45;&#45;rider</title>
<path fill="none" stroke="#000000" d="M1920.8333,-295.3762C1948.1719,-282.0763 1994.8362,-259.3747 2023.1036,-245.623"/>
</g>
<!-- macos -->
<g id="node16" class="node">
<title>macos</title>
<ellipse fill="none" stroke="#000000" cx="383.9954" cy="-234" rx="37.8943" ry="18"/>
<text text-anchor="middle" x="383.9954" y="-230.3" font-family="Times,serif" font-size="14.00" fill="#000000">macOS</text>
</g>
<!-- unix&#45;&#45;macos -->
<g id="edge15" class="edge">
<title>unix&#45;&#45;macos</title>
<path fill="none" stroke="#000000" d="M486.885,-292.7941C464.5769,-280.0466 430.9328,-260.8214 408.2475,-247.8583"/>
</g>
<!-- linux -->
<g id="node17" class="node">
<title>linux</title>
<ellipse fill="none" stroke="#000000" cx="471.9954" cy="-234" rx="32.4942" ry="18"/>
<text text-anchor="middle" x="471.9954" y="-230.3" font-family="Times,serif" font-size="14.00" fill="#000000">Linux</text>
</g>
<!-- unix&#45;&#45;linux -->
<g id="edge16" class="edge">
<title>unix&#45;&#45;linux</title>
<path fill="none" stroke="#000000" d="M500.7966,-288.5708C494.866,-277.3339 487.181,-262.7727 481.2411,-251.5182"/>
</g>
<!-- centos -->
<g id="node18" class="node">
<title>centos</title>
<ellipse fill="none" stroke="#000000" cx="301.9954" cy="-162" rx="39.7935" ry="18"/>
<text text-anchor="middle" x="301.9954" y="-158.3" font-family="Times,serif" font-size="14.00" fill="#000000">CentOS</text>
</g>
<!-- linux&#45;&#45;centos -->
<g id="edge17" class="edge">
<title>linux&#45;&#45;centos</title>
<path fill="none" stroke="#000000" d="M446.4359,-222.6976C441.3284,-220.462 435.9967,-218.1444 430.9954,-216 396.9663,-201.4091 357.7025,-185.0393 331.5162,-174.1878"/>
</g>
<!-- ubuntu -->
<g id="node19" class="node">
<title>ubuntu</title>
<ellipse fill="none" stroke="#000000" cx="397.9954" cy="-162" rx="38.1938" ry="18"/>
<text text-anchor="middle" x="397.9954" y="-158.3" font-family="Times,serif" font-size="14.00" fill="#000000">Ubuntu</text>
</g>
<!-- linux&#45;&#45;ubuntu -->
<g id="edge18" class="edge">
<title>linux&#45;&#45;ubuntu</title>
<path fill="none" stroke="#000000" d="M455.5724,-218.0209C443.4796,-206.255 427.0871,-190.3055 414.8855,-178.4336"/>
</g>
<!-- common_language_infrastructure -->
<g id="node20" class="node">
<title>common_language_infrastructure</title>
<ellipse fill="none" stroke="#000000" cx="2301.9954" cy="-234" rx="157.0724" ry="18"/>
<text text-anchor="middle" x="2301.9954" y="-230.3" font-family="Times,serif" font-size="14.00" fill="#000000">Common Language Infrastructure (CLI)</text>
</g>
<!-- common_type_system -->
<g id="node21" class="node">
<title>common_type_system</title>
<ellipse fill="none" stroke="#000000" cx="2151.9954" cy="-162" rx="119.6788" ry="18"/>
<text text-anchor="middle" x="2151.9954" y="-158.3" font-family="Times,serif" font-size="14.00" fill="#000000">Common Type System (CTS)</text>
</g>
<!-- common_language_infrastructure&#45;&#45;common_type_system -->
<g id="edge19" class="edge">
<title>common_language_infrastructure&#45;&#45;common_type_system</title>
<path fill="none" stroke="#000000" d="M2265.3013,-216.3868C2241.7099,-205.063 2211.2064,-190.4213 2187.7931,-179.1829"/>
</g>
<!-- cli_metadata -->
<g id="node22" class="node">
<title>cli_metadata</title>
<ellipse fill="none" stroke="#000000" cx="2350.9954" cy="-162" rx="61.99" ry="18"/>
<text text-anchor="middle" x="2350.9954" y="-158.3" font-family="Times,serif" font-size="14.00" fill="#000000">CLI Metadata</text>
</g>
<!-- common_language_infrastructure&#45;&#45;cli_metadata -->
<g id="edge20" class="edge">
<title>common_language_infrastructure&#45;&#45;cli_metadata</title>
<path fill="none" stroke="#000000" d="M2314.3602,-215.8314C2321.8449,-204.8334 2331.3512,-190.865 2338.8043,-179.9134"/>
</g>
<!-- common_language_specification -->
<g id="node23" class="node">
<title>common_language_specification</title>
<ellipse fill="none" stroke="#000000" cx="2587.9954" cy="-162" rx="157.0724" ry="18"/>
<text text-anchor="middle" x="2587.9954" y="-158.3" font-family="Times,serif" font-size="14.00" fill="#000000">Common Language Specification (CLS)</text>
</g>
<!-- common_language_infrastructure&#45;&#45;common_language_specification -->
<g id="edge21" class="edge">
<title>common_language_infrastructure&#45;&#45;common_language_specification</title>
<path fill="none" stroke="#000000" d="M2367.2511,-217.572C2413.7426,-205.8678 2475.9858,-190.1982 2522.5255,-178.4819"/>
</g>
<!-- cli_implementations -->
<g id="node24" class="node">
<title>cli_implementations</title>
<ellipse fill="none" stroke="#000000" cx="2851.9954" cy="-162" rx="88.2844" ry="18"/>
<text text-anchor="middle" x="2851.9954" y="-158.3" font-family="Times,serif" font-size="14.00" fill="#000000">CLI implementations</text>
</g>
<!-- common_language_infrastructure&#45;&#45;cli_implementations -->
<g id="edge22" class="edge">
<title>common_language_infrastructure&#45;&#45;cli_implementations</title>
<path fill="none" stroke="#000000" d="M2414.4655,-221.3812C2526.5104,-208.6625 2690.7024,-189.5837 2753.9954,-180 2764.9417,-178.3425 2776.5398,-176.3888 2787.7797,-174.3905"/>
</g>
<!-- csharp -->
<g id="node25" class="node">
<title>csharp</title>
<ellipse fill="none" stroke="#000000" cx="2587.9954" cy="-90" rx="27" ry="18"/>
<text text-anchor="middle" x="2587.9954" y="-86.3" font-family="Times,serif" font-size="14.00" fill="#000000">C#</text>
</g>
<!-- common_language_specification&#45;&#45;csharp -->
<g id="edge23" class="edge">
<title>common_language_specification&#45;&#45;csharp</title>
<path fill="none" stroke="#000000" d="M2587.9954,-143.8314C2587.9954,-133 2587.9954,-119.2876 2587.9954,-108.4133"/>
</g>
<!-- dot_net_core -->
<g id="node26" class="node">
<title>dot_net_core</title>
<ellipse fill="none" stroke="#000000" cx="2773.9954" cy="-90" rx="50.8918" ry="18"/>
<text text-anchor="middle" x="2773.9954" y="-86.3" font-family="Times,serif" font-size="14.00" fill="#000000">.NET Core</text>
</g>
<!-- cli_implementations&#45;&#45;dot_net_core -->
<g id="edge24" class="edge">
<title>cli_implementations&#45;&#45;dot_net_core</title>
<path fill="none" stroke="#000000" d="M2832.7145,-144.2022C2820.3534,-132.792 2804.4059,-118.0712 2792.2506,-106.851"/>
</g>
<!-- dot_net_framework -->
<g id="node27" class="node">
<title>dot_net_framework</title>
<ellipse fill="none" stroke="#000000" cx="2928.9954" cy="-90" rx="74.9875" ry="18"/>
<text text-anchor="middle" x="2928.9954" y="-86.3" font-family="Times,serif" font-size="14.00" fill="#000000">.NET Framework</text>
</g>
<!-- cli_implementations&#45;&#45;dot_net_framework -->
<g id="edge25" class="edge">
<title>cli_implementations&#45;&#45;dot_net_framework</title>
<path fill="none" stroke="#000000" d="M2871.0291,-144.2022C2882.9645,-133.0419 2898.287,-118.7143 2910.1806,-107.593"/>
</g>
<!-- asp_net_core -->
<g id="node31" class="node">
<title>asp_net_core</title>
<ellipse fill="none" stroke="#000000" cx="2738.9954" cy="-18" rx="81.4863" ry="18"/>
<text text-anchor="middle" x="2738.9954" y="-14.3" font-family="Times,serif" font-size="14.00" fill="#000000">ASP.NET Core 3.1</text>
</g>
<!-- dot_net_core&#45;&#45;asp_net_core -->
<g id="edge29" class="edge">
<title>dot_net_core&#45;&#45;asp_net_core</title>
<path fill="none" stroke="#000000" d="M2765.3437,-72.2022C2759.9995,-61.2085 2753.1613,-47.1413 2747.7907,-36.0931"/>
</g>
<!-- wpf -->
<g id="node28" class="node">
<title>wpf</title>
<ellipse fill="none" stroke="#000000" cx="2866.9954" cy="-18" rx="29.4969" ry="18"/>
<text text-anchor="middle" x="2866.9954" y="-14.3" font-family="Times,serif" font-size="14.00" fill="#000000">WPF</text>
</g>
<!-- dot_net_framework&#45;&#45;wpf -->
<g id="edge26" class="edge">
<title>dot_net_framework&#45;&#45;wpf</title>
<path fill="none" stroke="#000000" d="M2913.6695,-72.2022C2903.6289,-60.5422 2890.6113,-45.4249 2880.8756,-34.119"/>
</g>
<!-- winforms -->
<g id="node29" class="node">
<title>winforms</title>
<ellipse fill="none" stroke="#000000" cx="2963.9954" cy="-18" rx="49.2915" ry="18"/>
<text text-anchor="middle" x="2963.9954" y="-14.3" font-family="Times,serif" font-size="14.00" fill="#000000">WinForms</text>
</g>
<!-- dot_net_framework&#45;&#45;winforms -->
<g id="edge27" class="edge">
<title>dot_net_framework&#45;&#45;winforms</title>
<path fill="none" stroke="#000000" d="M2937.8274,-71.8314C2943.1736,-60.8334 2949.9638,-46.865 2955.2875,-35.9134"/>
</g>
<!-- devexpress -->
<g id="node30" class="node">
<title>devexpress</title>
<ellipse fill="none" stroke="#000000" cx="3085.9954" cy="-18" rx="54.6905" ry="18"/>
<text text-anchor="middle" x="3085.9954" y="-14.3" font-family="Times,serif" font-size="14.00" fill="#000000">DevExpress</text>
</g>
<!-- dot_net_framework&#45;&#45;devexpress -->
<g id="edge28" class="edge">
<title>dot_net_framework&#45;&#45;devexpress</title>
<path fill="none" stroke="#000000" d="M2963.8388,-74.0209C2990.7597,-61.6749 3027.7248,-44.7228 3053.9223,-32.7087"/>
</g>
<!-- sql_server -->
<g id="node35" class="node">
<title>sql_server</title>
<ellipse fill="none" stroke="#000000" cx="2569.9954" cy="-234" rx="92.0841" ry="18"/>
<text text-anchor="middle" x="2569.9954" y="-230.3" font-family="Times,serif" font-size="14.00" fill="#000000">Microsoft SQL Server</text>
</g>
<!-- relational_dbms&#45;&#45;sql_server -->
<g id="edge33" class="edge">
<title>relational_dbms&#45;&#45;sql_server</title>
<path fill="none" stroke="#000000" d="M2450.556,-289.8418C2475.4752,-278.1913 2509.0183,-262.5088 2534.2132,-250.7293"/>
</g>
<!-- oracle_database -->
<g id="node36" class="node">
<title>oracle_database</title>
<ellipse fill="none" stroke="#000000" cx="2750.9954" cy="-234" rx="70.6878" ry="18"/>
<text text-anchor="middle" x="2750.9954" y="-230.3" font-family="Times,serif" font-size="14.00" fill="#000000">Oracle Database</text>
</g>
<!-- relational_dbms&#45;&#45;oracle_database -->
<g id="edge34" class="edge">
<title>relational_dbms&#45;&#45;oracle_database</title>
<path fill="none" stroke="#000000" d="M2472.8451,-293.9658C2547.2433,-278.2163 2668.5465,-252.5348 2670.9954,-252 2679.7576,-250.0866 2689.0522,-248.0248 2698.0864,-246.0035"/>
</g>
<!-- t_sql -->
<g id="node37" class="node">
<title>t_sql</title>
<ellipse fill="none" stroke="#000000" cx="2994.9954" cy="-162" rx="36.2938" ry="18"/>
<text text-anchor="middle" x="2994.9954" y="-158.3" font-family="Times,serif" font-size="14.00" fill="#000000">T&#45;SQL</text>
</g>
<!-- sql_server&#45;&#45;t_sql -->
<g id="edge35" class="edge">
<title>sql_server&#45;&#45;t_sql</title>
<path fill="none" stroke="#000000" d="M2637.0166,-221.5945C2648.3425,-219.6305 2659.9928,-217.6918 2670.9954,-216 2794.1353,-197.065 2828.3086,-210.93 2948.9954,-180 2955.1428,-178.4245 2961.5798,-176.2558 2967.6254,-173.9685"/>
</g>
<!-- creational_patterns -->
<g id="node40" class="node">
<title>creational_patterns</title>
<ellipse fill="none" stroke="#000000" cx="533.9954" cy="-162" rx="79.8859" ry="18"/>
<text text-anchor="middle" x="533.9954" y="-158.3" font-family="Times,serif" font-size="14.00" fill="#000000">Creational patterns</text>
</g>
<!-- desing_patterns&#45;&#45;creational_patterns -->
<g id="edge38" class="edge">
<title>desing_patterns&#45;&#45;creational_patterns</title>
<path fill="none" stroke="#000000" d="M755.2135,-221.2108C707.656,-208.4817 634.8825,-189.0032 585.9217,-175.8985"/>
</g>
<!-- behavioral_patterns -->
<g id="node41" class="node">
<title>behavioral_patterns</title>
<ellipse fill="none" stroke="#000000" cx="713.9954" cy="-162" rx="81.7856" ry="18"/>
<text text-anchor="middle" x="713.9954" y="-158.3" font-family="Times,serif" font-size="14.00" fill="#000000">Behavioral patterns</text>
</g>
<!-- desing_patterns&#45;&#45;behavioral_patterns -->
<g id="edge39" class="edge">
<title>desing_patterns&#45;&#45;behavioral_patterns</title>
<path fill="none" stroke="#000000" d="M781.451,-216.5708C767.5608,-205.3339 749.5616,-190.7727 735.6499,-179.5182"/>
</g>
<!-- structural_patterns -->
<g id="node42" class="node">
<title>structural_patterns</title>
<ellipse fill="none" stroke="#000000" cx="891.9954" cy="-162" rx="77.9862" ry="18"/>
<text text-anchor="middle" x="891.9954" y="-158.3" font-family="Times,serif" font-size="14.00" fill="#000000">Structural patterns</text>
</g>
<!-- desing_patterns&#45;&#45;structural_patterns -->
<g id="edge40" class="edge">
<title>desing_patterns&#45;&#45;structural_patterns</title>
<path fill="none" stroke="#000000" d="M824.5398,-216.5708C838.4299,-205.3339 856.4291,-190.7727 870.3409,-179.5182"/>
</g>
<!-- solid -->
<g id="node43" class="node">
<title>solid</title>
<ellipse fill="none" stroke="#000000" cx="1025.9954" cy="-162" rx="37.8943" ry="18"/>
<text text-anchor="middle" x="1025.9954" y="-158.3" font-family="Times,serif" font-size="14.00" fill="#000000">SOLID</text>
</g>
<!-- desing_principles&#45;&#45;solid -->
<g id="edge41" class="edge">
<title>desing_principles&#45;&#45;solid</title>
<path fill="none" stroke="#000000" d="M1123.5398,-217.3008C1101.4106,-204.7551 1071.4497,-187.7694 1050.5952,-175.9463"/>
</g>
<!-- dry -->
<g id="node44" class="node">
<title>dry</title>
<ellipse fill="none" stroke="#000000" cx="1111.9954" cy="-162" rx="29.795" ry="18"/>
<text text-anchor="middle" x="1111.9954" y="-158.3" font-family="Times,serif" font-size="14.00" fill="#000000">DRY</text>
</g>
<!-- desing_principles&#45;&#45;dry -->
<g id="edge42" class="edge">
<title>desing_principles&#45;&#45;dry</title>
<path fill="none" stroke="#000000" d="M1142.6494,-215.8314C1136.2917,-204.6667 1128.191,-190.441 1121.9138,-179.4177"/>
</g>
<!-- kiss -->
<g id="node45" class="node">
<title>kiss</title>
<ellipse fill="none" stroke="#000000" cx="1189.9954" cy="-162" rx="30.5947" ry="18"/>
<text text-anchor="middle" x="1189.9954" y="-158.3" font-family="Times,serif" font-size="14.00" fill="#000000">KISS</text>
</g>
<!-- desing_principles&#45;&#45;kiss -->
<g id="edge43" class="edge">
<title>desing_principles&#45;&#45;kiss</title>
<path fill="none" stroke="#000000" d="M1162.332,-215.8314C1168.0694,-204.6667 1175.3799,-190.441 1181.0446,-179.4177"/>
</g>
<!-- yagni -->
<g id="node46" class="node">
<title>yagni</title>
<ellipse fill="none" stroke="#000000" cx="1278.9954" cy="-162" rx="40.0939" ry="18"/>
<text text-anchor="middle" x="1278.9954" y="-158.3" font-family="Times,serif" font-size="14.00" fill="#000000">YAGNI</text>
</g>
<!-- desing_principles&#45;&#45;yagni -->
<g id="edge44" class="edge">
<title>desing_principles&#45;&#45;yagni</title>
<path fill="none" stroke="#000000" d="M1182.219,-217.3008C1204.0286,-204.8382 1233.5056,-187.9942 1254.177,-176.1819"/>
</g>
<!-- html -->
<g id="node48" class="node">
<title>html</title>
<ellipse fill="none" stroke="#000000" cx="1373.9954" cy="-162" rx="36.2938" ry="18"/>
<text text-anchor="middle" x="1373.9954" y="-158.3" font-family="Times,serif" font-size="14.00" fill="#000000">HTML</text>
</g>
<!-- client_side&#45;&#45;html -->
<g id="edge46" class="edge">
<title>client_side&#45;&#45;html</title>
<path fill="none" stroke="#000000" d="M1620.6984,-226.2965C1570.4347,-217.3847 1488.0876,-201.1799 1418.9954,-180 1413.364,-178.2737 1407.4477,-176.1457 1401.8234,-173.9647"/>
</g>
<!-- css -->
<g id="node49" class="node">
<title>css</title>
<ellipse fill="none" stroke="#000000" cx="1454.9954" cy="-162" rx="27" ry="18"/>
<text text-anchor="middle" x="1454.9954" y="-158.3" font-family="Times,serif" font-size="14.00" fill="#000000">CSS</text>
</g>
<!-- client_side&#45;&#45;css -->
<g id="edge47" class="edge">
<title>client_side&#45;&#45;css</title>
<path fill="none" stroke="#000000" d="M1625.7869,-223.4417C1589.689,-213.7029 1536.099,-198.0502 1490.9954,-180 1486.1946,-178.0788 1481.1613,-175.7642 1476.4309,-173.4443"/>
</g>
<!-- javascript -->
<g id="node50" class="node">
<title>javascript</title>
<ellipse fill="none" stroke="#000000" cx="1548.9954" cy="-162" rx="48.9926" ry="18"/>
<text text-anchor="middle" x="1548.9954" y="-158.3" font-family="Times,serif" font-size="14.00" fill="#000000">JavaScript</text>
</g>
<!-- client_side&#45;&#45;javascript -->
<g id="edge48" class="edge">
<title>client_side&#45;&#45;javascript</title>
<path fill="none" stroke="#000000" d="M1641.3911,-218.3771C1621.5986,-206.3003 1594.3296,-189.6616 1574.5497,-177.5924"/>
</g>
<!-- typescript -->
<g id="node51" class="node">
<title>typescript</title>
<ellipse fill="none" stroke="#000000" cx="1666.9954" cy="-162" rx="51.1914" ry="18"/>
<text text-anchor="middle" x="1666.9954" y="-158.3" font-family="Times,serif" font-size="14.00" fill="#000000">TypeScript</text>
</g>
<!-- client_side&#45;&#45;typescript -->
<g id="edge49" class="edge">
<title>client_side&#45;&#45;typescript</title>
<path fill="none" stroke="#000000" d="M1666.9954,-215.8314C1666.9954,-205 1666.9954,-191.2876 1666.9954,-180.4133"/>
</g>
<!-- react -->
<g id="node52" class="node">
<title>react</title>
<ellipse fill="none" stroke="#000000" cx="1767.9954" cy="-162" rx="31.3957" ry="18"/>
<text text-anchor="middle" x="1767.9954" y="-158.3" font-family="Times,serif" font-size="14.00" fill="#000000">React</text>
</g>
<!-- client_side&#45;&#45;react -->
<g id="edge50" class="edge">
<title>client_side&#45;&#45;react</title>
<path fill="none" stroke="#000000" d="M1689.6618,-217.8418C1707.2262,-205.3206 1731.3236,-188.1423 1748.1361,-176.1571"/>
</g>
<!-- angular -->
<g id="node53" class="node">
<title>angular</title>
<ellipse fill="none" stroke="#000000" cx="1856.9954" cy="-162" rx="40.0939" ry="18"/>
<text text-anchor="middle" x="1856.9954" y="-158.3" font-family="Times,serif" font-size="14.00" fill="#000000">Angular</text>
</g>
<!-- client_side&#45;&#45;angular -->
<g id="edge51" class="edge">
<title>client_side&#45;&#45;angular</title>
<path fill="none" stroke="#000000" d="M1701.8443,-220.7941C1737.412,-207.3158 1792.0894,-186.5959 1826.1384,-173.6932"/>
</g>
<!-- dot_net&#45;&#45;common_language_infrastructure -->
<g id="edge54" class="edge">
<title>dot_net&#45;&#45;common_language_infrastructure</title>
<path fill="none" stroke="#000000" d="M2138.4119,-294.6725C2143.5306,-292.3938 2148.9166,-290.066 2153.9954,-288 2186.4245,-274.8078 2223.4245,-261.3078 2252.3172,-251.1059"/>
</g>
<!-- resharper -->
<g id="node58" class="node">
<title>resharper</title>
<ellipse fill="none" stroke="#000000" cx="1964.9954" cy="-162" rx="49.2915" ry="18"/>
<text text-anchor="middle" x="1964.9954" y="-158.3" font-family="Times,serif" font-size="14.00" fill="#000000">ReSharper</text>
</g>
<!-- visual_studio&#45;&#45;resharper -->
<g id="edge57" class="edge">
<title>visual_studio&#45;&#45;resharper</title>
<path fill="none" stroke="#000000" d="M1915.31,-216.2022C1925.693,-204.8753 1939.0666,-190.2859 1949.3229,-179.0972"/>
</g>
</g>
</svg>
