<?xml version="1.0" encoding="UTF-8" standalone="no"?>
<!DOCTYPE svg PUBLIC "-//W3C//DTD SVG 1.1//EN"
 "http://www.w3.org/Graphics/SVG/1.1/DTD/svg11.dtd">
<!-- Generated by graphviz version 2.40.1 (20161225.0304)
 -->
<!-- Title: expertise Pages: 1 -->
<svg width="4160pt" height="692pt"
 viewBox="0.00 0.00 4159.84 692.00" xmlns="http://www.w3.org/2000/svg" xmlns:xlink="http://www.w3.org/1999/xlink">
<g id="graph0" class="graph" transform="scale(1 1) rotate(0) translate(4 688)">
<title>expertise</title>
<polygon fill="#ffffff" stroke="transparent" points="-4,4 -4,-688 4155.8414,-688 4155.8414,4 -4,4"/>
<!-- software_development -->
<g id="node1" class="node">
<title>software_development</title>
<ellipse fill="none" stroke="#000000" cx="1714.9954" cy="-666" rx="92.8835" ry="18"/>
<text text-anchor="middle" x="1714.9954" y="-662.3" font-family="Times,serif" font-size="14.00" fill="#000000">Software development</text>
</g>
<!-- computer_science -->
<g id="node2" class="node">
<title>computer_science</title>
<ellipse fill="none" stroke="#000000" cx="304.9954" cy="-594" rx="76.0865" ry="18"/>
<text text-anchor="middle" x="304.9954" y="-590.3" font-family="Times,serif" font-size="14.00" fill="#000000">Computer science</text>
</g>
<!-- software_development&#45;&#45;computer_science -->
<g id="edge1" class="edge">
<title>software_development&#45;&#45;computer_science</title>
<path fill="none" stroke="#000000" d="M1624.918,-661.4003C1365.1861,-648.1374 618.1663,-609.9917 379.3537,-597.797"/>
</g>
<!-- operating_systems -->
<g id="node3" class="node">
<title>operating_systems</title>
<ellipse fill="none" stroke="#000000" cx="803.9954" cy="-594" rx="77.9862" ry="18"/>
<text text-anchor="middle" x="803.9954" y="-590.3" font-family="Times,serif" font-size="14.00" fill="#000000">Operating systems</text>
</g>
<!-- software_development&#45;&#45;operating_systems -->
<g id="edge2" class="edge">
<title>software_development&#45;&#45;operating_systems</title>
<path fill="none" stroke="#000000" d="M1628.8805,-659.194C1450.7999,-645.1196 1044.7607,-613.0287 877.7923,-599.8325"/>
</g>
<!-- programming -->
<g id="node4" class="node">
<title>programming</title>
<ellipse fill="none" stroke="#000000" cx="1714.9954" cy="-594" rx="60.3893" ry="18"/>
<text text-anchor="middle" x="1714.9954" y="-590.3" font-family="Times,serif" font-size="14.00" fill="#000000">Programming</text>
</g>
<!-- software_development&#45;&#45;programming -->
<g id="edge3" class="edge">
<title>software_development&#45;&#45;programming</title>
<path fill="none" stroke="#000000" d="M1714.9954,-647.8314C1714.9954,-637 1714.9954,-623.2876 1714.9954,-612.4133"/>
</g>
<!-- developer_platforms -->
<g id="node5" class="node">
<title>developer_platforms</title>
<ellipse fill="none" stroke="#000000" cx="2234.9954" cy="-594" rx="85.5853" ry="18"/>
<text text-anchor="middle" x="2234.9954" y="-590.3" font-family="Times,serif" font-size="14.00" fill="#000000">Developer platforms</text>
</g>
<!-- software_development&#45;&#45;developer_platforms -->
<g id="edge4" class="edge">
<title>software_development&#45;&#45;developer_platforms</title>
<path fill="none" stroke="#000000" d="M1790.6079,-655.5306C1890.4638,-641.7044 2065.0794,-617.5268 2163.0597,-603.9603"/>
</g>
<!-- databases -->
<g id="node6" class="node">
<title>databases</title>
<ellipse fill="none" stroke="#000000" cx="3065.9954" cy="-594" rx="47.3916" ry="18"/>
<text text-anchor="middle" x="3065.9954" y="-590.3" font-family="Times,serif" font-size="14.00" fill="#000000">Databases</text>
</g>
<!-- software_development&#45;&#45;databases -->
<g id="edge5" class="edge">
<title>software_development&#45;&#45;databases</title>
<path fill="none" stroke="#000000" d="M1804.6845,-661.2201C2066.3497,-647.275 2822.713,-606.9655 3019.0064,-596.5042"/>
</g>
<!-- algorithms -->
<g id="node12" class="node">
<title>algorithms</title>
<ellipse fill="none" stroke="#000000" cx="51.9954" cy="-522" rx="51.9908" ry="18"/>
<text text-anchor="middle" x="51.9954" y="-518.3" font-family="Times,serif" font-size="14.00" fill="#000000">Algorithms</text>
</g>
<!-- computer_science&#45;&#45;algorithms -->
<g id="edge11" class="edge">
<title>computer_science&#45;&#45;algorithms</title>
<path fill="none" stroke="#000000" d="M255.6196,-580.2999C216.8107,-569.4866 161.4073,-553.95 112.9954,-540 106.0989,-538.0127 98.7719,-535.8742 91.6777,-533.7893"/>
</g>
<!-- analysis_of_algorithms -->
<g id="node13" class="node">
<title>analysis_of_algorithms</title>
<ellipse fill="none" stroke="#000000" cx="215.9954" cy="-522" rx="93.6835" ry="18"/>
<text text-anchor="middle" x="215.9954" y="-518.3" font-family="Times,serif" font-size="14.00" fill="#000000">Analysis of algorithms</text>
</g>
<!-- computer_science&#45;&#45;analysis_of_algorithms -->
<g id="edge12" class="edge">
<title>computer_science&#45;&#45;analysis_of_algorithms</title>
<path fill="none" stroke="#000000" d="M283.451,-576.5708C269.5608,-565.3339 251.5616,-550.7727 237.6499,-539.5182"/>
</g>
<!-- data_structures -->
<g id="node14" class="node">
<title>data_structures</title>
<ellipse fill="none" stroke="#000000" cx="392.9954" cy="-522" rx="65.7887" ry="18"/>
<text text-anchor="middle" x="392.9954" y="-518.3" font-family="Times,serif" font-size="14.00" fill="#000000">Data structures</text>
</g>
<!-- computer_science&#45;&#45;data_structures -->
<g id="edge13" class="edge">
<title>computer_science&#45;&#45;data_structures</title>
<path fill="none" stroke="#000000" d="M326.2977,-576.5708C340.1335,-565.2506 358.0926,-550.5568 371.8892,-539.2687"/>
</g>
<!-- unix -->
<g id="node15" class="node">
<title>unix</title>
<ellipse fill="none" stroke="#000000" cx="509.9954" cy="-522" rx="33.2948" ry="18"/>
<text text-anchor="middle" x="509.9954" y="-518.3" font-family="Times,serif" font-size="14.00" fill="#000000">UNIX</text>
</g>
<!-- operating_systems&#45;&#45;unix -->
<g id="edge14" class="edge">
<title>operating_systems&#45;&#45;unix</title>
<path fill="none" stroke="#000000" d="M750.4131,-580.8778C688.8008,-565.7891 589.8041,-541.545 540.2718,-529.4146"/>
</g>
<!-- windows -->
<g id="node16" class="node">
<title>windows</title>
<ellipse fill="none" stroke="#000000" cx="803.9954" cy="-522" rx="45.4919" ry="18"/>
<text text-anchor="middle" x="803.9954" y="-518.3" font-family="Times,serif" font-size="14.00" fill="#000000">Windows</text>
</g>
<!-- operating_systems&#45;&#45;windows -->
<g id="edge15" class="edge">
<title>operating_systems&#45;&#45;windows</title>
<path fill="none" stroke="#000000" d="M803.9954,-575.8314C803.9954,-565 803.9954,-551.2876 803.9954,-540.4133"/>
</g>
<!-- desinging -->
<g id="node7" class="node">
<title>desinging</title>
<ellipse fill="none" stroke="#000000" cx="1014.9954" cy="-522" rx="48.1917" ry="18"/>
<text text-anchor="middle" x="1014.9954" y="-518.3" font-family="Times,serif" font-size="14.00" fill="#000000">Designing</text>
</g>
<!-- programming&#45;&#45;desinging -->
<g id="edge6" class="edge">
<title>programming&#45;&#45;desinging</title>
<path fill="none" stroke="#000000" d="M1657.7114,-588.1079C1522.5304,-574.2036 1185.7393,-539.5622 1061.7641,-526.8105"/>
</g>
<!-- web_development -->
<g id="node8" class="node">
<title>web_development</title>
<ellipse fill="none" stroke="#000000" cx="1496.9954" cy="-522" rx="77.1866" ry="18"/>
<text text-anchor="middle" x="1496.9954" y="-518.3" font-family="Times,serif" font-size="14.00" fill="#000000">Web development</text>
</g>
<!-- programming&#45;&#45;web_development -->
<g id="edge7" class="edge">
<title>programming&#45;&#45;web_development</title>
<path fill="none" stroke="#000000" d="M1674.5022,-580.6261C1636.8235,-568.1818 1580.7785,-549.6715 1541.7791,-536.791"/>
</g>
<!-- ide -->
<g id="node9" class="node">
<title>ide</title>
<ellipse fill="none" stroke="#000000" cx="1714.9954" cy="-522" rx="27" ry="18"/>
<text text-anchor="middle" x="1714.9954" y="-518.3" font-family="Times,serif" font-size="14.00" fill="#000000">IDE</text>
</g>
<!-- programming&#45;&#45;ide -->
<g id="edge8" class="edge">
<title>programming&#45;&#45;ide</title>
<path fill="none" stroke="#000000" d="M1714.9954,-575.8314C1714.9954,-565 1714.9954,-551.2876 1714.9954,-540.4133"/>
</g>
<!-- version_control_system -->
<g id="node10" class="node">
<title>version_control_system</title>
<ellipse fill="none" stroke="#000000" cx="1887.9954" cy="-522" rx="94.7833" ry="18"/>
<text text-anchor="middle" x="1887.9954" y="-518.3" font-family="Times,serif" font-size="14.00" fill="#000000">Version control system</text>
</g>
<!-- programming&#45;&#45;version_control_system -->
<g id="edge9" class="edge">
<title>programming&#45;&#45;version_control_system</title>
<path fill="none" stroke="#000000" d="M1750.422,-579.256C1778.892,-567.4072 1818.8624,-550.7721 1848.3871,-538.4844"/>
</g>
<!-- regular_expressions -->
<g id="node11" class="node">
<title>regular_expressions</title>
<ellipse fill="none" stroke="#000000" cx="2084.9954" cy="-522" rx="84.485" ry="18"/>
<text text-anchor="middle" x="2084.9954" y="-518.3" font-family="Times,serif" font-size="14.00" fill="#000000">Regular expressions</text>
</g>
<!-- programming&#45;&#45;regular_expressions -->
<g id="edge10" class="edge">
<title>programming&#45;&#45;regular_expressions</title>
<path fill="none" stroke="#000000" d="M1765.6665,-584.1397C1832.5626,-571.1221 1950.3005,-548.2109 2022.5993,-534.1419"/>
</g>
<!-- dot_net -->
<g id="node21" class="node">
<title>dot_net</title>
<ellipse fill="none" stroke="#000000" cx="2234.9954" cy="-522" rx="30.5947" ry="18"/>
<text text-anchor="middle" x="2234.9954" y="-518.3" font-family="Times,serif" font-size="14.00" fill="#000000">.NET</text>
</g>
<!-- developer_platforms&#45;&#45;dot_net -->
<g id="edge78" class="edge">
<title>developer_platforms&#45;&#45;dot_net</title>
<path fill="none" stroke="#000000" d="M2234.9954,-575.8314C2234.9954,-565 2234.9954,-551.2876 2234.9954,-540.4133"/>
</g>
<!-- java -->
<g id="node80" class="node">
<title>java</title>
<ellipse fill="none" stroke="#000000" cx="2310.9954" cy="-522" rx="27" ry="18"/>
<text text-anchor="middle" x="2310.9954" y="-518.3" font-family="Times,serif" font-size="14.00" fill="#000000">Java</text>
</g>
<!-- developer_platforms&#45;&#45;java -->
<g id="edge79" class="edge">
<title>developer_platforms&#45;&#45;java</title>
<path fill="none" stroke="#000000" d="M2253.7819,-576.2022C2266.4414,-564.209 2282.9617,-548.5583 2294.9938,-537.1594"/>
</g>
<!-- acid -->
<g id="node43" class="node">
<title>acid</title>
<ellipse fill="none" stroke="#000000" cx="2388.9954" cy="-522" rx="33.2948" ry="18"/>
<text text-anchor="middle" x="2388.9954" y="-518.3" font-family="Times,serif" font-size="14.00" fill="#000000">ACID</text>
</g>
<!-- databases&#45;&#45;acid -->
<g id="edge41" class="edge">
<title>databases&#45;&#45;acid</title>
<path fill="none" stroke="#000000" d="M3018.7089,-591.9375C2891.2178,-586.0652 2542.4954,-567.8614 2430.9954,-540 2425.3,-538.5769 2419.3879,-536.4724 2413.8602,-534.1995"/>
</g>
<!-- isolation_levels -->
<g id="node44" class="node">
<title>isolation_levels</title>
<ellipse fill="none" stroke="#000000" cx="2505.9954" cy="-522" rx="66.0889" ry="18"/>
<text text-anchor="middle" x="2505.9954" y="-518.3" font-family="Times,serif" font-size="14.00" fill="#000000">Isolation levels</text>
</g>
<!-- databases&#45;&#45;isolation_levels -->
<g id="edge42" class="edge">
<title>databases&#45;&#45;isolation_levels</title>
<path fill="none" stroke="#000000" d="M3019.241,-590.7434C2932.4187,-584.2647 2740.601,-567.9258 2580.9954,-540 2572.2899,-538.4768 2563.0881,-536.5426 2554.2245,-534.5106"/>
</g>
<!-- transactions -->
<g id="node45" class="node">
<title>transactions</title>
<ellipse fill="none" stroke="#000000" cx="2646.9954" cy="-522" rx="57.3905" ry="18"/>
<text text-anchor="middle" x="2646.9954" y="-518.3" font-family="Times,serif" font-size="14.00" fill="#000000">Transactions</text>
</g>
<!-- databases&#45;&#45;transactions -->
<g id="edge43" class="edge">
<title>databases&#45;&#45;transactions</title>
<path fill="none" stroke="#000000" d="M3020.5598,-588.7391C2953.0543,-580.5421 2822.4654,-563.2211 2712.9954,-540 2705.2111,-538.3488 2696.9806,-536.3289 2689.0707,-534.2465"/>
</g>
<!-- indexes -->
<g id="node46" class="node">
<title>indexes</title>
<ellipse fill="none" stroke="#000000" cx="2760.9954" cy="-522" rx="38.9931" ry="18"/>
<text text-anchor="middle" x="2760.9954" y="-518.3" font-family="Times,serif" font-size="14.00" fill="#000000">Indexes</text>
</g>
<!-- databases&#45;&#45;indexes -->
<g id="edge44" class="edge">
<title>databases&#45;&#45;indexes</title>
<path fill="none" stroke="#000000" d="M3022.3015,-586.9036C2970.7636,-578.0557 2882.764,-561.4473 2808.9954,-540 2802.9276,-538.2359 2796.5334,-536.0657 2790.4606,-533.8505"/>
</g>
<!-- triggers -->
<g id="node47" class="node">
<title>triggers</title>
<ellipse fill="none" stroke="#000000" cx="2859.9954" cy="-522" rx="41.6928" ry="18"/>
<text text-anchor="middle" x="2859.9954" y="-518.3" font-family="Times,serif" font-size="14.00" fill="#000000">Triggers</text>
</g>
<!-- databases&#45;&#45;triggers -->
<g id="edge45" class="edge">
<title>databases&#45;&#45;triggers</title>
<path fill="none" stroke="#000000" d="M3030.6369,-581.8992C2998.9901,-571.0357 2951.3438,-554.5986 2909.9954,-540 2904.1666,-537.9421 2897.964,-535.7284 2891.9825,-533.5815"/>
</g>
<!-- stored_procedures -->
<g id="node48" class="node">
<title>stored_procedures</title>
<ellipse fill="none" stroke="#000000" cx="2995.9954" cy="-522" rx="76.8869" ry="18"/>
<text text-anchor="middle" x="2995.9954" y="-518.3" font-family="Times,serif" font-size="14.00" fill="#000000">Stored procedures</text>
</g>
<!-- databases&#45;&#45;stored_procedures -->
<g id="edge46" class="edge">
<title>databases&#45;&#45;stored_procedures</title>
<path fill="none" stroke="#000000" d="M3049.4064,-576.937C3038.4904,-565.7091 3024.2342,-551.0456 3013.1964,-539.6924"/>
</g>
<!-- functions -->
<g id="node49" class="node">
<title>functions</title>
<ellipse fill="none" stroke="#000000" cx="3136.9954" cy="-522" rx="46.5926" ry="18"/>
<text text-anchor="middle" x="3136.9954" y="-518.3" font-family="Times,serif" font-size="14.00" fill="#000000">Functions</text>
</g>
<!-- databases&#45;&#45;functions -->
<g id="edge47" class="edge">
<title>databases&#45;&#45;functions</title>
<path fill="none" stroke="#000000" d="M3082.8214,-576.937C3094.1394,-565.4596 3108.9975,-550.3922 3120.2902,-538.9405"/>
</g>
<!-- execution_plans -->
<g id="node50" class="node">
<title>execution_plans</title>
<ellipse fill="none" stroke="#000000" cx="3270.9954" cy="-522" rx="68.7879" ry="18"/>
<text text-anchor="middle" x="3270.9954" y="-518.3" font-family="Times,serif" font-size="14.00" fill="#000000">Execution plans</text>
</g>
<!-- databases&#45;&#45;execution_plans -->
<g id="edge48" class="edge">
<title>databases&#45;&#45;execution_plans</title>
<path fill="none" stroke="#000000" d="M3101.2361,-581.6228C3136.9532,-569.0782 3192.1781,-549.6822 3229.8726,-536.4431"/>
</g>
<!-- sql -->
<g id="node51" class="node">
<title>sql</title>
<ellipse fill="none" stroke="#000000" cx="3385.9954" cy="-522" rx="27.8951" ry="18"/>
<text text-anchor="middle" x="3385.9954" y="-518.3" font-family="Times,serif" font-size="14.00" fill="#000000">SQL</text>
</g>
<!-- databases&#45;&#45;sql -->
<g id="edge49" class="edge">
<title>databases&#45;&#45;sql</title>
<path fill="none" stroke="#000000" d="M3112.0287,-589.01C3168.8228,-581.9964 3267.8238,-566.9591 3348.9954,-540 3354.1477,-538.2888 3359.5017,-536.0072 3364.4837,-533.6447"/>
</g>
<!-- relational_dbms -->
<g id="node52" class="node">
<title>relational_dbms</title>
<ellipse fill="none" stroke="#000000" cx="3507.9954" cy="-522" rx="76.0865" ry="18"/>
<text text-anchor="middle" x="3507.9954" y="-518.3" font-family="Times,serif" font-size="14.00" fill="#000000">Relational DBMS</text>
</g>
<!-- databases&#45;&#45;relational_dbms -->
<g id="edge50" class="edge">
<title>databases&#45;&#45;relational_dbms</title>
<path fill="none" stroke="#000000" d="M3110.9393,-588.0622C3178.7556,-578.9083 3311.2038,-560.2736 3422.9954,-540 3432.4943,-538.2773 3442.5563,-536.291 3452.3061,-534.2805"/>
</g>
<!-- nosql_databases -->
<g id="node53" class="node">
<title>nosql_databases</title>
<ellipse fill="none" stroke="#000000" cx="3677.9954" cy="-522" rx="76.0865" ry="18"/>
<text text-anchor="middle" x="3677.9954" y="-518.3" font-family="Times,serif" font-size="14.00" fill="#000000">NoSQL databases</text>
</g>
<!-- databases&#45;&#45;nosql_databases -->
<g id="edge51" class="edge">
<title>databases&#45;&#45;nosql_databases</title>
<path fill="none" stroke="#000000" d="M3112.7378,-590.8914C3204.9663,-584.3872 3416.7195,-567.6152 3592.9954,-540 3602.682,-538.4825 3612.9294,-536.5752 3622.8284,-534.5738"/>
</g>
<!-- column_oriented_dbms -->
<g id="node54" class="node">
<title>column_oriented_dbms</title>
<ellipse fill="none" stroke="#000000" cx="3872.9954" cy="-522" rx="100.9827" ry="18"/>
<text text-anchor="middle" x="3872.9954" y="-518.3" font-family="Times,serif" font-size="14.00" fill="#000000">Column&#45;oriented DBMS</text>
</g>
<!-- databases&#45;&#45;column_oriented_dbms -->
<g id="edge52" class="edge">
<title>databases&#45;&#45;column_oriented_dbms</title>
<path fill="none" stroke="#000000" d="M3113.4588,-591.7154C3226.3407,-585.9786 3519.5849,-569.2909 3762.9954,-540 3775.3875,-538.5088 3788.518,-536.6264 3801.2282,-534.6445"/>
</g>
<!-- db_ide -->
<g id="node55" class="node">
<title>db_ide</title>
<ellipse fill="none" stroke="#000000" cx="4018.9954" cy="-522" rx="27" ry="18"/>
<text text-anchor="middle" x="4018.9954" y="-518.3" font-family="Times,serif" font-size="14.00" fill="#000000">IDE</text>
</g>
<!-- databases&#45;&#45;db_ide -->
<g id="edge53" class="edge">
<title>databases&#45;&#45;db_ide</title>
<path fill="none" stroke="#000000" d="M3113.6907,-593.7174C3277.5495,-592.3536 3816.5073,-584.5094 3982.9954,-540 3988.2609,-538.5923 3993.6598,-536.3714 3998.6219,-533.9635"/>
</g>
<!-- desing_patterns -->
<g id="node64" class="node">
<title>desing_patterns</title>
<ellipse fill="none" stroke="#000000" cx="666.9954" cy="-450" rx="67.6881" ry="18"/>
<text text-anchor="middle" x="666.9954" y="-446.3" font-family="Times,serif" font-size="14.00" fill="#000000">Design patterns</text>
</g>
<!-- desinging&#45;&#45;desing_patterns -->
<g id="edge62" class="edge">
<title>desinging&#45;&#45;desing_patterns</title>
<path fill="none" stroke="#000000" d="M972.6717,-513.2434C909.2734,-500.1265 789.7098,-475.3892 720.3954,-461.0483"/>
</g>
<!-- desing_principles -->
<g id="node65" class="node">
<title>desing_principles</title>
<ellipse fill="none" stroke="#000000" cx="1014.9954" cy="-450" rx="74.9875" ry="18"/>
<text text-anchor="middle" x="1014.9954" y="-446.3" font-family="Times,serif" font-size="14.00" fill="#000000">Desing principles</text>
</g>
<!-- desinging&#45;&#45;desing_principles -->
<g id="edge63" class="edge">
<title>desinging&#45;&#45;desing_principles</title>
<path fill="none" stroke="#000000" d="M1014.9954,-503.8314C1014.9954,-493 1014.9954,-479.2876 1014.9954,-468.4133"/>
</g>
<!-- client_side -->
<g id="node73" class="node">
<title>client_side</title>
<ellipse fill="none" stroke="#000000" cx="1399.9954" cy="-450" rx="50.8918" ry="18"/>
<text text-anchor="middle" x="1399.9954" y="-446.3" font-family="Times,serif" font-size="14.00" fill="#000000">Client&#45;side</text>
</g>
<!-- web_development&#45;&#45;client_side -->
<g id="edge71" class="edge">
<title>web_development&#45;&#45;client_side</title>
<path fill="none" stroke="#000000" d="M1473.5144,-504.5708C1457.815,-492.9177 1437.2993,-477.6895 1421.9304,-466.2817"/>
</g>
<!-- visual_studio -->
<g id="node81" class="node">
<title>visual_studio</title>
<ellipse fill="none" stroke="#000000" cx="1566.9954" cy="-450" rx="98.5829" ry="18"/>
<text text-anchor="middle" x="1566.9954" y="-446.3" font-family="Times,serif" font-size="14.00" fill="#000000">Microsoft Visual Studio</text>
</g>
<!-- ide&#45;&#45;visual_studio -->
<g id="edge80" class="edge">
<title>ide&#45;&#45;visual_studio</title>
<path fill="none" stroke="#000000" d="M1693.1575,-511.3762C1669.1156,-499.6801 1630.1279,-480.7131 1601.8497,-466.9562"/>
</g>
<!-- rider -->
<g id="node82" class="node">
<title>rider</title>
<ellipse fill="none" stroke="#000000" cx="1714.9954" cy="-450" rx="31.3957" ry="18"/>
<text text-anchor="middle" x="1714.9954" y="-446.3" font-family="Times,serif" font-size="14.00" fill="#000000">Rider</text>
</g>
<!-- ide&#45;&#45;rider -->
<g id="edge81" class="edge">
<title>ide&#45;&#45;rider</title>
<path fill="none" stroke="#000000" d="M1714.9954,-503.8314C1714.9954,-493 1714.9954,-479.2876 1714.9954,-468.4133"/>
</g>
<!-- visual_studio_code -->
<g id="node83" class="node">
<title>visual_studio_code</title>
<ellipse fill="none" stroke="#000000" cx="1845.9954" cy="-450" rx="81.7856" ry="18"/>
<text text-anchor="middle" x="1845.9954" y="-446.3" font-family="Times,serif" font-size="14.00" fill="#000000">Visual Studio Code</text>
</g>
<!-- ide&#45;&#45;visual_studio_code -->
<g id="edge82" class="edge">
<title>ide&#45;&#45;visual_studio_code</title>
<path fill="none" stroke="#000000" d="M1736.0428,-510.432C1757.4512,-498.6655 1790.8554,-480.306 1815.23,-466.9092"/>
</g>
<!-- git -->
<g id="node85" class="node">
<title>git</title>
<ellipse fill="none" stroke="#000000" cx="1972.9954" cy="-450" rx="27" ry="18"/>
<text text-anchor="middle" x="1972.9954" y="-446.3" font-family="Times,serif" font-size="14.00" fill="#000000">Git</text>
</g>
<!-- version_control_system&#45;&#45;git -->
<g id="edge84" class="edge">
<title>version_control_system&#45;&#45;git</title>
<path fill="none" stroke="#000000" d="M1909.0066,-504.2022C1923.5586,-491.8759 1942.6717,-475.6859 1956.2085,-464.2195"/>
</g>
<!-- svn -->
<g id="node86" class="node">
<title>svn</title>
<ellipse fill="none" stroke="#000000" cx="2046.9954" cy="-450" rx="29.4969" ry="18"/>
<text text-anchor="middle" x="2046.9954" y="-446.3" font-family="Times,serif" font-size="14.00" fill="#000000">SVN</text>
</g>
<!-- version_control_system&#45;&#45;svn -->
<g id="edge85" class="edge">
<title>version_control_system&#45;&#45;svn</title>
<path fill="none" stroke="#000000" d="M1925.7018,-505.4347C1949.6253,-494.8598 1981.1989,-480.7839 2008.9954,-468 2013.7705,-465.8039 2018.8655,-463.4192 2023.7227,-461.1258"/>
</g>
<!-- macos -->
<g id="node17" class="node">
<title>macos</title>
<ellipse fill="none" stroke="#000000" cx="272.9954" cy="-450" rx="37.8943" ry="18"/>
<text text-anchor="middle" x="272.9954" y="-446.3" font-family="Times,serif" font-size="14.00" fill="#000000">macOS</text>
</g>
<!-- unix&#45;&#45;macos -->
<g id="edge16" class="edge">
<title>unix&#45;&#45;macos</title>
<path fill="none" stroke="#000000" d="M484.4914,-510.2699C479.1071,-508.0203 473.4141,-505.8062 467.9954,-504 403.7735,-482.5927 384.6239,-488.1463 319.9954,-468 314.0727,-466.1538 307.8201,-463.9471 301.8761,-461.7218"/>
</g>
<!-- linux -->
<g id="node18" class="node">
<title>linux</title>
<ellipse fill="none" stroke="#000000" cx="360.9954" cy="-450" rx="32.4942" ry="18"/>
<text text-anchor="middle" x="360.9954" y="-446.3" font-family="Times,serif" font-size="14.00" fill="#000000">Linux</text>
</g>
<!-- unix&#45;&#45;linux -->
<g id="edge17" class="edge">
<title>unix&#45;&#45;linux</title>
<path fill="none" stroke="#000000" d="M485.0561,-509.9488C457.3859,-496.578 413.0223,-475.1405 385.5201,-461.8509"/>
</g>
<!-- centos -->
<g id="node19" class="node">
<title>centos</title>
<ellipse fill="none" stroke="#000000" cx="165.9954" cy="-378" rx="39.7935" ry="18"/>
<text text-anchor="middle" x="165.9954" y="-374.3" font-family="Times,serif" font-size="14.00" fill="#000000">CentOS</text>
</g>
<!-- linux&#45;&#45;centos -->
<g id="edge18" class="edge">
<title>linux&#45;&#45;centos</title>
<path fill="none" stroke="#000000" d="M335.5439,-438.4338C330.4275,-436.22 325.0649,-433.9779 319.9954,-432 274.0362,-414.0687 261.4853,-412.5065 214.9954,-396 209.1025,-393.9077 202.8265,-391.6356 196.8021,-389.4327"/>
</g>
<!-- ubuntu -->
<g id="node20" class="node">
<title>ubuntu</title>
<ellipse fill="none" stroke="#000000" cx="261.9954" cy="-378" rx="38.1938" ry="18"/>
<text text-anchor="middle" x="261.9954" y="-374.3" font-family="Times,serif" font-size="14.00" fill="#000000">Ubuntu</text>
</g>
<!-- linux&#45;&#45;ubuntu -->
<g id="edge19" class="edge">
<title>linux&#45;&#45;ubuntu</title>
<path fill="none" stroke="#000000" d="M340.9613,-435.4297C324.1242,-423.1846 300.136,-405.7386 283.0248,-393.2941"/>
</g>
<!-- common_language_infrastructure -->
<g id="node22" class="node">
<title>common_language_infrastructure</title>
<ellipse fill="none" stroke="#000000" cx="2251.9954" cy="-450" rx="157.0724" ry="18"/>
<text text-anchor="middle" x="2251.9954" y="-446.3" font-family="Times,serif" font-size="14.00" fill="#000000">Common Language Infrastructure (CLI)</text>
</g>
<!-- dot_net&#45;&#45;common_language_infrastructure -->
<g id="edge20" class="edge">
<title>dot_net&#45;&#45;common_language_infrastructure</title>
<path fill="none" stroke="#000000" d="M2239.2852,-503.8314C2241.8426,-493 2245.0803,-479.2876 2247.6478,-468.4133"/>
</g>
<!-- nuget -->
<g id="node23" class="node">
<title>nuget</title>
<ellipse fill="none" stroke="#000000" cx="2461.9954" cy="-450" rx="35.194" ry="18"/>
<text text-anchor="middle" x="2461.9954" y="-446.3" font-family="Times,serif" font-size="14.00" fill="#000000">NuGet</text>
</g>
<!-- dot_net&#45;&#45;nuget -->
<g id="edge21" class="edge">
<title>dot_net&#45;&#45;nuget</title>
<path fill="none" stroke="#000000" d="M2258.8304,-510.4497C2264.0852,-508.1363 2269.6729,-505.8513 2274.9954,-504 2336.8963,-482.4691 2355.7319,-488.4589 2417.9954,-468 2423.6409,-466.145 2429.5912,-463.9096 2435.2284,-461.6545"/>
</g>
<!-- common_type_system -->
<g id="node24" class="node">
<title>common_type_system</title>
<ellipse fill="none" stroke="#000000" cx="2040.9954" cy="-378" rx="119.6788" ry="18"/>
<text text-anchor="middle" x="2040.9954" y="-374.3" font-family="Times,serif" font-size="14.00" fill="#000000">Common Type System (CTS)</text>
</g>
<!-- common_language_infrastructure&#45;&#45;common_type_system -->
<g id="edge22" class="edge">
<title>common_language_infrastructure&#45;&#45;common_type_system</title>
<path fill="none" stroke="#000000" d="M2201.7237,-432.8457C2167.7154,-421.241 2123.0442,-405.9977 2089.4294,-394.5273"/>
</g>
<!-- cli_metadata -->
<g id="node25" class="node">
<title>cli_metadata</title>
<ellipse fill="none" stroke="#000000" cx="2239.9954" cy="-378" rx="61.99" ry="18"/>
<text text-anchor="middle" x="2239.9954" y="-374.3" font-family="Times,serif" font-size="14.00" fill="#000000">CLI Metadata</text>
</g>
<!-- common_language_infrastructure&#45;&#45;cli_metadata -->
<g id="edge23" class="edge">
<title>common_language_infrastructure&#45;&#45;cli_metadata</title>
<path fill="none" stroke="#000000" d="M2248.9673,-431.8314C2247.1621,-421 2244.8766,-407.2876 2243.0643,-396.4133"/>
</g>
<!-- common_language_specification -->
<g id="node26" class="node">
<title>common_language_specification</title>
<ellipse fill="none" stroke="#000000" cx="2476.9954" cy="-378" rx="157.0724" ry="18"/>
<text text-anchor="middle" x="2476.9954" y="-374.3" font-family="Times,serif" font-size="14.00" fill="#000000">Common Language Specification (CLS)</text>
</g>
<!-- common_language_infrastructure&#45;&#45;common_language_specification -->
<g id="edge24" class="edge">
<title>common_language_infrastructure&#45;&#45;common_language_specification</title>
<path fill="none" stroke="#000000" d="M2305.0323,-433.0282C2340.8907,-421.5535 2388.0597,-406.4594 2423.9251,-394.9825"/>
</g>
<!-- cli_implementations -->
<g id="node27" class="node">
<title>cli_implementations</title>
<ellipse fill="none" stroke="#000000" cx="2740.9954" cy="-378" rx="88.2844" ry="18"/>
<text text-anchor="middle" x="2740.9954" y="-374.3" font-family="Times,serif" font-size="14.00" fill="#000000">CLI implementations</text>
</g>
<!-- common_language_infrastructure&#45;&#45;cli_implementations -->
<g id="edge25" class="edge">
<title>common_language_infrastructure&#45;&#45;cli_implementations</title>
<path fill="none" stroke="#000000" d="M2357.9787,-436.657C2436.7415,-426.4268 2546.7532,-411.4766 2642.9954,-396 2653.7552,-394.2697 2665.1543,-392.3009 2676.2263,-390.3159"/>
</g>
<!-- csharp -->
<g id="node28" class="node">
<title>csharp</title>
<ellipse fill="none" stroke="#000000" cx="2476.9954" cy="-306" rx="27" ry="18"/>
<text text-anchor="middle" x="2476.9954" y="-302.3" font-family="Times,serif" font-size="14.00" fill="#000000">C#</text>
</g>
<!-- common_language_specification&#45;&#45;csharp -->
<g id="edge26" class="edge">
<title>common_language_specification&#45;&#45;csharp</title>
<path fill="none" stroke="#000000" d="M2476.9954,-359.8314C2476.9954,-349 2476.9954,-335.2876 2476.9954,-324.4133"/>
</g>
<!-- dot_net_standard -->
<g id="node29" class="node">
<title>dot_net_standard</title>
<ellipse fill="none" stroke="#000000" cx="2740.9954" cy="-306" rx="64.9885" ry="18"/>
<text text-anchor="middle" x="2740.9954" y="-302.3" font-family="Times,serif" font-size="14.00" fill="#000000">.NET Standard</text>
</g>
<!-- cli_implementations&#45;&#45;dot_net_standard -->
<g id="edge27" class="edge">
<title>cli_implementations&#45;&#45;dot_net_standard</title>
<path fill="none" stroke="#000000" d="M2740.9954,-359.8314C2740.9954,-349 2740.9954,-335.2876 2740.9954,-324.4133"/>
</g>
<!-- dot_net_core -->
<g id="node30" class="node">
<title>dot_net_core</title>
<ellipse fill="none" stroke="#000000" cx="2629.9954" cy="-234" rx="50.8918" ry="18"/>
<text text-anchor="middle" x="2629.9954" y="-230.3" font-family="Times,serif" font-size="14.00" fill="#000000">.NET Core</text>
</g>
<!-- dot_net_standard&#45;&#45;dot_net_core -->
<g id="edge28" class="edge">
<title>dot_net_standard&#45;&#45;dot_net_core</title>
<path fill="none" stroke="#000000" d="M2715.2508,-289.3008C2696.9342,-277.4198 2672.4787,-261.5567 2654.4578,-249.8675"/>
</g>
<!-- dot_net_framework -->
<g id="node31" class="node">
<title>dot_net_framework</title>
<ellipse fill="none" stroke="#000000" cx="2851.9954" cy="-234" rx="74.9875" ry="18"/>
<text text-anchor="middle" x="2851.9954" y="-230.3" font-family="Times,serif" font-size="14.00" fill="#000000">.NET Framework</text>
</g>
<!-- dot_net_standard&#45;&#45;dot_net_framework -->
<g id="edge29" class="edge">
<title>dot_net_standard&#45;&#45;dot_net_framework</title>
<path fill="none" stroke="#000000" d="M2766.74,-289.3008C2784.4162,-277.8352 2807.8094,-262.6612 2825.6196,-251.1086"/>
</g>
<!-- core_crl -->
<g id="node32" class="node">
<title>core_crl</title>
<ellipse fill="none" stroke="#000000" cx="2527.9954" cy="-162" rx="46.2923" ry="18"/>
<text text-anchor="middle" x="2527.9954" y="-158.3" font-family="Times,serif" font-size="14.00" fill="#000000">CoreCLR</text>
</g>
<!-- dot_net_core&#45;&#45;core_crl -->
<g id="edge30" class="edge">
<title>dot_net_core&#45;&#45;core_crl</title>
<path fill="none" stroke="#000000" d="M2607.1046,-217.8418C2590.1885,-205.901 2567.2724,-189.7249 2550.4586,-177.8564"/>
</g>
<!-- corefx -->
<g id="node33" class="node">
<title>corefx</title>
<ellipse fill="none" stroke="#000000" cx="2629.9954" cy="-162" rx="38.1938" ry="18"/>
<text text-anchor="middle" x="2629.9954" y="-158.3" font-family="Times,serif" font-size="14.00" fill="#000000">CoreFx</text>
</g>
<!-- dot_net_core&#45;&#45;corefx -->
<g id="edge31" class="edge">
<title>dot_net_core&#45;&#45;corefx</title>
<path fill="none" stroke="#000000" d="M2629.9954,-215.8314C2629.9954,-205 2629.9954,-191.2876 2629.9954,-180.4133"/>
</g>
<!-- base_class_library -->
<g id="node36" class="node">
<title>base_class_library</title>
<ellipse fill="none" stroke="#000000" cx="2931.9954" cy="-162" rx="105.8812" ry="18"/>
<text text-anchor="middle" x="2931.9954" y="-158.3" font-family="Times,serif" font-size="14.00" fill="#000000">Base Class Library (BCL)</text>
</g>
<!-- dot_net_framework&#45;&#45;base_class_library -->
<g id="edge34" class="edge">
<title>dot_net_framework&#45;&#45;base_class_library</title>
<path fill="none" stroke="#000000" d="M2871.3612,-216.5708C2883.7542,-205.4171 2899.7862,-190.9882 2912.2522,-179.7689"/>
</g>
<!-- asp_net_core -->
<g id="node34" class="node">
<title>asp_net_core</title>
<ellipse fill="none" stroke="#000000" cx="2447.9954" cy="-90" rx="67.6881" ry="18"/>
<text text-anchor="middle" x="2447.9954" y="-86.3" font-family="Times,serif" font-size="14.00" fill="#000000">ASP.NET Core</text>
</g>
<!-- corefx&#45;&#45;asp_net_core -->
<g id="edge32" class="edge">
<title>corefx&#45;&#45;asp_net_core</title>
<path fill="none" stroke="#000000" d="M2600.3489,-150.2717C2569.1237,-137.9189 2519.8587,-118.4294 2485.8458,-104.9738"/>
</g>
<!-- ef_core -->
<g id="node35" class="node">
<title>ef_core</title>
<ellipse fill="none" stroke="#000000" cx="2629.9954" cy="-90" rx="96.6831" ry="18"/>
<text text-anchor="middle" x="2629.9954" y="-86.3" font-family="Times,serif" font-size="14.00" fill="#000000">Entity Framework Core</text>
</g>
<!-- corefx&#45;&#45;ef_core -->
<g id="edge33" class="edge">
<title>corefx&#45;&#45;ef_core</title>
<path fill="none" stroke="#000000" d="M2629.9954,-143.8314C2629.9954,-133 2629.9954,-119.2876 2629.9954,-108.4133"/>
</g>
<!-- asp_net_mvc -->
<g id="node37" class="node">
<title>asp_net_mvc</title>
<ellipse fill="none" stroke="#000000" cx="2814.9954" cy="-90" rx="70.3881" ry="18"/>
<text text-anchor="middle" x="2814.9954" y="-86.3" font-family="Times,serif" font-size="14.00" fill="#000000">ASP.NET MVC</text>
</g>
<!-- base_class_library&#45;&#45;asp_net_mvc -->
<g id="edge35" class="edge">
<title>base_class_library&#45;&#45;asp_net_mvc</title>
<path fill="none" stroke="#000000" d="M2903.673,-144.5708C2885.0071,-133.0841 2860.6967,-118.1239 2842.2514,-106.7729"/>
</g>
<!-- wpf -->
<g id="node38" class="node">
<title>wpf</title>
<ellipse fill="none" stroke="#000000" cx="2931.9954" cy="-90" rx="29.4969" ry="18"/>
<text text-anchor="middle" x="2931.9954" y="-86.3" font-family="Times,serif" font-size="14.00" fill="#000000">WPF</text>
</g>
<!-- base_class_library&#45;&#45;wpf -->
<g id="edge36" class="edge">
<title>base_class_library&#45;&#45;wpf</title>
<path fill="none" stroke="#000000" d="M2931.9954,-143.8314C2931.9954,-133 2931.9954,-119.2876 2931.9954,-108.4133"/>
</g>
<!-- winforms -->
<g id="node39" class="node">
<title>winforms</title>
<ellipse fill="none" stroke="#000000" cx="3028.9954" cy="-90" rx="49.2915" ry="18"/>
<text text-anchor="middle" x="3028.9954" y="-86.3" font-family="Times,serif" font-size="14.00" fill="#000000">WinForms</text>
</g>
<!-- base_class_library&#45;&#45;winforms -->
<g id="edge37" class="edge">
<title>base_class_library&#45;&#45;winforms</title>
<path fill="none" stroke="#000000" d="M2955.9729,-144.2022C2971.5694,-132.6255 2991.7572,-117.6407 3006.9524,-106.3618"/>
</g>
<!-- entity_framework -->
<g id="node40" class="node">
<title>entity_framework</title>
<ellipse fill="none" stroke="#000000" cx="3173.9954" cy="-90" rx="77.1866" ry="18"/>
<text text-anchor="middle" x="3173.9954" y="-86.3" font-family="Times,serif" font-size="14.00" fill="#000000">Entity Framework</text>
</g>
<!-- base_class_library&#45;&#45;entity_framework -->
<g id="edge38" class="edge">
<title>base_class_library&#45;&#45;entity_framework</title>
<path fill="none" stroke="#000000" d="M2984.8043,-146.2883C3026.9437,-133.7509 3085.4664,-116.3392 3126.2229,-104.2133"/>
</g>
<!-- wpf_mvvm -->
<g id="node41" class="node">
<title>wpf_mvvm</title>
<ellipse fill="none" stroke="#000000" cx="2835.9954" cy="-18" rx="61.1893" ry="18"/>
<text text-anchor="middle" x="2835.9954" y="-14.3" font-family="Times,serif" font-size="14.00" fill="#000000">WPF MVVM</text>
</g>
<!-- wpf&#45;&#45;wpf_mvvm -->
<g id="edge39" class="edge">
<title>wpf&#45;&#45;wpf_mvvm</title>
<path fill="none" stroke="#000000" d="M2913.0289,-75.7751C2897.4009,-64.0541 2875.1958,-47.4003 2858.6378,-34.9818"/>
</g>
<!-- devexpress_wpf -->
<g id="node42" class="node">
<title>devexpress_wpf</title>
<ellipse fill="none" stroke="#000000" cx="3027.9954" cy="-18" rx="113.18" ry="18"/>
<text text-anchor="middle" x="3027.9954" y="-14.3" font-family="Times,serif" font-size="14.00" fill="#000000">DevExpress UI components</text>
</g>
<!-- wpf&#45;&#45;devexpress_wpf -->
<g id="edge40" class="edge">
<title>wpf&#45;&#45;devexpress_wpf</title>
<path fill="none" stroke="#000000" d="M2950.9619,-75.7751C2966.262,-64.3 2987.8662,-48.0969 3004.3035,-35.7689"/>
</g>
<!-- clustered_indexes -->
<g id="node56" class="node">
<title>clustered_indexes</title>
<ellipse fill="none" stroke="#000000" cx="2649.9954" cy="-450" rx="75.2868" ry="18"/>
<text text-anchor="middle" x="2649.9954" y="-446.3" font-family="Times,serif" font-size="14.00" fill="#000000">Clustered indexes</text>
</g>
<!-- indexes&#45;&#45;clustered_indexes -->
<g id="edge54" class="edge">
<title>indexes&#45;&#45;clustered_indexes</title>
<path fill="none" stroke="#000000" d="M2738.265,-507.256C2720.2518,-495.5717 2695.0634,-479.2333 2676.202,-466.9989"/>
</g>
<!-- nonclustered_indexes -->
<g id="node57" class="node">
<title>nonclustered_indexes</title>
<ellipse fill="none" stroke="#000000" cx="2831.9954" cy="-450" rx="89.0842" ry="18"/>
<text text-anchor="middle" x="2831.9954" y="-446.3" font-family="Times,serif" font-size="14.00" fill="#000000">Nonclustered indexes</text>
</g>
<!-- indexes&#45;&#45;nonclustered_indexes -->
<g id="edge55" class="edge">
<title>indexes&#45;&#45;nonclustered_indexes</title>
<path fill="none" stroke="#000000" d="M2777.4627,-505.3008C2788.5232,-494.0844 2803.0834,-479.3191 2814.3764,-467.8671"/>
</g>
<!-- t_sql -->
<g id="node58" class="node">
<title>t_sql</title>
<ellipse fill="none" stroke="#000000" cx="3271.9954" cy="-450" rx="36.2938" ry="18"/>
<text text-anchor="middle" x="3271.9954" y="-446.3" font-family="Times,serif" font-size="14.00" fill="#000000">T&#45;SQL</text>
</g>
<!-- sql&#45;&#45;t_sql -->
<g id="edge56" class="edge">
<title>sql&#45;&#45;t_sql</title>
<path fill="none" stroke="#000000" d="M3365.8769,-509.2936C3345.9338,-496.6979 3315.4346,-477.4353 3294.6502,-464.3083"/>
</g>
<!-- sql_server -->
<g id="node59" class="node">
<title>sql_server</title>
<ellipse fill="none" stroke="#000000" cx="3418.9954" cy="-450" rx="92.0841" ry="18"/>
<text text-anchor="middle" x="3418.9954" y="-446.3" font-family="Times,serif" font-size="14.00" fill="#000000">Microsoft SQL Server</text>
</g>
<!-- relational_dbms&#45;&#45;sql_server -->
<g id="edge57" class="edge">
<title>relational_dbms&#45;&#45;sql_server</title>
<path fill="none" stroke="#000000" d="M3486.451,-504.5708C3472.5608,-493.3339 3454.5616,-478.7727 3440.6499,-467.5182"/>
</g>
<!-- oracle_database -->
<g id="node60" class="node">
<title>oracle_database</title>
<ellipse fill="none" stroke="#000000" cx="3599.9954" cy="-450" rx="70.6878" ry="18"/>
<text text-anchor="middle" x="3599.9954" y="-446.3" font-family="Times,serif" font-size="14.00" fill="#000000">Oracle Database</text>
</g>
<!-- relational_dbms&#45;&#45;oracle_database -->
<g id="edge58" class="edge">
<title>relational_dbms&#45;&#45;oracle_database</title>
<path fill="none" stroke="#000000" d="M3530.266,-504.5708C3544.7307,-493.2506 3563.5061,-478.5568 3577.9298,-467.2687"/>
</g>
<!-- sqlite -->
<g id="node61" class="node">
<title>sqlite</title>
<ellipse fill="none" stroke="#000000" cx="3725.9954" cy="-450" rx="37.0935" ry="18"/>
<text text-anchor="middle" x="3725.9954" y="-446.3" font-family="Times,serif" font-size="14.00" fill="#000000">SQLite</text>
</g>
<!-- relational_dbms&#45;&#45;sqlite -->
<g id="edge59" class="edge">
<title>relational_dbms&#45;&#45;sqlite</title>
<path fill="none" stroke="#000000" d="M3555.7395,-507.9733C3590.4202,-497.5513 3638.3706,-482.6586 3679.9954,-468 3685.6576,-466.006 3691.6626,-463.7566 3697.3996,-461.5407"/>
</g>
<!-- ssms -->
<g id="node62" class="node">
<title>ssms</title>
<ellipse fill="none" stroke="#000000" cx="3913.9954" cy="-450" rx="129.9769" ry="18"/>
<text text-anchor="middle" x="3913.9954" y="-446.3" font-family="Times,serif" font-size="14.00" fill="#000000">SQL Server Management Studio</text>
</g>
<!-- db_ide&#45;&#45;ssms -->
<g id="edge60" class="edge">
<title>db_ide&#45;&#45;ssms</title>
<path fill="none" stroke="#000000" d="M3999.7368,-508.7941C3982.9227,-497.2645 3958.381,-480.4359 3939.8578,-467.7342"/>
</g>
<!-- datagrip -->
<g id="node63" class="node">
<title>datagrip</title>
<ellipse fill="none" stroke="#000000" cx="4106.9954" cy="-450" rx="44.6926" ry="18"/>
<text text-anchor="middle" x="4106.9954" y="-446.3" font-family="Times,serif" font-size="14.00" fill="#000000">DataGrip</text>
</g>
<!-- db_ide&#45;&#45;datagrip -->
<g id="edge61" class="edge">
<title>db_ide&#45;&#45;datagrip</title>
<path fill="none" stroke="#000000" d="M4036.3814,-507.7751C4051.0075,-495.8082 4071.9184,-478.6994 4087.1882,-466.2059"/>
</g>
<!-- creational_patterns -->
<g id="node66" class="node">
<title>creational_patterns</title>
<ellipse fill="none" stroke="#000000" cx="397.9954" cy="-378" rx="79.8859" ry="18"/>
<text text-anchor="middle" x="397.9954" y="-374.3" font-family="Times,serif" font-size="14.00" fill="#000000">Creational patterns</text>
</g>
<!-- desing_patterns&#45;&#45;creational_patterns -->
<g id="edge64" class="edge">
<title>desing_patterns&#45;&#45;creational_patterns</title>
<path fill="none" stroke="#000000" d="M619.2135,-437.2108C571.656,-424.4817 498.8825,-405.0032 449.9217,-391.8985"/>
</g>
<!-- behavioral_patterns -->
<g id="node67" class="node">
<title>behavioral_patterns</title>
<ellipse fill="none" stroke="#000000" cx="577.9954" cy="-378" rx="81.7856" ry="18"/>
<text text-anchor="middle" x="577.9954" y="-374.3" font-family="Times,serif" font-size="14.00" fill="#000000">Behavioral patterns</text>
</g>
<!-- desing_patterns&#45;&#45;behavioral_patterns -->
<g id="edge65" class="edge">
<title>desing_patterns&#45;&#45;behavioral_patterns</title>
<path fill="none" stroke="#000000" d="M645.451,-432.5708C631.5608,-421.3339 613.5616,-406.7727 599.6499,-395.5182"/>
</g>
<!-- structural_patterns -->
<g id="node68" class="node">
<title>structural_patterns</title>
<ellipse fill="none" stroke="#000000" cx="755.9954" cy="-378" rx="77.9862" ry="18"/>
<text text-anchor="middle" x="755.9954" y="-374.3" font-family="Times,serif" font-size="14.00" fill="#000000">Structural patterns</text>
</g>
<!-- desing_patterns&#45;&#45;structural_patterns -->
<g id="edge66" class="edge">
<title>desing_patterns&#45;&#45;structural_patterns</title>
<path fill="none" stroke="#000000" d="M688.5398,-432.5708C702.4299,-421.3339 720.4291,-406.7727 734.3409,-395.5182"/>
</g>
<!-- solid -->
<g id="node69" class="node">
<title>solid</title>
<ellipse fill="none" stroke="#000000" cx="889.9954" cy="-378" rx="37.8943" ry="18"/>
<text text-anchor="middle" x="889.9954" y="-374.3" font-family="Times,serif" font-size="14.00" fill="#000000">SOLID</text>
</g>
<!-- desing_principles&#45;&#45;solid -->
<g id="edge67" class="edge">
<title>desing_principles&#45;&#45;solid</title>
<path fill="none" stroke="#000000" d="M986.0037,-433.3008C964.223,-420.7551 934.7339,-403.7694 914.2078,-391.9463"/>
</g>
<!-- dry -->
<g id="node70" class="node">
<title>dry</title>
<ellipse fill="none" stroke="#000000" cx="975.9954" cy="-378" rx="29.795" ry="18"/>
<text text-anchor="middle" x="975.9954" y="-374.3" font-family="Times,serif" font-size="14.00" fill="#000000">DRY</text>
</g>
<!-- desing_principles&#45;&#45;dry -->
<g id="edge68" class="edge">
<title>desing_principles&#45;&#45;dry</title>
<path fill="none" stroke="#000000" d="M1005.154,-431.8314C999.1065,-420.6667 991.4009,-406.441 985.43,-395.4177"/>
</g>
<!-- kiss -->
<g id="node71" class="node">
<title>kiss</title>
<ellipse fill="none" stroke="#000000" cx="1053.9954" cy="-378" rx="30.5947" ry="18"/>
<text text-anchor="middle" x="1053.9954" y="-374.3" font-family="Times,serif" font-size="14.00" fill="#000000">KISS</text>
</g>
<!-- desing_principles&#45;&#45;kiss -->
<g id="edge69" class="edge">
<title>desing_principles&#45;&#45;kiss</title>
<path fill="none" stroke="#000000" d="M1024.8367,-431.8314C1030.8842,-420.6667 1038.5898,-406.441 1044.5608,-395.4177"/>
</g>
<!-- yagni -->
<g id="node72" class="node">
<title>yagni</title>
<ellipse fill="none" stroke="#000000" cx="1142.9954" cy="-378" rx="40.0939" ry="18"/>
<text text-anchor="middle" x="1142.9954" y="-374.3" font-family="Times,serif" font-size="14.00" fill="#000000">YAGNI</text>
</g>
<!-- desing_principles&#45;&#45;yagni -->
<g id="edge70" class="edge">
<title>desing_principles&#45;&#45;yagni</title>
<path fill="none" stroke="#000000" d="M1044.6829,-433.3008C1066.8386,-420.8382 1096.7835,-403.9942 1117.7831,-392.1819"/>
</g>
<!-- html -->
<g id="node74" class="node">
<title>html</title>
<ellipse fill="none" stroke="#000000" cx="1237.9954" cy="-378" rx="36.2938" ry="18"/>
<text text-anchor="middle" x="1237.9954" y="-374.3" font-family="Times,serif" font-size="14.00" fill="#000000">HTML</text>
</g>
<!-- client_side&#45;&#45;html -->
<g id="edge72" class="edge">
<title>client_side&#45;&#45;html</title>
<path fill="none" stroke="#000000" d="M1367.9894,-435.7751C1337.9288,-422.4148 1293.4475,-402.6454 1265.0963,-390.0448"/>
</g>
<!-- css -->
<g id="node75" class="node">
<title>css</title>
<ellipse fill="none" stroke="#000000" cx="1318.9954" cy="-378" rx="27" ry="18"/>
<text text-anchor="middle" x="1318.9954" y="-374.3" font-family="Times,serif" font-size="14.00" fill="#000000">CSS</text>
</g>
<!-- client_side&#45;&#45;css -->
<g id="edge73" class="edge">
<title>client_side&#45;&#45;css</title>
<path fill="none" stroke="#000000" d="M1380.7995,-432.937C1366.9518,-420.6279 1348.4588,-404.1897 1335.3199,-392.5107"/>
</g>
<!-- javascript -->
<g id="node76" class="node">
<title>javascript</title>
<ellipse fill="none" stroke="#000000" cx="1412.9954" cy="-378" rx="48.9926" ry="18"/>
<text text-anchor="middle" x="1412.9954" y="-374.3" font-family="Times,serif" font-size="14.00" fill="#000000">JavaScript</text>
</g>
<!-- client_side&#45;&#45;javascript -->
<g id="edge74" class="edge">
<title>client_side&#45;&#45;javascript</title>
<path fill="none" stroke="#000000" d="M1403.2758,-431.8314C1405.2315,-421 1407.7074,-407.2876 1409.6708,-396.4133"/>
</g>
<!-- typescript -->
<g id="node77" class="node">
<title>typescript</title>
<ellipse fill="none" stroke="#000000" cx="1530.9954" cy="-378" rx="51.1914" ry="18"/>
<text text-anchor="middle" x="1530.9954" y="-374.3" font-family="Times,serif" font-size="14.00" fill="#000000">TypeScript</text>
</g>
<!-- client_side&#45;&#45;typescript -->
<g id="edge75" class="edge">
<title>client_side&#45;&#45;typescript</title>
<path fill="none" stroke="#000000" d="M1427.7771,-434.7307C1450.0083,-422.512 1481.0331,-405.4602 1503.2537,-393.2473"/>
</g>
<!-- react -->
<g id="node78" class="node">
<title>react</title>
<ellipse fill="none" stroke="#000000" cx="1631.9954" cy="-378" rx="31.3957" ry="18"/>
<text text-anchor="middle" x="1631.9954" y="-374.3" font-family="Times,serif" font-size="14.00" fill="#000000">React</text>
</g>
<!-- client_side&#45;&#45;react -->
<g id="edge76" class="edge">
<title>client_side&#45;&#45;react</title>
<path fill="none" stroke="#000000" d="M1438.348,-438.1177C1445.2126,-436.0428 1452.3078,-433.9316 1458.9954,-432 1517.4166,-415.1258 1533.6665,-416.2775 1590.9954,-396 1596.4188,-394.0817 1602.1326,-391.7684 1607.5158,-389.4488"/>
</g>
<!-- angular -->
<g id="node79" class="node">
<title>angular</title>
<ellipse fill="none" stroke="#000000" cx="1720.9954" cy="-378" rx="40.0939" ry="18"/>
<text text-anchor="middle" x="1720.9954" y="-374.3" font-family="Times,serif" font-size="14.00" fill="#000000">Angular</text>
</g>
<!-- client_side&#45;&#45;angular -->
<g id="edge77" class="edge">
<title>client_side&#45;&#45;angular</title>
<path fill="none" stroke="#000000" d="M1437.568,-437.7485C1444.6428,-435.6665 1452.0121,-433.6482 1458.9954,-432 1552.4374,-409.9463 1579.2065,-420.6578 1671.9954,-396 1678.2141,-394.3474 1684.7525,-392.227 1690.9548,-390.0253"/>
</g>
<!-- resharper -->
<g id="node84" class="node">
<title>resharper</title>
<ellipse fill="none" stroke="#000000" cx="1828.9954" cy="-378" rx="49.2915" ry="18"/>
<text text-anchor="middle" x="1828.9954" y="-374.3" font-family="Times,serif" font-size="14.00" fill="#000000">ReSharper</text>
</g>
<!-- visual_studio&#45;&#45;resharper -->
<g id="edge83" class="edge">
<title>visual_studio&#45;&#45;resharper</title>
<path fill="none" stroke="#000000" d="M1624.4602,-435.3045C1665.1919,-424.7442 1721.0756,-409.964 1769.9954,-396 1776.8949,-394.0305 1784.2243,-391.859 1791.2859,-389.7261"/>
</g>
</g>
</svg>
