<?xml version="1.0" encoding="UTF-8" standalone="no"?>
<!DOCTYPE svg PUBLIC "-//W3C//DTD SVG 1.1//EN"
 "http://www.w3.org/Graphics/SVG/1.1/DTD/svg11.dtd">
<!-- Generated by graphviz version 2.40.1 (20161225.0304)
 -->
<!-- Title: expertise Pages: 1 -->
<svg width="1266pt" height="332pt"
 viewBox="0.00 0.00 1265.60 332.00" xmlns="http://www.w3.org/2000/svg" xmlns:xlink="http://www.w3.org/1999/xlink">
<g id="graph0" class="graph" transform="scale(1 1) rotate(0) translate(4 328)">
<title>expertise</title>
<polygon fill="#ffffff" stroke="transparent" points="-4,4 -4,-328 1261.5952,-328 1261.5952,4 -4,4"/>
<!-- programming -->
<g id="node1" class="node">
<title>programming</title>
<ellipse fill="none" stroke="#000000" cx="642" cy="-306" rx="60.3893" ry="18"/>
<text text-anchor="middle" x="642" y="-302.3" font-family="Times,serif" font-size="14.00" fill="#000000">Programming</text>
</g>
<!-- computer_languages -->
<g id="node2" class="node">
<title>computer_languages</title>
<ellipse fill="none" stroke="#000000" cx="211" cy="-234" rx="85.5853" ry="18"/>
<text text-anchor="middle" x="211" y="-230.3" font-family="Times,serif" font-size="14.00" fill="#000000">Computer languages</text>
</g>
<!-- programming&#45;&#45;computer_languages -->
<g id="edge1" class="edge">
<title>programming&#45;&#45;computer_languages</title>
<path fill="none" stroke="#000000" d="M589.1509,-297.1714C510.9261,-284.1037 364.3418,-259.6163 278.4622,-245.2698"/>
</g>
<!-- desing -->
<g id="node3" class="node">
<title>desing</title>
<ellipse fill="none" stroke="#000000" cx="575" cy="-234" rx="36.2938" ry="18"/>
<text text-anchor="middle" x="575" y="-230.3" font-family="Times,serif" font-size="14.00" fill="#000000">Design</text>
</g>
<!-- programming&#45;&#45;desing -->
<g id="edge2" class="edge">
<title>programming&#45;&#45;desing</title>
<path fill="none" stroke="#000000" d="M625.7812,-288.5708C615.0922,-277.0841 601.1708,-262.1239 590.6081,-250.7729"/>
</g>
<!-- web_programming -->
<g id="node4" class="node">
<title>web_programming</title>
<ellipse fill="none" stroke="#000000" cx="709" cy="-234" rx="79.8859" ry="18"/>
<text text-anchor="middle" x="709" y="-230.3" font-family="Times,serif" font-size="14.00" fill="#000000">Web programming</text>
</g>
<!-- programming&#45;&#45;web_programming -->
<g id="edge3" class="edge">
<title>programming&#45;&#45;web_programming</title>
<path fill="none" stroke="#000000" d="M658.2188,-288.5708C668.598,-277.4171 682.0248,-262.9882 692.4651,-251.7689"/>
</g>
<!-- desktop_programming -->
<g id="node5" class="node">
<title>desktop_programming</title>
<ellipse fill="none" stroke="#000000" cx="964" cy="-234" rx="92.8835" ry="18"/>
<text text-anchor="middle" x="964" y="-230.3" font-family="Times,serif" font-size="14.00" fill="#000000">Desktop programming</text>
</g>
<!-- programming&#45;&#45;desktop_programming -->
<g id="edge4" class="edge">
<title>programming&#45;&#45;desktop_programming</title>
<path fill="none" stroke="#000000" d="M690.5553,-295.1429C747.3034,-282.4539 841.2778,-261.441 902.9247,-247.6566"/>
</g>
<!-- csharp -->
<g id="node6" class="node">
<title>csharp</title>
<ellipse fill="none" stroke="#000000" cx="27" cy="-162" rx="27" ry="18"/>
<text text-anchor="middle" x="27" y="-158.3" font-family="Times,serif" font-size="14.00" fill="#000000">C#</text>
</g>
<!-- computer_languages&#45;&#45;csharp -->
<g id="edge5" class="edge">
<title>computer_languages&#45;&#45;csharp</title>
<path fill="none" stroke="#000000" d="M165.1334,-218.7765C135.6327,-208.6157 96.6605,-194.5001 63,-180 58.251,-177.9542 53.2394,-175.5872 48.5139,-173.2555"/>
</g>
<!-- t_sql -->
<g id="node7" class="node">
<title>t_sql</title>
<ellipse fill="none" stroke="#000000" cx="108" cy="-162" rx="36.2938" ry="18"/>
<text text-anchor="middle" x="108" y="-158.3" font-family="Times,serif" font-size="14.00" fill="#000000">T&#45;SQL</text>
</g>
<!-- computer_languages&#45;&#45;t_sql -->
<g id="edge6" class="edge">
<title>computer_languages&#45;&#45;t_sql</title>
<path fill="none" stroke="#000000" d="M186.3289,-216.7542C168.9506,-204.6062 145.9174,-188.5054 129.3319,-176.9116"/>
</g>
<!-- javascript -->
<g id="node8" class="node">
<title>javascript</title>
<ellipse fill="none" stroke="#000000" cx="211" cy="-162" rx="48.9926" ry="18"/>
<text text-anchor="middle" x="211" y="-158.3" font-family="Times,serif" font-size="14.00" fill="#000000">JavaScript</text>
</g>
<!-- computer_languages&#45;&#45;javascript -->
<g id="edge7" class="edge">
<title>computer_languages&#45;&#45;javascript</title>
<path fill="none" stroke="#000000" d="M211,-215.8314C211,-205 211,-191.2876 211,-180.4133"/>
</g>
<!-- typescript -->
<g id="node9" class="node">
<title>typescript</title>
<ellipse fill="none" stroke="#000000" cx="329" cy="-162" rx="51.1914" ry="18"/>
<text text-anchor="middle" x="329" y="-158.3" font-family="Times,serif" font-size="14.00" fill="#000000">TypeScript</text>
</g>
<!-- computer_languages&#45;&#45;typescript -->
<g id="edge8" class="edge">
<title>computer_languages&#45;&#45;typescript</title>
<path fill="none" stroke="#000000" d="M238.9644,-216.937C258.456,-205.0438 284.2654,-189.2957 303.2525,-177.7103"/>
</g>
<!-- desing_patterns -->
<g id="node10" class="node">
<title>desing_patterns</title>
<ellipse fill="none" stroke="#000000" cx="466" cy="-162" rx="67.6881" ry="18"/>
<text text-anchor="middle" x="466" y="-158.3" font-family="Times,serif" font-size="14.00" fill="#000000">Design patterns</text>
</g>
<!-- desing&#45;&#45;desing_patterns -->
<g id="edge9" class="edge">
<title>desing&#45;&#45;desing_patterns</title>
<path fill="none" stroke="#000000" d="M552.9422,-219.4297C535.1509,-207.6777 510.1075,-191.1353 491.4654,-178.8212"/>
</g>
<!-- solid -->
<g id="node11" class="node">
<title>solid</title>
<ellipse fill="none" stroke="#000000" cx="589" cy="-162" rx="37.8943" ry="18"/>
<text text-anchor="middle" x="589" y="-158.3" font-family="Times,serif" font-size="14.00" fill="#000000">SOLID</text>
</g>
<!-- desing&#45;&#45;solid -->
<g id="edge10" class="edge">
<title>desing&#45;&#45;solid</title>
<path fill="none" stroke="#000000" d="M578.5328,-215.8314C580.6389,-205 583.3052,-191.2876 585.4196,-180.4133"/>
</g>
<!-- client_side -->
<g id="node12" class="node">
<title>client_side</title>
<ellipse fill="none" stroke="#000000" cx="695" cy="-162" rx="50.8918" ry="18"/>
<text text-anchor="middle" x="695" y="-158.3" font-family="Times,serif" font-size="14.00" fill="#000000">Client&#45;side</text>
</g>
<!-- web_programming&#45;&#45;client_side -->
<g id="edge11" class="edge">
<title>web_programming&#45;&#45;client_side</title>
<path fill="none" stroke="#000000" d="M705.4672,-215.8314C703.3611,-205 700.6948,-191.2876 698.5804,-180.4133"/>
</g>
<!-- server_side -->
<g id="node13" class="node">
<title>server_side</title>
<ellipse fill="none" stroke="#000000" cx="840" cy="-162" rx="51.9908" ry="18"/>
<text text-anchor="middle" x="840" y="-158.3" font-family="Times,serif" font-size="14.00" fill="#000000">Server&#45;side</text>
</g>
<!-- web_programming&#45;&#45;server_side -->
<g id="edge12" class="edge">
<title>web_programming&#45;&#45;server_side</title>
<path fill="none" stroke="#000000" d="M739.3833,-217.3008C761.3025,-205.2536 790.6708,-189.1122 812.0178,-177.3796"/>
</g>
<!-- desktop_programming_windows -->
<g id="node21" class="node">
<title>desktop_programming_windows</title>
<ellipse fill="none" stroke="#000000" cx="1014" cy="-162" rx="45.4919" ry="18"/>
<text text-anchor="middle" x="1014" y="-158.3" font-family="Times,serif" font-size="14.00" fill="#000000">Windows</text>
</g>
<!-- desktop_programming&#45;&#45;desktop_programming_windows -->
<g id="edge20" class="edge">
<title>desktop_programming&#45;&#45;desktop_programming_windows</title>
<path fill="none" stroke="#000000" d="M976.6171,-215.8314C984.3703,-204.6667 994.2493,-190.441 1001.9044,-179.4177"/>
</g>
<!-- html -->
<g id="node16" class="node">
<title>html</title>
<ellipse fill="none" stroke="#000000" cx="468" cy="-90" rx="36.2938" ry="18"/>
<text text-anchor="middle" x="468" y="-86.3" font-family="Times,serif" font-size="14.00" fill="#000000">HTML</text>
</g>
<!-- client_side&#45;&#45;html -->
<g id="edge15" class="edge">
<title>client_side&#45;&#45;html</title>
<path fill="none" stroke="#000000" d="M656.6171,-150.2208C649.7557,-148.1348 642.6694,-145.9933 636,-144 581.4253,-127.6891 566.8381,-126.5985 513,-108 507.4328,-106.0768 501.5456,-103.8595 495.9297,-101.6528"/>
</g>
<!-- css -->
<g id="node17" class="node">
<title>css</title>
<ellipse fill="none" stroke="#000000" cx="549" cy="-90" rx="27" ry="18"/>
<text text-anchor="middle" x="549" y="-86.3" font-family="Times,serif" font-size="14.00" fill="#000000">CSS</text>
</g>
<!-- client_side&#45;&#45;css -->
<g id="edge16" class="edge">
<title>client_side&#45;&#45;css</title>
<path fill="none" stroke="#000000" d="M665.0912,-147.3906C642.9532,-136.5591 612.0693,-121.4114 585,-108 580.3666,-105.7044 575.4038,-103.2319 570.6892,-100.8766"/>
</g>
<!-- spa -->
<g id="node18" class="node">
<title>spa</title>
<ellipse fill="none" stroke="#000000" cx="695" cy="-90" rx="100.9827" ry="18"/>
<text text-anchor="middle" x="695" y="-86.3" font-family="Times,serif" font-size="14.00" fill="#000000">Single&#45;page applications</text>
</g>
<!-- client_side&#45;&#45;spa -->
<g id="edge17" class="edge">
<title>client_side&#45;&#45;spa</title>
<path fill="none" stroke="#000000" d="M695,-143.8314C695,-133 695,-119.2876 695,-108.4133"/>
</g>
<!-- dot_net_core -->
<g id="node14" class="node">
<title>dot_net_core</title>
<ellipse fill="none" stroke="#000000" cx="864" cy="-90" rx="50.8918" ry="18"/>
<text text-anchor="middle" x="864" y="-86.3" font-family="Times,serif" font-size="14.00" fill="#000000">.NET Core</text>
</g>
<!-- server_side&#45;&#45;dot_net_core -->
<g id="edge13" class="edge">
<title>server_side&#45;&#45;dot_net_core</title>
<path fill="none" stroke="#000000" d="M846.0562,-143.8314C849.7222,-132.8334 854.3783,-118.865 858.0289,-107.9134"/>
</g>
<!-- asp_net_core -->
<g id="node15" class="node">
<title>asp_net_core</title>
<ellipse fill="none" stroke="#000000" cx="856" cy="-18" rx="81.4863" ry="18"/>
<text text-anchor="middle" x="856" y="-14.3" font-family="Times,serif" font-size="14.00" fill="#000000">ASP.NET Core 3.1</text>
</g>
<!-- dot_net_core&#45;&#45;asp_net_core -->
<g id="edge14" class="edge">
<title>dot_net_core&#45;&#45;asp_net_core</title>
<path fill="none" stroke="#000000" d="M861.9813,-71.8314C860.7778,-61 859.2542,-47.2876 858.0459,-36.4133"/>
</g>
<!-- react -->
<g id="node19" class="node">
<title>react</title>
<ellipse fill="none" stroke="#000000" cx="613" cy="-18" rx="31.3957" ry="18"/>
<text text-anchor="middle" x="613" y="-14.3" font-family="Times,serif" font-size="14.00" fill="#000000">React</text>
</g>
<!-- spa&#45;&#45;react -->
<g id="edge18" class="edge">
<title>spa&#45;&#45;react</title>
<path fill="none" stroke="#000000" d="M674.7303,-72.2022C661.0714,-60.209 643.2469,-44.5583 630.2649,-33.1594"/>
</g>
<!-- angular -->
<g id="node20" class="node">
<title>angular</title>
<ellipse fill="none" stroke="#000000" cx="702" cy="-18" rx="40.0939" ry="18"/>
<text text-anchor="middle" x="702" y="-14.3" font-family="Times,serif" font-size="14.00" fill="#000000">Angular</text>
</g>
<!-- spa&#45;&#45;angular -->
<g id="edge19" class="edge">
<title>spa&#45;&#45;angular</title>
<path fill="none" stroke="#000000" d="M696.7664,-71.8314C697.8194,-61 699.1526,-47.2876 700.2098,-36.4133"/>
</g>
<!-- dot_net_framework -->
<g id="node22" class="node">
<title>dot_net_framework</title>
<ellipse fill="none" stroke="#000000" cx="1048" cy="-90" rx="74.9875" ry="18"/>
<text text-anchor="middle" x="1048" y="-86.3" font-family="Times,serif" font-size="14.00" fill="#000000">.NET Framework</text>
</g>
<!-- desktop_programming_windows&#45;&#45;dot_net_framework -->
<g id="edge21" class="edge">
<title>desktop_programming_windows&#45;&#45;dot_net_framework</title>
<path fill="none" stroke="#000000" d="M1022.4045,-144.2022C1027.596,-133.2085 1034.2388,-119.1413 1039.456,-108.0931"/>
</g>
<!-- wpf -->
<g id="node23" class="node">
<title>wpf</title>
<ellipse fill="none" stroke="#000000" cx="984" cy="-18" rx="29.4969" ry="18"/>
<text text-anchor="middle" x="984" y="-14.3" font-family="Times,serif" font-size="14.00" fill="#000000">WPF</text>
</g>
<!-- dot_net_framework&#45;&#45;wpf -->
<g id="edge22" class="edge">
<title>dot_net_framework&#45;&#45;wpf</title>
<path fill="none" stroke="#000000" d="M1032.1798,-72.2022C1021.8153,-60.5422 1008.3777,-45.4249 998.328,-34.119"/>
</g>
<!-- winforms -->
<g id="node24" class="node">
<title>winforms</title>
<ellipse fill="none" stroke="#000000" cx="1081" cy="-18" rx="49.2915" ry="18"/>
<text text-anchor="middle" x="1081" y="-14.3" font-family="Times,serif" font-size="14.00" fill="#000000">WinForms</text>
</g>
<!-- dot_net_framework&#45;&#45;winforms -->
<g id="edge23" class="edge">
<title>dot_net_framework&#45;&#45;winforms</title>
<path fill="none" stroke="#000000" d="M1056.3273,-71.8314C1061.368,-60.8334 1067.7702,-46.865 1072.7897,-35.9134"/>
</g>
<!-- devexpress -->
<g id="node25" class="node">
<title>devexpress</title>
<ellipse fill="none" stroke="#000000" cx="1203" cy="-18" rx="54.6905" ry="18"/>
<text text-anchor="middle" x="1203" y="-14.3" font-family="Times,serif" font-size="14.00" fill="#000000">DevExpress</text>
</g>
<!-- dot_net_framework&#45;&#45;devexpress -->
<g id="edge24" class="edge">
<title>dot_net_framework&#45;&#45;devexpress</title>
<path fill="none" stroke="#000000" d="M1082.785,-73.8418C1109.2941,-61.5279 1145.4997,-44.7098 1171.2323,-32.7566"/>
</g>
</g>
</svg>
