<?xml version="1.0" encoding="UTF-8" standalone="no"?>
<!DOCTYPE svg PUBLIC "-//W3C//DTD SVG 1.1//EN"
 "http://www.w3.org/Graphics/SVG/1.1/DTD/svg11.dtd">
<!-- Generated by graphviz version 2.40.1 (20161225.0304)
 -->
<!-- Title: expertise Pages: 1 -->
<svg width="1746pt" height="332pt"
 viewBox="0.00 0.00 1745.60 332.00" xmlns="http://www.w3.org/2000/svg" xmlns:xlink="http://www.w3.org/1999/xlink">
<g id="graph0" class="graph" transform="scale(1 1) rotate(0) translate(4 328)">
<title>expertise</title>
<polygon fill="#ffffff" stroke="transparent" points="-4,4 -4,-328 1741.5952,-328 1741.5952,4 -4,4"/>
<!-- programming -->
<g id="node1" class="node">
<title>programming</title>
<ellipse fill="none" stroke="#000000" cx="896" cy="-306" rx="60.3893" ry="18"/>
<text text-anchor="middle" x="896" y="-302.3" font-family="Times,serif" font-size="14.00" fill="#000000">Programming</text>
</g>
<!-- computer_languages -->
<g id="node2" class="node">
<title>computer_languages</title>
<ellipse fill="none" stroke="#000000" cx="211" cy="-234" rx="85.5853" ry="18"/>
<text text-anchor="middle" x="211" y="-230.3" font-family="Times,serif" font-size="14.00" fill="#000000">Computer languages</text>
</g>
<!-- programming&#45;&#45;computer_languages -->
<g id="edge1" class="edge">
<title>programming&#45;&#45;computer_languages</title>
<path fill="none" stroke="#000000" d="M838.7755,-299.9852C715.8636,-287.066 426.5669,-256.6581 287.8344,-242.076"/>
</g>
<!-- desing -->
<g id="node3" class="node">
<title>desing</title>
<ellipse fill="none" stroke="#000000" cx="725" cy="-234" rx="36.2938" ry="18"/>
<text text-anchor="middle" x="725" y="-230.3" font-family="Times,serif" font-size="14.00" fill="#000000">Design</text>
</g>
<!-- programming&#45;&#45;desing -->
<g id="edge2" class="edge">
<title>programming&#45;&#45;desing</title>
<path fill="none" stroke="#000000" d="M860.983,-291.256C829.0313,-277.8027 782.4252,-258.179 752.9166,-245.7543"/>
</g>
<!-- web_programming -->
<g id="node4" class="node">
<title>web_programming</title>
<ellipse fill="none" stroke="#000000" cx="1029" cy="-234" rx="79.8859" ry="18"/>
<text text-anchor="middle" x="1029" y="-230.3" font-family="Times,serif" font-size="14.00" fill="#000000">Web programming</text>
</g>
<!-- programming&#45;&#45;web_programming -->
<g id="edge3" class="edge">
<title>programming&#45;&#45;web_programming</title>
<path fill="none" stroke="#000000" d="M925.1874,-290.1993C946.7509,-278.5258 976.0534,-262.6628 998.0285,-250.7665"/>
</g>
<!-- desktop_programming -->
<g id="node5" class="node">
<title>desktop_programming</title>
<ellipse fill="none" stroke="#000000" cx="1339" cy="-234" rx="92.8835" ry="18"/>
<text text-anchor="middle" x="1339" y="-230.3" font-family="Times,serif" font-size="14.00" fill="#000000">Desktop programming</text>
</g>
<!-- programming&#45;&#45;desktop_programming -->
<g id="edge4" class="edge">
<title>programming&#45;&#45;desktop_programming</title>
<path fill="none" stroke="#000000" d="M949.4362,-297.3151C1028.9447,-284.3927 1178.5401,-260.0793 1267.4273,-245.6326"/>
</g>
<!-- csharp -->
<g id="node6" class="node">
<title>csharp</title>
<ellipse fill="none" stroke="#000000" cx="27" cy="-162" rx="27" ry="18"/>
<text text-anchor="middle" x="27" y="-158.3" font-family="Times,serif" font-size="14.00" fill="#000000">C#</text>
</g>
<!-- computer_languages&#45;&#45;csharp -->
<g id="edge5" class="edge">
<title>computer_languages&#45;&#45;csharp</title>
<path fill="none" stroke="#000000" d="M165.1334,-218.7765C135.6327,-208.6157 96.6605,-194.5001 63,-180 58.251,-177.9542 53.2394,-175.5872 48.5139,-173.2555"/>
</g>
<!-- t_sql -->
<g id="node7" class="node">
<title>t_sql</title>
<ellipse fill="none" stroke="#000000" cx="108" cy="-162" rx="36.2938" ry="18"/>
<text text-anchor="middle" x="108" y="-158.3" font-family="Times,serif" font-size="14.00" fill="#000000">T&#45;SQL</text>
</g>
<!-- computer_languages&#45;&#45;t_sql -->
<g id="edge6" class="edge">
<title>computer_languages&#45;&#45;t_sql</title>
<path fill="none" stroke="#000000" d="M186.3289,-216.7542C168.9506,-204.6062 145.9174,-188.5054 129.3319,-176.9116"/>
</g>
<!-- javascript -->
<g id="node8" class="node">
<title>javascript</title>
<ellipse fill="none" stroke="#000000" cx="211" cy="-162" rx="48.9926" ry="18"/>
<text text-anchor="middle" x="211" y="-158.3" font-family="Times,serif" font-size="14.00" fill="#000000">JavaScript</text>
</g>
<!-- computer_languages&#45;&#45;javascript -->
<g id="edge7" class="edge">
<title>computer_languages&#45;&#45;javascript</title>
<path fill="none" stroke="#000000" d="M211,-215.8314C211,-205 211,-191.2876 211,-180.4133"/>
</g>
<!-- typescript -->
<g id="node9" class="node">
<title>typescript</title>
<ellipse fill="none" stroke="#000000" cx="329" cy="-162" rx="51.1914" ry="18"/>
<text text-anchor="middle" x="329" y="-158.3" font-family="Times,serif" font-size="14.00" fill="#000000">TypeScript</text>
</g>
<!-- computer_languages&#45;&#45;typescript -->
<g id="edge8" class="edge">
<title>computer_languages&#45;&#45;typescript</title>
<path fill="none" stroke="#000000" d="M238.9644,-216.937C258.456,-205.0438 284.2654,-189.2957 303.2525,-177.7103"/>
</g>
<!-- desing_patterns -->
<g id="node10" class="node">
<title>desing_patterns</title>
<ellipse fill="none" stroke="#000000" cx="466" cy="-162" rx="67.6881" ry="18"/>
<text text-anchor="middle" x="466" y="-158.3" font-family="Times,serif" font-size="14.00" fill="#000000">Design patterns</text>
</g>
<!-- desing&#45;&#45;desing_patterns -->
<g id="edge9" class="edge">
<title>desing&#45;&#45;desing_patterns</title>
<path fill="none" stroke="#000000" d="M693.2415,-225.1714C648.1251,-212.6294 565.1684,-189.568 512.9405,-175.0491"/>
</g>
<!-- desing_principles -->
<g id="node11" class="node">
<title>desing_principles</title>
<ellipse fill="none" stroke="#000000" cx="725" cy="-162" rx="74.9875" ry="18"/>
<text text-anchor="middle" x="725" y="-158.3" font-family="Times,serif" font-size="14.00" fill="#000000">Desing principles</text>
</g>
<!-- desing&#45;&#45;desing_principles -->
<g id="edge10" class="edge">
<title>desing&#45;&#45;desing_principles</title>
<path fill="none" stroke="#000000" d="M725,-215.8314C725,-205 725,-191.2876 725,-180.4133"/>
</g>
<!-- client_side -->
<g id="node19" class="node">
<title>client_side</title>
<ellipse fill="none" stroke="#000000" cx="1029" cy="-162" rx="50.8918" ry="18"/>
<text text-anchor="middle" x="1029" y="-158.3" font-family="Times,serif" font-size="14.00" fill="#000000">Client&#45;side</text>
</g>
<!-- web_programming&#45;&#45;client_side -->
<g id="edge18" class="edge">
<title>web_programming&#45;&#45;client_side</title>
<path fill="none" stroke="#000000" d="M1029,-215.8314C1029,-205 1029,-191.2876 1029,-180.4133"/>
</g>
<!-- server_side -->
<g id="node20" class="node">
<title>server_side</title>
<ellipse fill="none" stroke="#000000" cx="1247" cy="-162" rx="51.9908" ry="18"/>
<text text-anchor="middle" x="1247" y="-158.3" font-family="Times,serif" font-size="14.00" fill="#000000">Server&#45;side</text>
</g>
<!-- web_programming&#45;&#45;server_side -->
<g id="edge19" class="edge">
<title>web_programming&#45;&#45;server_side</title>
<path fill="none" stroke="#000000" d="M1074.1697,-219.0816C1114.0782,-205.9008 1171.6129,-186.8985 1209.1518,-174.5003"/>
</g>
<!-- desktop_programming_windows -->
<g id="node28" class="node">
<title>desktop_programming_windows</title>
<ellipse fill="none" stroke="#000000" cx="1458" cy="-162" rx="45.4919" ry="18"/>
<text text-anchor="middle" x="1458" y="-158.3" font-family="Times,serif" font-size="14.00" fill="#000000">Windows</text>
</g>
<!-- desktop_programming&#45;&#45;desktop_programming_windows -->
<g id="edge27" class="edge">
<title>desktop_programming&#45;&#45;desktop_programming_windows</title>
<path fill="none" stroke="#000000" d="M1367.5035,-216.7542C1387.4439,-204.6894 1413.8283,-188.7258 1432.9596,-177.1505"/>
</g>
<!-- creational_patterns -->
<g id="node12" class="node">
<title>creational_patterns</title>
<ellipse fill="none" stroke="#000000" cx="108" cy="-90" rx="79.8859" ry="18"/>
<text text-anchor="middle" x="108" y="-86.3" font-family="Times,serif" font-size="14.00" fill="#000000">Creational patterns</text>
</g>
<!-- desing_patterns&#45;&#45;creational_patterns -->
<g id="edge11" class="edge">
<title>desing_patterns&#45;&#45;creational_patterns</title>
<path fill="none" stroke="#000000" d="M415.54,-149.8669C406.7091,-147.8401 397.5977,-145.81 389,-144 304.0419,-126.1142 282.2175,-124.6058 197,-108 187.4066,-106.1306 177.2398,-104.1109 167.3399,-102.1234"/>
</g>
<!-- behavioral_patterns -->
<g id="node13" class="node">
<title>behavioral_patterns</title>
<ellipse fill="none" stroke="#000000" cx="288" cy="-90" rx="81.7856" ry="18"/>
<text text-anchor="middle" x="288" y="-86.3" font-family="Times,serif" font-size="14.00" fill="#000000">Behavioral patterns</text>
</g>
<!-- desing_patterns&#45;&#45;behavioral_patterns -->
<g id="edge12" class="edge">
<title>desing_patterns&#45;&#45;behavioral_patterns</title>
<path fill="none" stroke="#000000" d="M428.6854,-146.9064C398.9177,-134.8656 357.345,-118.0497 327.1145,-105.8216"/>
</g>
<!-- structural_patterns -->
<g id="node14" class="node">
<title>structural_patterns</title>
<ellipse fill="none" stroke="#000000" cx="466" cy="-90" rx="77.9862" ry="18"/>
<text text-anchor="middle" x="466" y="-86.3" font-family="Times,serif" font-size="14.00" fill="#000000">Structural patterns</text>
</g>
<!-- desing_patterns&#45;&#45;structural_patterns -->
<g id="edge13" class="edge">
<title>desing_patterns&#45;&#45;structural_patterns</title>
<path fill="none" stroke="#000000" d="M466,-143.8314C466,-133 466,-119.2876 466,-108.4133"/>
</g>
<!-- solid -->
<g id="node15" class="node">
<title>solid</title>
<ellipse fill="none" stroke="#000000" cx="600" cy="-90" rx="37.8943" ry="18"/>
<text text-anchor="middle" x="600" y="-86.3" font-family="Times,serif" font-size="14.00" fill="#000000">SOLID</text>
</g>
<!-- desing_principles&#45;&#45;solid -->
<g id="edge14" class="edge">
<title>desing_principles&#45;&#45;solid</title>
<path fill="none" stroke="#000000" d="M696.0083,-145.3008C674.2276,-132.7551 644.7385,-115.7694 624.2124,-103.9463"/>
</g>
<!-- dry -->
<g id="node16" class="node">
<title>dry</title>
<ellipse fill="none" stroke="#000000" cx="686" cy="-90" rx="29.795" ry="18"/>
<text text-anchor="middle" x="686" y="-86.3" font-family="Times,serif" font-size="14.00" fill="#000000">DRY</text>
</g>
<!-- desing_principles&#45;&#45;dry -->
<g id="edge15" class="edge">
<title>desing_principles&#45;&#45;dry</title>
<path fill="none" stroke="#000000" d="M715.1587,-143.8314C709.1112,-132.6667 701.4055,-118.441 695.4346,-107.4177"/>
</g>
<!-- kiss -->
<g id="node17" class="node">
<title>kiss</title>
<ellipse fill="none" stroke="#000000" cx="764" cy="-90" rx="30.5947" ry="18"/>
<text text-anchor="middle" x="764" y="-86.3" font-family="Times,serif" font-size="14.00" fill="#000000">KISS</text>
</g>
<!-- desing_principles&#45;&#45;kiss -->
<g id="edge16" class="edge">
<title>desing_principles&#45;&#45;kiss</title>
<path fill="none" stroke="#000000" d="M734.8413,-143.8314C740.8888,-132.6667 748.5945,-118.441 754.5654,-107.4177"/>
</g>
<!-- yagni -->
<g id="node18" class="node">
<title>yagni</title>
<ellipse fill="none" stroke="#000000" cx="853" cy="-90" rx="40.0939" ry="18"/>
<text text-anchor="middle" x="853" y="-86.3" font-family="Times,serif" font-size="14.00" fill="#000000">YAGNI</text>
</g>
<!-- desing_principles&#45;&#45;yagni -->
<g id="edge17" class="edge">
<title>desing_principles&#45;&#45;yagni</title>
<path fill="none" stroke="#000000" d="M754.6875,-145.3008C776.8433,-132.8382 806.7882,-115.9942 827.7877,-104.1819"/>
</g>
<!-- html -->
<g id="node23" class="node">
<title>html</title>
<ellipse fill="none" stroke="#000000" cx="948" cy="-90" rx="36.2938" ry="18"/>
<text text-anchor="middle" x="948" y="-86.3" font-family="Times,serif" font-size="14.00" fill="#000000">HTML</text>
</g>
<!-- client_side&#45;&#45;html -->
<g id="edge22" class="edge">
<title>client_side&#45;&#45;html</title>
<path fill="none" stroke="#000000" d="M1009.8041,-144.937C996.5178,-133.1269 978.9552,-117.5158 965.9483,-105.954"/>
</g>
<!-- css -->
<g id="node24" class="node">
<title>css</title>
<ellipse fill="none" stroke="#000000" cx="1029" cy="-90" rx="27" ry="18"/>
<text text-anchor="middle" x="1029" y="-86.3" font-family="Times,serif" font-size="14.00" fill="#000000">CSS</text>
</g>
<!-- client_side&#45;&#45;css -->
<g id="edge23" class="edge">
<title>client_side&#45;&#45;css</title>
<path fill="none" stroke="#000000" d="M1029,-143.8314C1029,-133 1029,-119.2876 1029,-108.4133"/>
</g>
<!-- spa -->
<g id="node25" class="node">
<title>spa</title>
<ellipse fill="none" stroke="#000000" cx="1175" cy="-90" rx="100.9827" ry="18"/>
<text text-anchor="middle" x="1175" y="-86.3" font-family="Times,serif" font-size="14.00" fill="#000000">Single&#45;page applications</text>
</g>
<!-- client_side&#45;&#45;spa -->
<g id="edge24" class="edge">
<title>client_side&#45;&#45;spa</title>
<path fill="none" stroke="#000000" d="M1058.8976,-147.256C1082.5906,-135.5717 1115.7214,-119.2333 1140.5301,-106.9989"/>
</g>
<!-- dot_net_core -->
<g id="node21" class="node">
<title>dot_net_core</title>
<ellipse fill="none" stroke="#000000" cx="1344" cy="-90" rx="50.8918" ry="18"/>
<text text-anchor="middle" x="1344" y="-86.3" font-family="Times,serif" font-size="14.00" fill="#000000">.NET Core</text>
</g>
<!-- server_side&#45;&#45;dot_net_core -->
<g id="edge20" class="edge">
<title>server_side&#45;&#45;dot_net_core</title>
<path fill="none" stroke="#000000" d="M1269.0108,-145.6621C1284.8854,-133.8788 1306.2217,-118.0416 1322.0763,-106.2733"/>
</g>
<!-- asp_net_core -->
<g id="node22" class="node">
<title>asp_net_core</title>
<ellipse fill="none" stroke="#000000" cx="1336" cy="-18" rx="81.4863" ry="18"/>
<text text-anchor="middle" x="1336" y="-14.3" font-family="Times,serif" font-size="14.00" fill="#000000">ASP.NET Core 3.1</text>
</g>
<!-- dot_net_core&#45;&#45;asp_net_core -->
<g id="edge21" class="edge">
<title>dot_net_core&#45;&#45;asp_net_core</title>
<path fill="none" stroke="#000000" d="M1341.9813,-71.8314C1340.7778,-61 1339.2542,-47.2876 1338.0459,-36.4133"/>
</g>
<!-- react -->
<g id="node26" class="node">
<title>react</title>
<ellipse fill="none" stroke="#000000" cx="1093" cy="-18" rx="31.3957" ry="18"/>
<text text-anchor="middle" x="1093" y="-14.3" font-family="Times,serif" font-size="14.00" fill="#000000">React</text>
</g>
<!-- spa&#45;&#45;react -->
<g id="edge25" class="edge">
<title>spa&#45;&#45;react</title>
<path fill="none" stroke="#000000" d="M1154.7303,-72.2022C1141.0714,-60.209 1123.2469,-44.5583 1110.2649,-33.1594"/>
</g>
<!-- angular -->
<g id="node27" class="node">
<title>angular</title>
<ellipse fill="none" stroke="#000000" cx="1182" cy="-18" rx="40.0939" ry="18"/>
<text text-anchor="middle" x="1182" y="-14.3" font-family="Times,serif" font-size="14.00" fill="#000000">Angular</text>
</g>
<!-- spa&#45;&#45;angular -->
<g id="edge26" class="edge">
<title>spa&#45;&#45;angular</title>
<path fill="none" stroke="#000000" d="M1176.7664,-71.8314C1177.8194,-61 1179.1526,-47.2876 1180.2098,-36.4133"/>
</g>
<!-- dot_net_framework -->
<g id="node29" class="node">
<title>dot_net_framework</title>
<ellipse fill="none" stroke="#000000" cx="1524" cy="-90" rx="74.9875" ry="18"/>
<text text-anchor="middle" x="1524" y="-86.3" font-family="Times,serif" font-size="14.00" fill="#000000">.NET Framework</text>
</g>
<!-- desktop_programming_windows&#45;&#45;dot_net_framework -->
<g id="edge28" class="edge">
<title>desktop_programming_windows&#45;&#45;dot_net_framework</title>
<path fill="none" stroke="#000000" d="M1473.6411,-144.937C1483.9333,-133.7091 1497.3748,-119.0456 1507.7819,-107.6924"/>
</g>
<!-- wpf -->
<g id="node30" class="node">
<title>wpf</title>
<ellipse fill="none" stroke="#000000" cx="1464" cy="-18" rx="29.4969" ry="18"/>
<text text-anchor="middle" x="1464" y="-14.3" font-family="Times,serif" font-size="14.00" fill="#000000">WPF</text>
</g>
<!-- dot_net_framework&#45;&#45;wpf -->
<g id="edge29" class="edge">
<title>dot_net_framework&#45;&#45;wpf</title>
<path fill="none" stroke="#000000" d="M1509.1685,-72.2022C1499.4518,-60.5422 1486.8541,-45.4249 1477.4325,-34.119"/>
</g>
<!-- winforms -->
<g id="node31" class="node">
<title>winforms</title>
<ellipse fill="none" stroke="#000000" cx="1561" cy="-18" rx="49.2915" ry="18"/>
<text text-anchor="middle" x="1561" y="-14.3" font-family="Times,serif" font-size="14.00" fill="#000000">WinForms</text>
</g>
<!-- dot_net_framework&#45;&#45;winforms -->
<g id="edge30" class="edge">
<title>dot_net_framework&#45;&#45;winforms</title>
<path fill="none" stroke="#000000" d="M1533.3367,-71.8314C1538.9884,-60.8334 1546.1666,-46.865 1551.7945,-35.9134"/>
</g>
<!-- devexpress -->
<g id="node32" class="node">
<title>devexpress</title>
<ellipse fill="none" stroke="#000000" cx="1683" cy="-18" rx="54.6905" ry="18"/>
<text text-anchor="middle" x="1683" y="-14.3" font-family="Times,serif" font-size="14.00" fill="#000000">DevExpress</text>
</g>
<!-- dot_net_framework&#45;&#45;devexpress -->
<g id="edge31" class="edge">
<title>dot_net_framework&#45;&#45;devexpress</title>
<path fill="none" stroke="#000000" d="M1559.2873,-74.0209C1586.6427,-61.6335 1624.2385,-44.609 1650.7851,-32.5879"/>
</g>
</g>
</svg>
