<svg xmlns="http://www.w3.org/2000/svg" xmlns:xlink="http://www.w3.org/1999/xlink" contentStyleType="text/css" height="738px" preserveAspectRatio="none" style="width:1487px;height:738px;background:#FFFFFF;" version="1.1" viewBox="0 0 1487 738" width="1487px" zoomAndPan="magnify"><defs/><g><!--class bookings--><g id="elem_bookings"><rect codeLine="12" fill="#FFFFFF" height="91.1875" id="bookings" rx="2.5" ry="2.5" style="stroke:#000000;stroke-width:0.5;" width="218.083" x="208.62" y="23.3"/><text fill="#000000" font-family="sans-serif" font-size="14" font-weight="bold" lengthAdjust="spacing" textLength="71.6885" x="281.8173" y="41.2951">bookings</text><line style="stroke:#000000;stroke-width:0.5;" x1="209.62" x2="425.703" y1="49.5969" y2="49.5969"/><text fill="#000000" font-family="sans-serif" font-size="14" lengthAdjust="spacing" textLength="120.3262" x="214.62" y="66.592">book_ref: char(6)</text><line style="stroke:#000000;stroke-width:1.0;" x1="209.62" x2="425.703" y1="73.8937" y2="73.8937"/><text fill="#000000" font-family="sans-serif" font-size="14" lengthAdjust="spacing" textLength="157.377" x="214.62" y="90.8889">book_date: timestamp</text><text fill="#000000" font-family="sans-serif" font-size="14" lengthAdjust="spacing" textLength="206.083" x="214.62" y="107.1857">total_amount: numeric(10, 2)</text></g><g id="elem_GMN3"><path d="M6,56.33 L6,81.4628 A0,0 0 0 0 6,81.4628 L173.3135,81.4628 A0,0 0 0 0 173.3135,81.4628 L173.3135,74.33 L208.27,68.89 L173.3135,66.33 L173.3135,66.33 L163.3135,56.33 L6,56.33 A0,0 0 0 0 6,56.33 " fill="#FEFFDD" style="stroke:#181818;stroke-width:0.5;"/><path d="M163.3135,56.33 L163.3135,66.33 L173.3135,66.33 L163.3135,56.33 " fill="#FEFFDD" style="stroke:#181818;stroke-width:0.5;"/><text fill="#000000" font-family="sans-serif" font-size="13" lengthAdjust="spacing" textLength="146.3135" x="12" y="73.3969">2.1 M records, 151 MB</text></g><!--class tickets--><g id="elem_tickets"><rect codeLine="20" fill="#FFFFFF" height="123.7813" id="tickets" rx="2.5" ry="2.5" style="stroke:#000000;stroke-width:0.5;" width="196.0029" x="293.66" y="231.53"/><text fill="#000000" font-family="sans-serif" font-size="14" font-weight="bold" lengthAdjust="spacing" textLength="53.6211" x="364.8509" y="249.5251">tickets</text><line style="stroke:#000000;stroke-width:0.5;" x1="294.66" x2="488.6629" y1="257.8269" y2="257.8269"/><text fill="#000000" font-family="sans-serif" font-size="14" lengthAdjust="spacing" textLength="132.5352" x="299.66" y="274.822">ticket_no: char(13)</text><line style="stroke:#000000;stroke-width:1.0;" x1="294.66" x2="488.6629" y1="282.1238" y2="282.1238"/><text fill="#000000" font-family="sans-serif" font-size="14" lengthAdjust="spacing" textLength="163.5908" x="299.66" y="299.1189">book_ref: char(6) &#171;FK&#187;,</text><text fill="#000000" font-family="sans-serif" font-size="14" lengthAdjust="spacing" textLength="184.0029" x="299.66" y="315.4157">passenger_id: varchar(20)</text><text fill="#000000" font-family="sans-serif" font-size="14" lengthAdjust="spacing" textLength="156.543" x="299.66" y="331.7126">passenger_name: text</text><text fill="#000000" font-family="sans-serif" font-size="14" lengthAdjust="spacing" textLength="137.6006" x="299.66" y="348.0095">contact_data: jsonb</text></g><g id="elem_GMN7"><path d="M91,280.85 L91,305.9828 A0,0 0 0 0 91,305.9828 L258.3135,305.9828 A0,0 0 0 0 258.3135,305.9828 L258.3135,298.85 L293.51,293.42 L258.3135,290.85 L258.3135,290.85 L248.3135,280.85 L91,280.85 A0,0 0 0 0 91,280.85 " fill="#FEFFDD" style="stroke:#181818;stroke-width:0.5;"/><path d="M248.3135,280.85 L248.3135,290.85 L258.3135,290.85 L248.3135,280.85 " fill="#FEFFDD" style="stroke:#181818;stroke-width:0.5;"/><text fill="#000000" font-family="sans-serif" font-size="13" lengthAdjust="spacing" textLength="146.3135" x="97" y="297.9169">2.9 M records, 475 MB</text></g><!--class ticket_flights--><g id="elem_ticket_flights"><rect codeLine="30" fill="#FFFFFF" height="107.4844" id="ticket_flights" rx="2.5" ry="2.5" style="stroke:#000000;stroke-width:0.5;" width="210.3311" x="450.49" y="456.05"/><text fill="#000000" font-family="sans-serif" font-size="14" font-weight="bold" lengthAdjust="spacing" textLength="102.9902" x="504.1604" y="474.0451">ticket_flights</text><line style="stroke:#000000;stroke-width:0.5;" x1="451.49" x2="659.8211" y1="482.3469" y2="482.3469"/><text fill="#000000" font-family="sans-serif" font-size="14" lengthAdjust="spacing" textLength="132.5352" x="456.49" y="499.342">ticket_no: char(13)</text><text fill="#000000" font-family="sans-serif" font-size="14" lengthAdjust="spacing" textLength="115.0215" x="456.49" y="515.6389">flight_id: integer</text><line style="stroke:#000000;stroke-width:1.0;" x1="451.49" x2="659.8211" y1="522.9406" y2="522.9406"/><text fill="#000000" font-family="sans-serif" font-size="14" lengthAdjust="spacing" textLength="198.3311" x="456.49" y="539.9357">fare_conditions: varchar(10)</text><text fill="#000000" font-family="sans-serif" font-size="14" lengthAdjust="spacing" textLength="167.0703" x="456.49" y="556.2326">amount: numeric(10, 2)</text></g><g id="elem_GMN11"><path d="M248,497.23 L248,522.3628 A0,0 0 0 0 248,522.3628 L415.3135,522.3628 A0,0 0 0 0 415.3135,522.3628 L415.3135,515.23 L450.31,509.79 L415.3135,507.23 L415.3135,507.23 L405.3135,497.23 L248,497.23 A0,0 0 0 0 248,497.23 " fill="#FEFFDD" style="stroke:#181818;stroke-width:0.5;"/><path d="M405.3135,497.23 L405.3135,507.23 L415.3135,507.23 L405.3135,497.23 " fill="#FEFFDD" style="stroke:#181818;stroke-width:0.5;"/><text fill="#000000" font-family="sans-serif" font-size="13" lengthAdjust="spacing" textLength="146.3135" x="254" y="514.2969">8.4 M records, 872 MB</text></g><!--class flights--><g id="elem_flights"><rect codeLine="39" fill="#FFFFFF" height="205.2656" id="flights" rx="2.5" ry="2.5" style="stroke:#000000;stroke-width:0.5;" width="244.7637" x="598.27" y="190.79"/><text fill="#000000" font-family="sans-serif" font-size="14" font-weight="bold" lengthAdjust="spacing" textLength="50.7021" x="695.3008" y="208.7851">flights</text><line style="stroke:#000000;stroke-width:0.5;" x1="599.27" x2="842.0337" y1="217.0869" y2="217.0869"/><text fill="#000000" font-family="sans-serif" font-size="14" lengthAdjust="spacing" textLength="115.0215" x="604.27" y="234.082">flight_id: integer</text><line style="stroke:#000000;stroke-width:1.0;" x1="599.27" x2="842.0337" y1="241.3837" y2="241.3837"/><text fill="#000000" font-family="sans-serif" font-size="14" lengthAdjust="spacing" textLength="190.1553" x="604.27" y="258.3789">aircraft_code: char(3) &#171;FK&#187;</text><text fill="#000000" font-family="sans-serif" font-size="14" lengthAdjust="spacing" textLength="222.0928" x="604.27" y="274.6757">departure_airport: char(3) &#171;FK&#187;</text><text fill="#000000" font-family="sans-serif" font-size="14" lengthAdjust="spacing" textLength="197.374" x="604.27" y="290.9726">arrival_airport: char(3) &#171;FK&#187;</text><text fill="#000000" font-family="sans-serif" font-size="14" lengthAdjust="spacing" textLength="120.2988" x="604.27" y="307.2695">flight_no: char(6)</text><text fill="#000000" font-family="sans-serif" font-size="14" lengthAdjust="spacing" textLength="232.7637" x="604.27" y="323.5664">scheduled_departure: timestamp</text><text fill="#000000" font-family="sans-serif" font-size="14" lengthAdjust="spacing" textLength="208.0449" x="604.27" y="339.8632">scheduled_arrival: timestamp</text><text fill="#000000" font-family="sans-serif" font-size="14" lengthAdjust="spacing" textLength="134.4492" x="604.27" y="356.1601">status: varchar(20)</text><text fill="#000000" font-family="sans-serif" font-size="14" lengthAdjust="spacing" textLength="204.2441" x="604.27" y="372.457">actual_departure: timestamp</text><text fill="#000000" font-family="sans-serif" font-size="14" lengthAdjust="spacing" textLength="179.5254" x="604.27" y="388.7539">actual_arrival: timestamp</text></g><g id="elem_GMN15"><path d="M878.41,280.85 L878.41,289.42 L843.49,293.42 L878.41,297.42 L878.41,305.9828 A0,0 0 0 0 878.41,305.9828 L1038.8997,305.9828 A0,0 0 0 0 1038.8997,305.9828 L1038.8997,290.85 L1028.8997,280.85 L878.41,280.85 A0,0 0 0 0 878.41,280.85 " fill="#FEFFDD" style="stroke:#181818;stroke-width:0.5;"/><path d="M1028.8997,280.85 L1028.8997,290.85 L1038.8997,290.85 L1028.8997,280.85 " fill="#FEFFDD" style="stroke:#181818;stroke-width:0.5;"/><text fill="#000000" font-family="sans-serif" font-size="13" lengthAdjust="spacing" textLength="139.4897" x="884.41" y="297.9169">215 K records, 32 MB</text></g><!--class airports--><g id="elem_airports"><rect codeLine="54" fill="#FFFFFF" height="123.7813" id="airports" rx="2.5" ry="2.5" style="stroke:#000000;stroke-width:0.5;" width="159.5879" x="640.86" y="7"/><text fill="#000000" font-family="sans-serif" font-size="14" font-weight="bold" lengthAdjust="spacing" textLength="62.7197" x="689.2941" y="24.9951">airports</text><line style="stroke:#000000;stroke-width:0.5;" x1="641.86" x2="799.4479" y1="33.2969" y2="33.2969"/><text fill="#000000" font-family="sans-serif" font-size="14" lengthAdjust="spacing" textLength="147.5879" x="646.86" y="50.292">airport_code: char(3)</text><line style="stroke:#000000;stroke-width:1.0;" x1="641.86" x2="799.4479" y1="57.5938" y2="57.5938"/><text fill="#000000" font-family="sans-serif" font-size="14" lengthAdjust="spacing" textLength="140.3008" x="646.86" y="74.5889">airport_name: jsonb</text><text fill="#000000" font-family="sans-serif" font-size="14" lengthAdjust="spacing" textLength="72.0371" x="646.86" y="90.8857">city: jsonb</text><text fill="#000000" font-family="sans-serif" font-size="14" lengthAdjust="spacing" textLength="127.0801" x="646.86" y="107.1826">coordinates: point</text><text fill="#000000" font-family="sans-serif" font-size="14" lengthAdjust="spacing" textLength="102.0742" x="646.86" y="123.4795">timezone: text</text></g><g id="elem_GMN19"><path d="M461.58,56.33 L461.58,81.4628 A0,0 0 0 0 461.58,81.4628 L605.7245,81.4628 A0,0 0 0 0 605.7245,81.4628 L605.7245,74.33 L640.37,68.89 L605.7245,66.33 L605.7245,66.33 L595.7245,56.33 L461.58,56.33 A0,0 0 0 0 461.58,56.33 " fill="#FEFFDD" style="stroke:#181818;stroke-width:0.5;"/><path d="M595.7245,56.33 L595.7245,66.33 L605.7245,66.33 L595.7245,56.33 " fill="#FEFFDD" style="stroke:#181818;stroke-width:0.5;"/><text fill="#000000" font-family="sans-serif" font-size="13" lengthAdjust="spacing" textLength="123.1445" x="467.58" y="73.3969">104 records, 72 kB</text></g><!--class boarding_passes--><g id="elem_boarding_passes"><rect codeLine="65" fill="#FFFFFF" height="107.4844" id="boarding_passes" rx="2.5" ry="2.5" style="stroke:#000000;stroke-width:0.5;" width="183.3496" x="463.98" y="623.54"/><text fill="#000000" font-family="sans-serif" font-size="14" font-weight="bold" lengthAdjust="spacing" textLength="131.7627" x="489.7735" y="641.5351">boarding_passes</text><line style="stroke:#000000;stroke-width:0.5;" x1="464.98" x2="646.3296" y1="649.8369" y2="649.8369"/><text fill="#000000" font-family="sans-serif" font-size="14" lengthAdjust="spacing" textLength="171.3496" x="469.98" y="666.832">ticket_no: char(13) &#171;FK&#187;</text><text fill="#000000" font-family="sans-serif" font-size="14" lengthAdjust="spacing" textLength="153.8359" x="469.98" y="683.1289">flight_id: integer &#171;FK&#187;</text><line style="stroke:#000000;stroke-width:1.0;" x1="464.98" x2="646.3296" y1="690.4306" y2="690.4306"/><text fill="#000000" font-family="sans-serif" font-size="14" lengthAdjust="spacing" textLength="146.0498" x="469.98" y="707.4257">boarding_no: integer</text><text fill="#000000" font-family="sans-serif" font-size="14" lengthAdjust="spacing" textLength="136.9375" x="469.98" y="723.7226">seat_no: varchar(4)</text></g><g id="elem_GMN23"><path d="M253.86,664.71 L253.86,689.8428 A0,0 0 0 0 253.86,689.8428 L429.4445,689.8428 A0,0 0 0 0 429.4445,689.8428 L429.4445,682.71 L463.77,677.28 L429.4445,674.71 L429.4445,674.71 L419.4445,664.71 L253.86,664.71 A0,0 0 0 0 253.86,664.71 " fill="#FEFFDD" style="stroke:#181818;stroke-width:0.5;"/><path d="M419.4445,664.71 L419.4445,674.71 L429.4445,674.71 L419.4445,664.71 " fill="#FEFFDD" style="stroke:#181818;stroke-width:0.5;"/><text fill="#000000" font-family="sans-serif" font-size="13" lengthAdjust="spacing" textLength="154.5845" x="259.86" y="681.7769">7.9 M records, 1102 MB</text></g><!--class aircrafts--><g id="elem_aircrafts"><rect codeLine="74" fill="#FFFFFF" height="91.1875" id="aircrafts" rx="2.5" ry="2.5" style="stroke:#000000;stroke-width:0.5;" width="163.3408" x="965.99" y="23.3"/><text fill="#000000" font-family="sans-serif" font-size="14" font-weight="bold" lengthAdjust="spacing" textLength="66.917" x="1014.2019" y="41.2951">aircrafts</text><line style="stroke:#000000;stroke-width:0.5;" x1="966.99" x2="1128.3308" y1="49.5969" y2="49.5969"/><text fill="#000000" font-family="sans-serif" font-size="14" lengthAdjust="spacing" textLength="151.3408" x="971.99" y="66.592">aircraft_code: char(3)</text><line style="stroke:#000000;stroke-width:1.0;" x1="966.99" x2="1128.3308" y1="73.8937" y2="73.8937"/><text fill="#000000" font-family="sans-serif" font-size="14" lengthAdjust="spacing" textLength="90.2686" x="971.99" y="90.8889">model: jsonb</text><text fill="#000000" font-family="sans-serif" font-size="14" lengthAdjust="spacing" textLength="99.9961" x="971.99" y="107.1857">range: integer</text></g><g id="elem_GMN27"><path d="M1163.86,56.33 L1163.86,64.89 L1129.76,68.89 L1163.86,72.89 L1163.86,81.4628 A0,0 0 0 0 1163.86,81.4628 L1291.4625,81.4628 A0,0 0 0 0 1291.4625,81.4628 L1291.4625,66.33 L1281.4625,56.33 L1163.86,56.33 A0,0 0 0 0 1163.86,56.33 " fill="#FEFFDD" style="stroke:#181818;stroke-width:0.5;"/><path d="M1281.4625,56.33 L1281.4625,66.33 L1291.4625,66.33 L1281.4625,56.33 " fill="#FEFFDD" style="stroke:#181818;stroke-width:0.5;"/><text fill="#000000" font-family="sans-serif" font-size="13" lengthAdjust="spacing" textLength="106.6025" x="1169.86" y="73.3969">9 records, 32 kB</text></g><!--class seats--><g id="elem_seats"><rect codeLine="82" fill="#FFFFFF" height="91.1875" id="seats" rx="2.5" ry="2.5" style="stroke:#000000;stroke-width:0.5;" width="210.3311" x="1073.49" y="247.82"/><text fill="#000000" font-family="sans-serif" font-size="14" font-weight="bold" lengthAdjust="spacing" textLength="42.3008" x="1157.5051" y="265.8151">seats</text><line style="stroke:#000000;stroke-width:0.5;" x1="1074.49" x2="1282.8211" y1="274.1169" y2="274.1169"/><text fill="#000000" font-family="sans-serif" font-size="14" lengthAdjust="spacing" textLength="190.1553" x="1079.49" y="291.112">aircraft_code: char(3) &#171;FK&#187;</text><text fill="#000000" font-family="sans-serif" font-size="14" lengthAdjust="spacing" textLength="136.9375" x="1079.49" y="307.4089">seat_no: varchar(4)</text><line style="stroke:#000000;stroke-width:1.0;" x1="1074.49" x2="1282.8211" y1="314.7106" y2="314.7106"/><text fill="#000000" font-family="sans-serif" font-size="14" lengthAdjust="spacing" textLength="198.3311" x="1079.49" y="331.7057">fare_conditions: varchar(10)</text></g><g id="elem_GMN31"><path d="M1319.19,280.85 L1319.19,289.42 L1284.3,293.42 L1319.19,297.42 L1319.19,305.9828 A0,0 0 0 0 1319.19,305.9828 L1480.1241,305.9828 A0,0 0 0 0 1480.1241,305.9828 L1480.1241,290.85 L1470.1241,280.85 L1319.19,280.85 A0,0 0 0 0 1319.19,280.85 " fill="#FEFFDD" style="stroke:#181818;stroke-width:0.5;"/><path d="M1470.1241,280.85 L1470.1241,290.85 L1480.1241,290.85 L1470.1241,280.85 " fill="#FEFFDD" style="stroke:#181818;stroke-width:0.5;"/><text fill="#000000" font-family="sans-serif" font-size="13" lengthAdjust="spacing" textLength="139.9341" x="1325.19" y="297.9169">1.3 K records, 144 kB</text></g><!--link bookings to tickets--><g id="link_bookings_tickets"><path codeLine="90" d="M360.18,114.87 C360.18,148.49 360.18,186.45 360.18,223.33 " fill="none" id="bookings-to-tickets" style="stroke:#181818;stroke-width:1.0;"/><line style="stroke:#181818;stroke-width:1.0;" x1="360.18" x2="366.18" y1="223.33" y2="231.33"/><line style="stroke:#181818;stroke-width:1.0;" x1="360.18" x2="354.18" y1="223.33" y2="231.33"/><line style="stroke:#181818;stroke-width:1.0;" x1="360.18" x2="360.18" y1="223.33" y2="231.33"/><line style="stroke:#181818;stroke-width:1.0;" x1="364.18" x2="356.18" y1="221.33" y2="221.33"/></g><!--link tickets to ticket_flights--><g id="link_tickets_ticket_flights"><path codeLine="91" d="M470.07,355.71 C470.07,387.3 470.07,417.29 470.07,447.65 " fill="none" id="tickets-to-ticket_flights" style="stroke:#181818;stroke-width:1.0;"/><line style="stroke:#181818;stroke-width:1.0;" x1="470.07" x2="476.07" y1="447.65" y2="455.65"/><line style="stroke:#181818;stroke-width:1.0;" x1="470.07" x2="464.07" y1="447.65" y2="455.65"/><line style="stroke:#181818;stroke-width:1.0;" x1="470.07" x2="470.07" y1="447.65" y2="455.65"/><line style="stroke:#181818;stroke-width:1.0;" x1="474.07" x2="466.07" y1="445.65" y2="445.65"/></g><!--link ticket_flights to boarding_passes--><g id="link_ticket_flights_boarding_passes"><path codeLine="92" d="M555.66,563.71 C555.66,582.74 555.66,604.13 555.66,623.18 " fill="none" id="ticket_flights-boarding_passes" style="stroke:#181818;stroke-width:1.0;"/></g><!--link flights to ticket_flights--><g id="link_flights_ticket_flights"><path codeLine="93" d="M629.55,396.54 C629.55,417 629.55,429.71 629.55,447.72 " fill="none" id="flights-to-ticket_flights" style="stroke:#181818;stroke-width:1.0;"/><line style="stroke:#181818;stroke-width:1.0;" x1="629.55" x2="635.55" y1="447.72" y2="455.72"/><line style="stroke:#181818;stroke-width:1.0;" x1="629.55" x2="623.55" y1="447.72" y2="455.72"/><line style="stroke:#181818;stroke-width:1.0;" x1="629.55" x2="629.55" y1="447.72" y2="455.72"/><line style="stroke:#181818;stroke-width:1.0;" x1="633.55" x2="625.55" y1="445.72" y2="445.72"/></g><!--link airports to flights--><g id="link_airports_flights"><path codeLine="94" d="M694.06,131.14 C694.06,149.57 694.06,162.26 694.06,182.53 " fill="none" id="airports-to-flights" style="stroke:#181818;stroke-width:1.0;"/><line style="stroke:#181818;stroke-width:1.0;" x1="694.06" x2="700.06" y1="182.53" y2="190.53"/><line style="stroke:#181818;stroke-width:1.0;" x1="694.06" x2="688.06" y1="182.53" y2="190.53"/><line style="stroke:#181818;stroke-width:1.0;" x1="694.06" x2="694.06" y1="182.53" y2="190.53"/><line style="stroke:#181818;stroke-width:1.0;" x1="698.06" x2="690.06" y1="180.53" y2="180.53"/></g><!--link airports to flights--><g id="link_airports_flights"><path codeLine="95" d="M747.25,131.14 C747.25,149.57 747.25,162.26 747.25,182.53 " fill="none" id="airports-to-flights-1" style="stroke:#181818;stroke-width:1.0;"/><line style="stroke:#181818;stroke-width:1.0;" x1="747.25" x2="753.25" y1="182.53" y2="190.53"/><line style="stroke:#181818;stroke-width:1.0;" x1="747.25" x2="741.25" y1="182.53" y2="190.53"/><line style="stroke:#181818;stroke-width:1.0;" x1="747.25" x2="747.25" y1="182.53" y2="190.53"/><line style="stroke:#181818;stroke-width:1.0;" x1="751.25" x2="743.25" y1="180.53" y2="180.53"/></g><!--link aircrafts to flights--><g id="link_aircrafts_flights"><path codeLine="96" d="M1002.44,114.84 C1002.44,159.07 1002.44,219.31 1002.44,219.31 C1002.44,219.31 927.37,219.31 851.43,219.31 " fill="none" id="aircrafts-to-flights" style="stroke:#181818;stroke-width:1.0;"/><line style="stroke:#181818;stroke-width:1.0;" x1="851.43" x2="843.43" y1="219.31" y2="225.31"/><line style="stroke:#181818;stroke-width:1.0;" x1="851.43" x2="843.43" y1="219.31" y2="213.31"/><line style="stroke:#181818;stroke-width:1.0;" x1="851.43" x2="843.43" y1="219.31" y2="219.31"/><line style="stroke:#181818;stroke-width:1.0;" x1="853.43" x2="853.43" y1="223.31" y2="215.31"/></g><!--link aircrafts to seats--><g id="link_aircrafts_seats"><path codeLine="97" d="M1101.41,114.87 C1101.41,153.62 1101.41,200.77 1101.41,239.5 " fill="none" id="aircrafts-to-seats" style="stroke:#181818;stroke-width:1.0;"/><line style="stroke:#181818;stroke-width:1.0;" x1="1101.41" x2="1107.41" y1="239.5" y2="247.5"/><line style="stroke:#181818;stroke-width:1.0;" x1="1101.41" x2="1095.41" y1="239.5" y2="247.5"/><line style="stroke:#181818;stroke-width:1.0;" x1="1101.41" x2="1101.41" y1="239.5" y2="247.5"/><line style="stroke:#181818;stroke-width:1.0;" x1="1105.41" x2="1097.41" y1="237.5" y2="237.5"/></g><!--SRC=[ZPHDRzim38Rl-XK4TbW3n46SE4iR53raG2_5Jli1XchJYHPR2cIwMDhjlu-MlvsFpYURbCb7Br_fAqH69sfNM4dAQB5NCKAaR9IYo0zA7wML6QHA8vsE2CRIteXU9afbdiE707wsCZhih2bq_DsaniANn3rLpjWORHNVfhpGHP-DffzqIX5UJHft8VMEu0VYhn2eIT69quPRxbodyZsqc6mWsajxzsqYmFFgS2m9Dq0gmvnaTXH0XcGQoeofQ0EwoD2gwCwVJs4nuVhQ44AA2USMCnz-WCM8IVCf-2l-tBO0fA83akjVlORQr03-ia_G1uF7n-UNfwUfW2EhX7g7DbJn1jwaTIiMyqa_fMLMmkDl4kLKI4PKRaXku5TkzEiOzw6F6wnNvxXXaghT_WPrbNTCIXCoHBMJH5eC6I5MfIdoZjWlYVz7pVjPqCUxNo_wU3skQmYIFMXbGemHOysyR1GL42FxZmh6v8L7jkNv4ccjUYk7Vsr1tRgLf7HI7kqnBbACmxR3m4zTlYu_p9Aa8XyDcCTOCCRbUdNoGh5QJbioyhZz5RnqUYu7SjOxT7hMxqFPMabTgl9PvIa-wtJgFWoNLveF4M_YQ7WWmX6z6zquSp1bVnvqJ3pY0pDrHrQMjNQXC_Wr3uw7qVD1cwhELbsj_BarIewoAjS87enik1wU4j-VZuLp9ckKk-2ugdt6eRILoKe-hnt6S58FWoaTkcObx8r6xNOlRUhpKpc4y6VBlbty870axJNgUNy-cZjDD7TRBzZS769qaNZUUAwYIvt_tHhJ9J-DrhEu5NOY_WC0]--></g></svg>