<svg xmlns="http://www.w3.org/2000/svg" xmlns:xlink="http://www.w3.org/1999/xlink" contentStyleType="text/css" height="509px" preserveAspectRatio="none" style="width:1155px;height:509px;background:#FFFFFF;" version="1.1" viewBox="0 0 1155 509" width="1155px" zoomAndPan="magnify"><defs/><g><!--class bookings--><g id="elem_bookings"><rect codeLine="12" fill="#FFFFFF" height="58.5938" id="bookings" rx="2.5" ry="2.5" style="stroke:#000000;stroke-width:0.5;" width="77.6885" x="208.81" y="7"/><text fill="#000000" font-family="sans-serif" font-size="14" font-weight="bold" lengthAdjust="spacing" textLength="71.6885" x="211.81" y="24.9951">bookings</text><line style="stroke:#000000;stroke-width:0.5;" x1="209.81" x2="285.4985" y1="33.2969" y2="33.2969"/><text fill="#000000" font-family="sans-serif" font-size="14" lengthAdjust="spacing" textLength="60.4229" x="214.81" y="50.292">book_ref</text><line style="stroke:#000000;stroke-width:1.0;" x1="209.81" x2="285.4985" y1="57.5938" y2="57.5938"/></g><g id="elem_GMN3"><path d="M6,23.73 L6,48.8628 A0,0 0 0 0 6,48.8628 L173.3135,48.8628 A0,0 0 0 0 173.3135,48.8628 L173.3135,41.73 L208.39,36.3 L173.3135,33.73 L173.3135,33.73 L163.3135,23.73 L6,23.73 A0,0 0 0 0 6,23.73 " fill="#FEFFDD" style="stroke:#181818;stroke-width:0.5;"/><path d="M163.3135,23.73 L163.3135,33.73 L173.3135,33.73 L163.3135,23.73 " fill="#FEFFDD" style="stroke:#181818;stroke-width:0.5;"/><text fill="#000000" font-family="sans-serif" font-size="13" lengthAdjust="spacing" textLength="146.3135" x="12" y="40.7969">2.1 M records, 151 MB</text></g><!--class tickets--><g id="elem_tickets"><rect codeLine="18" fill="#FFFFFF" height="74.8906" id="tickets" rx="2.5" ry="2.5" style="stroke:#000000;stroke-width:0.5;" width="75.7246" x="290.79" y="141.89"/><text fill="#000000" font-family="sans-serif" font-size="14" font-weight="bold" lengthAdjust="spacing" textLength="53.6211" x="301.8418" y="159.8851">tickets</text><line style="stroke:#000000;stroke-width:0.5;" x1="291.79" x2="365.5146" y1="168.1869" y2="168.1869"/><text fill="#000000" font-family="sans-serif" font-size="14" lengthAdjust="spacing" textLength="63.7246" x="296.79" y="185.182">ticket_no</text><line style="stroke:#000000;stroke-width:1.0;" x1="291.79" x2="365.5146" y1="192.4838" y2="192.4838"/><text fill="#000000" font-family="sans-serif" font-size="14" lengthAdjust="spacing" textLength="60.4229" x="296.79" y="209.4789">book_ref</text></g><g id="elem_GMN7"><path d="M88,166.77 L88,191.9028 A0,0 0 0 0 88,191.9028 L255.3135,191.9028 A0,0 0 0 0 255.3135,191.9028 L255.3135,184.77 L290.68,179.34 L255.3135,176.77 L255.3135,176.77 L245.3135,166.77 L88,166.77 A0,0 0 0 0 88,166.77 " fill="#FEFFDD" style="stroke:#181818;stroke-width:0.5;"/><path d="M245.3135,166.77 L245.3135,176.77 L255.3135,176.77 L245.3135,166.77 " fill="#FEFFDD" style="stroke:#181818;stroke-width:0.5;"/><text fill="#000000" font-family="sans-serif" font-size="13" lengthAdjust="spacing" textLength="146.3135" x="94" y="183.8369">2.9 M records, 475 MB</text></g><!--class ticket_flights--><g id="elem_ticket_flights"><rect codeLine="25" fill="#FFFFFF" height="74.8906" id="ticket_flights" rx="2.5" ry="2.5" style="stroke:#000000;stroke-width:0.5;" width="108.9902" x="385.16" y="293.08"/><text fill="#000000" font-family="sans-serif" font-size="14" font-weight="bold" lengthAdjust="spacing" textLength="102.9902" x="388.16" y="311.0751">ticket_flights</text><line style="stroke:#000000;stroke-width:0.5;" x1="386.16" x2="493.1502" y1="319.3769" y2="319.3769"/><text fill="#000000" font-family="sans-serif" font-size="14" lengthAdjust="spacing" textLength="63.7246" x="391.16" y="336.372">ticket_no</text><text fill="#000000" font-family="sans-serif" font-size="14" lengthAdjust="spacing" textLength="55.7334" x="391.16" y="352.6689">flight_id</text><line style="stroke:#000000;stroke-width:1.0;" x1="386.16" x2="493.1502" y1="359.9706" y2="359.9706"/></g><g id="elem_GMN11"><path d="M183,317.96 L183,343.0928 A0,0 0 0 0 183,343.0928 L350.3135,343.0928 A0,0 0 0 0 350.3135,343.0928 L350.3135,335.96 L385.07,330.52 L350.3135,327.96 L350.3135,327.96 L340.3135,317.96 L183,317.96 A0,0 0 0 0 183,317.96 " fill="#FEFFDD" style="stroke:#181818;stroke-width:0.5;"/><path d="M340.3135,317.96 L340.3135,327.96 L350.3135,327.96 L340.3135,317.96 " fill="#FEFFDD" style="stroke:#181818;stroke-width:0.5;"/><text fill="#000000" font-family="sans-serif" font-size="13" lengthAdjust="spacing" textLength="146.3135" x="189" y="335.0269">8.4 M records, 872 MB</text></g><!--class flights--><g id="elem_flights"><rect codeLine="32" fill="#FFFFFF" height="107.4844" id="flights" rx="2.5" ry="2.5" style="stroke:#000000;stroke-width:0.5;" width="135.375" x="482.97" y="125.59"/><text fill="#000000" font-family="sans-serif" font-size="14" font-weight="bold" lengthAdjust="spacing" textLength="50.7021" x="525.3064" y="143.5851">flights</text><line style="stroke:#000000;stroke-width:0.5;" x1="483.97" x2="617.345" y1="151.8869" y2="151.8869"/><text fill="#000000" font-family="sans-serif" font-size="14" lengthAdjust="spacing" textLength="55.7334" x="488.97" y="168.882">flight_id</text><line style="stroke:#000000;stroke-width:1.0;" x1="483.97" x2="617.345" y1="176.1838" y2="176.1838"/><text fill="#000000" font-family="sans-serif" font-size="14" lengthAdjust="spacing" textLength="123.375" x="488.97" y="193.1789">departure_airport</text><text fill="#000000" font-family="sans-serif" font-size="14" lengthAdjust="spacing" textLength="98.6563" x="488.97" y="209.4757">arrival_airport</text><text fill="#000000" font-family="sans-serif" font-size="14" lengthAdjust="spacing" textLength="91.4375" x="488.97" y="225.7726">aircraft_code</text></g><g id="elem_GMN15"><path d="M653.41,166.77 L653.41,175.34 L618.8,179.34 L653.41,183.34 L653.41,191.9028 A0,0 0 0 0 653.41,191.9028 L813.8997,191.9028 A0,0 0 0 0 813.8997,191.9028 L813.8997,176.77 L803.8997,166.77 L653.41,166.77 A0,0 0 0 0 653.41,166.77 " fill="#FEFFDD" style="stroke:#181818;stroke-width:0.5;"/><path d="M803.8997,166.77 L803.8997,176.77 L813.8997,176.77 L803.8997,166.77 " fill="#FEFFDD" style="stroke:#181818;stroke-width:0.5;"/><text fill="#000000" font-family="sans-serif" font-size="13" lengthAdjust="spacing" textLength="139.4897" x="659.41" y="183.8369">215 K records, 32 MB</text></g><!--class airports--><g id="elem_airports"><rect codeLine="41" fill="#FFFFFF" height="58.5938" id="airports" rx="2.5" ry="2.5" style="stroke:#000000;stroke-width:0.5;" width="99.6846" x="500.81" y="7"/><text fill="#000000" font-family="sans-serif" font-size="14" font-weight="bold" lengthAdjust="spacing" textLength="62.7197" x="519.2924" y="24.9951">airports</text><line style="stroke:#000000;stroke-width:0.5;" x1="501.81" x2="599.4946" y1="33.2969" y2="33.2969"/><text fill="#000000" font-family="sans-serif" font-size="14" lengthAdjust="spacing" textLength="87.6846" x="506.81" y="50.292">airport_code</text><line style="stroke:#000000;stroke-width:1.0;" x1="501.81" x2="599.4946" y1="57.5938" y2="57.5938"/></g><g id="elem_GMN19"><path d="M321.58,23.73 L321.58,48.8628 A0,0 0 0 0 321.58,48.8628 L465.7245,48.8628 A0,0 0 0 0 465.7245,48.8628 L465.7245,41.73 L500.4,36.3 L465.7245,33.73 L465.7245,33.73 L455.7245,23.73 L321.58,23.73 A0,0 0 0 0 321.58,23.73 " fill="#FEFFDD" style="stroke:#181818;stroke-width:0.5;"/><path d="M455.7245,23.73 L455.7245,33.73 L465.7245,33.73 L455.7245,23.73 " fill="#FEFFDD" style="stroke:#181818;stroke-width:0.5;"/><text fill="#000000" font-family="sans-serif" font-size="13" lengthAdjust="spacing" textLength="123.1445" x="327.58" y="40.7969">104 records, 72 kB</text></g><!--class boarding_passes--><g id="elem_boarding_passes"><rect codeLine="48" fill="#FFFFFF" height="74.8906" id="boarding_passes" rx="2.5" ry="2.5" style="stroke:#000000;stroke-width:0.5;" width="137.7627" x="370.78" y="427.97"/><text fill="#000000" font-family="sans-serif" font-size="14" font-weight="bold" lengthAdjust="spacing" textLength="131.7627" x="373.78" y="445.9651">boarding_passes</text><line style="stroke:#000000;stroke-width:0.5;" x1="371.78" x2="507.5427" y1="454.2669" y2="454.2669"/><text fill="#000000" font-family="sans-serif" font-size="14" lengthAdjust="spacing" textLength="63.7246" x="376.78" y="471.262">ticket_no</text><text fill="#000000" font-family="sans-serif" font-size="14" lengthAdjust="spacing" textLength="55.7334" x="376.78" y="487.5589">flight_id</text><line style="stroke:#000000;stroke-width:1.0;" x1="371.78" x2="507.5427" y1="494.8606" y2="494.8606"/></g><g id="elem_GMN23"><path d="M159.86,452.85 L159.86,477.9828 A0,0 0 0 0 159.86,477.9828 L335.4445,477.9828 A0,0 0 0 0 335.4445,477.9828 L335.4445,470.85 L370.46,465.41 L335.4445,462.85 L335.4445,462.85 L325.4445,452.85 L159.86,452.85 A0,0 0 0 0 159.86,452.85 " fill="#FEFFDD" style="stroke:#181818;stroke-width:0.5;"/><path d="M325.4445,452.85 L325.4445,462.85 L335.4445,462.85 L325.4445,452.85 " fill="#FEFFDD" style="stroke:#181818;stroke-width:0.5;"/><text fill="#000000" font-family="sans-serif" font-size="13" lengthAdjust="spacing" textLength="154.5845" x="165.86" y="469.9169">7.9 M records, 1102 MB</text></g><!--class aircrafts--><g id="elem_aircrafts"><rect codeLine="55" fill="#FFFFFF" height="58.5938" id="aircrafts" rx="2.5" ry="2.5" style="stroke:#000000;stroke-width:0.5;" width="103.4375" x="741.94" y="7"/><text fill="#000000" font-family="sans-serif" font-size="14" font-weight="bold" lengthAdjust="spacing" textLength="66.917" x="760.2003" y="24.9951">aircrafts</text><line style="stroke:#000000;stroke-width:0.5;" x1="742.94" x2="844.3775" y1="33.2969" y2="33.2969"/><text fill="#000000" font-family="sans-serif" font-size="14" lengthAdjust="spacing" textLength="91.4375" x="747.94" y="50.292">aircraft_code</text><line style="stroke:#000000;stroke-width:1.0;" x1="742.94" x2="844.3775" y1="57.5938" y2="57.5938"/></g><g id="elem_GMN27"><path d="M880.86,23.73 L880.86,32.3 L845.62,36.3 L880.86,40.3 L880.86,48.8628 A0,0 0 0 0 880.86,48.8628 L1008.4625,48.8628 A0,0 0 0 0 1008.4625,48.8628 L1008.4625,33.73 L998.4625,23.73 L880.86,23.73 A0,0 0 0 0 880.86,23.73 " fill="#FEFFDD" style="stroke:#181818;stroke-width:0.5;"/><path d="M998.4625,23.73 L998.4625,33.73 L1008.4625,33.73 L998.4625,23.73 " fill="#FEFFDD" style="stroke:#181818;stroke-width:0.5;"/><text fill="#000000" font-family="sans-serif" font-size="13" lengthAdjust="spacing" textLength="106.6025" x="886.86" y="40.7969">9 records, 32 kB</text></g><!--class seats--><g id="elem_seats"><rect codeLine="61" fill="#FFFFFF" height="74.8906" id="seats" rx="2.5" ry="2.5" style="stroke:#000000;stroke-width:0.5;" width="103.4375" x="848.94" y="141.89"/><text fill="#000000" font-family="sans-serif" font-size="14" font-weight="bold" lengthAdjust="spacing" textLength="42.3008" x="879.5084" y="159.8851">seats</text><line style="stroke:#000000;stroke-width:0.5;" x1="849.94" x2="951.3775" y1="168.1869" y2="168.1869"/><text fill="#000000" font-family="sans-serif" font-size="14" lengthAdjust="spacing" textLength="91.4375" x="854.94" y="185.182">aircraft_code</text><text fill="#000000" font-family="sans-serif" font-size="14" lengthAdjust="spacing" textLength="54.4141" x="854.94" y="201.4789">seat_no</text><line style="stroke:#000000;stroke-width:1.0;" x1="849.94" x2="951.3775" y1="208.7806" y2="208.7806"/></g><g id="elem_GMN31"><path d="M987.19,166.77 L987.19,175.34 L952.58,179.34 L987.19,183.34 L987.19,191.9028 A0,0 0 0 0 987.19,191.9028 L1148.1241,191.9028 A0,0 0 0 0 1148.1241,191.9028 L1148.1241,176.77 L1138.1241,166.77 L987.19,166.77 A0,0 0 0 0 987.19,166.77 " fill="#FEFFDD" style="stroke:#181818;stroke-width:0.5;"/><path d="M1138.1241,166.77 L1138.1241,176.77 L1148.1241,176.77 L1138.1241,166.77 " fill="#FEFFDD" style="stroke:#181818;stroke-width:0.5;"/><text fill="#000000" font-family="sans-serif" font-size="13" lengthAdjust="spacing" textLength="139.9341" x="993.19" y="183.8369">1.3 K records, 144 kB</text></g><!--link bookings to tickets--><g id="link_bookings_tickets"><path codeLine="68" d="M286.7,57.23 C297.44,57.23 306.19,57.23 306.19,57.23 C306.19,57.23 306.19,97.83 306.19,133.7 " fill="none" id="bookings-to-tickets" style="stroke:#181818;stroke-width:1.0;"/><line style="stroke:#181818;stroke-width:1.0;" x1="306.19" x2="312.19" y1="133.7" y2="141.7"/><line style="stroke:#181818;stroke-width:1.0;" x1="306.19" x2="300.19" y1="133.7" y2="141.7"/><line style="stroke:#181818;stroke-width:1.0;" x1="306.19" x2="306.19" y1="133.7" y2="141.7"/><line style="stroke:#181818;stroke-width:1.0;" x1="310.19" x2="302.19" y1="131.7" y2="131.7"/></g><!--link tickets to ticket_flights--><g id="link_tickets_ticket_flights"><path codeLine="69" d="M358.42,217.2 C358.42,254.36 358.42,305.52 358.42,305.52 C358.42,305.52 362.32,305.52 377.02,305.52 " fill="none" id="tickets-to-ticket_flights" style="stroke:#181818;stroke-width:1.0;"/><line style="stroke:#181818;stroke-width:1.0;" x1="377.02" x2="385.02" y1="305.52" y2="299.52"/><line style="stroke:#181818;stroke-width:1.0;" x1="377.02" x2="385.02" y1="305.52" y2="311.52"/><line style="stroke:#181818;stroke-width:1.0;" x1="377.02" x2="385.02" y1="305.52" y2="305.52"/><line style="stroke:#181818;stroke-width:1.0;" x1="375.02" x2="375.02" y1="301.52" y2="309.52"/></g><!--link ticket_flights to boarding_passes--><g id="link_ticket_flights_boarding_passes"><path codeLine="70" d="M439.66,368.46 C439.66,387 439.66,409.26 439.66,427.77 " fill="none" id="ticket_flights-boarding_passes" style="stroke:#181818;stroke-width:1.0;"/></g><!--link flights to ticket_flights--><g id="link_flights_ticket_flights"><path codeLine="71" d="M488.56,233.49 C488.56,253.15 488.56,266.91 488.56,284.84 " fill="none" id="flights-to-ticket_flights" style="stroke:#181818;stroke-width:1.0;"/><line style="stroke:#181818;stroke-width:1.0;" x1="488.56" x2="494.56" y1="284.84" y2="292.84"/><line style="stroke:#181818;stroke-width:1.0;" x1="488.56" x2="482.56" y1="284.84" y2="292.84"/><line style="stroke:#181818;stroke-width:1.0;" x1="488.56" x2="488.56" y1="284.84" y2="292.84"/><line style="stroke:#181818;stroke-width:1.0;" x1="492.56" x2="484.56" y1="282.84" y2="282.84"/></g><!--link airports to flights--><g id="link_airports_flights"><path codeLine="72" d="M534.04,65.94 C534.04,83.04 534.04,97.07 534.04,117.17 " fill="none" id="airports-to-flights" style="stroke:#181818;stroke-width:1.0;"/><line style="stroke:#181818;stroke-width:1.0;" x1="534.04" x2="540.04" y1="117.17" y2="125.17"/><line style="stroke:#181818;stroke-width:1.0;" x1="534.04" x2="528.04" y1="117.17" y2="125.17"/><line style="stroke:#181818;stroke-width:1.0;" x1="534.04" x2="534.04" y1="117.17" y2="125.17"/><line style="stroke:#181818;stroke-width:1.0;" x1="538.04" x2="530.04" y1="115.17" y2="115.17"/></g><!--link airports to flights--><g id="link_airports_flights"><path codeLine="73" d="M567.27,65.94 C567.27,83.04 567.27,97.07 567.27,117.17 " fill="none" id="airports-to-flights-1" style="stroke:#181818;stroke-width:1.0;"/><line style="stroke:#181818;stroke-width:1.0;" x1="567.27" x2="573.27" y1="117.17" y2="125.17"/><line style="stroke:#181818;stroke-width:1.0;" x1="567.27" x2="561.27" y1="117.17" y2="125.17"/><line style="stroke:#181818;stroke-width:1.0;" x1="567.27" x2="567.27" y1="117.17" y2="125.17"/><line style="stroke:#181818;stroke-width:1.0;" x1="571.27" x2="563.27" y1="115.17" y2="115.17"/></g><!--link aircrafts to flights--><g id="link_aircrafts_flights"><path codeLine="74" d="M741.85,36.3 C687.35,36.3 609.42,36.3 609.42,36.3 C609.42,36.3 609.42,76.75 609.42,117.26 " fill="none" id="aircrafts-to-flights" style="stroke:#181818;stroke-width:1.0;"/><line style="stroke:#181818;stroke-width:1.0;" x1="609.42" x2="615.42" y1="117.26" y2="125.26"/><line style="stroke:#181818;stroke-width:1.0;" x1="609.42" x2="603.42" y1="117.26" y2="125.26"/><line style="stroke:#181818;stroke-width:1.0;" x1="609.42" x2="609.42" y1="117.26" y2="125.26"/><line style="stroke:#181818;stroke-width:1.0;" x1="613.42" x2="605.42" y1="115.26" y2="115.26"/></g><!--link aircrafts to seats--><g id="link_aircrafts_seats"><path codeLine="75" d="M845.81,57.23 C856.67,57.23 864.9,57.23 864.9,57.23 C864.9,57.23 864.9,97.83 864.9,133.7 " fill="none" id="aircrafts-to-seats" style="stroke:#181818;stroke-width:1.0;"/><line style="stroke:#181818;stroke-width:1.0;" x1="864.9" x2="870.9" y1="133.7" y2="141.7"/><line style="stroke:#181818;stroke-width:1.0;" x1="864.9" x2="858.9" y1="133.7" y2="141.7"/><line style="stroke:#181818;stroke-width:1.0;" x1="864.9" x2="864.9" y1="133.7" y2="141.7"/><line style="stroke:#181818;stroke-width:1.0;" x1="868.9" x2="860.9" y1="131.7" y2="131.7"/></g><!--SRC=[bP9DJiCm48NtFiL8BDYGgcvJjMLP93Q85GU8Z3DfhHWxchX8fN1tN2Tfd0I1yCfvutnl_cv1MbEe_P64KzQmWyeHf2AfaTMbCfKWyGPQ6NId2i6IErWMHQGMTGrd1lxiX2ptP8ycVx3Q4jmKuJGnIpbIe- -qVnZKHslSYpjfX5UhyrvI7mWyPL-CeN7AdNpOUijzSBhSCqBFJHB_n5Y7eB5mzx2OSNW6GkdDwZlWA_-vkpASaYMwW6YkcR61qHD7j6rCIzUhAIqhjDeV9j16pLG-pN4pIsFgPhs8gH5ko80SVSFTaJ0JYYe_1mQ2IBqB7Gb-RYGAbqcROsTB5uolXg_WgVTT3cnRGl1jxmrZaZwVfpt4vrvwI3yaGRcVKbRvdS1_z6Gzx3Jdyt5seQmklQZ62DNMkHtKMFQK6iMFX8lURS8GnMVBk6KyJGFlkej9yddkjefrsnM9tNAmqQuaoRXLh0zD_xuE9mJ_LDjM_IQ7Ldm3]--></g></svg>