<?xml version="1.0" encoding="UTF-8" standalone="no"?>
<!DOCTYPE svg PUBLIC "-//W3C//DTD SVG 1.1//EN"
 "http://www.w3.org/Graphics/SVG/1.1/DTD/svg11.dtd">
<!-- Generated by graphviz version 2.40.1 (20161225.0304)
 -->
<!-- Title: expertise Pages: 1 -->
<svg width="5646pt" height="404pt"
 viewBox="0.00 0.00 5646.24 404.00" xmlns="http://www.w3.org/2000/svg" xmlns:xlink="http://www.w3.org/1999/xlink">
<g id="graph0" class="graph" transform="scale(1 1) rotate(0) translate(4 400)">
<title>expertise</title>
<polygon fill="#ffffff" stroke="transparent" points="-4,4 -4,-400 5642.2393,-400 5642.2393,4 -4,4"/>
<!-- computer_science -->
<g id="node1" class="node">
<title>computer_science</title>
<ellipse fill="none" stroke="#000000" cx="3537.1459" cy="-378" rx="76.0865" ry="18"/>
<text text-anchor="middle" x="3537.1459" y="-374.3" font-family="Times,serif" font-size="14.00" fill="#000000">Computer science</text>
</g>
<!-- data_types -->
<g id="node2" class="node">
<title>data_types</title>
<ellipse fill="none" stroke="#000000" cx="1269.1459" cy="-306" rx="49.2915" ry="18"/>
<text text-anchor="middle" x="1269.1459" y="-302.3" font-family="Times,serif" font-size="14.00" fill="#000000">Data types</text>
</g>
<!-- computer_science&#45;&#45;data_types -->
<g id="edge1" class="edge">
<title>computer_science&#45;&#45;data_types</title>
<path fill="none" stroke="#000000" d="M3461.6855,-375.6044C3106.968,-364.3436 1610.3551,-316.832 1318.5756,-307.5692"/>
</g>
<!-- data_structures -->
<g id="node3" class="node">
<title>data_structures</title>
<ellipse fill="none" stroke="#000000" cx="2986.1459" cy="-306" rx="65.7887" ry="18"/>
<text text-anchor="middle" x="2986.1459" y="-302.3" font-family="Times,serif" font-size="14.00" fill="#000000">Data structures</text>
</g>
<!-- computer_science&#45;&#45;data_structures -->
<g id="edge2" class="edge">
<title>computer_science&#45;&#45;data_structures</title>
<path fill="none" stroke="#000000" d="M3470.4081,-369.2793C3361.9618,-355.1084 3149.2047,-327.3071 3045.6281,-313.7726"/>
</g>
<!-- algorithms -->
<g id="node4" class="node">
<title>algorithms</title>
<ellipse fill="none" stroke="#000000" cx="4077.1459" cy="-306" rx="51.9908" ry="18"/>
<text text-anchor="middle" x="4077.1459" y="-302.3" font-family="Times,serif" font-size="14.00" fill="#000000">Algorithms</text>
</g>
<!-- computer_science&#45;&#45;algorithms -->
<g id="edge3" class="edge">
<title>computer_science&#45;&#45;algorithms</title>
<path fill="none" stroke="#000000" d="M3603.6311,-369.1353C3713.7161,-354.4573 3931.324,-325.4429 4028.4035,-312.499"/>
</g>
<!-- cryptography -->
<g id="node5" class="node">
<title>cryptography</title>
<ellipse fill="none" stroke="#000000" cx="5039.1459" cy="-306" rx="61.1893" ry="18"/>
<text text-anchor="middle" x="5039.1459" y="-302.3" font-family="Times,serif" font-size="14.00" fill="#000000">Cryptography</text>
</g>
<!-- computer_science&#45;&#45;cryptography -->
<g id="edge4" class="edge">
<title>computer_science&#45;&#45;cryptography</title>
<path fill="none" stroke="#000000" d="M3611.8871,-374.4172C3872.961,-361.9023 4741.2681,-320.2791 4978.6921,-308.8979"/>
</g>
<!-- primitive_data_types -->
<g id="node6" class="node">
<title>primitive_data_types</title>
<ellipse fill="none" stroke="#000000" cx="370.1459" cy="-234" rx="83.3857" ry="18"/>
<text text-anchor="middle" x="370.1459" y="-230.3" font-family="Times,serif" font-size="14.00" fill="#000000">Primitive data types</text>
</g>
<!-- data_types&#45;&#45;primitive_data_types -->
<g id="edge5" class="edge">
<title>data_types&#45;&#45;primitive_data_types</title>
<path fill="none" stroke="#000000" d="M1220.8118,-302.129C1073.5601,-290.3357 629.5602,-254.7762 448.3964,-240.267"/>
</g>
<!-- composite_data_types -->
<g id="node7" class="node">
<title>composite_data_types</title>
<ellipse fill="none" stroke="#000000" cx="943.1459" cy="-234" rx="89.0842" ry="18"/>
<text text-anchor="middle" x="943.1459" y="-230.3" font-family="Times,serif" font-size="14.00" fill="#000000">Composite data types</text>
</g>
<!-- data_types&#45;&#45;composite_data_types -->
<g id="edge6" class="edge">
<title>data_types&#45;&#45;composite_data_types</title>
<path fill="none" stroke="#000000" d="M1226.8613,-296.6611C1169.9226,-284.0857 1068.274,-261.6357 1003.362,-247.2993"/>
</g>
<!-- abstract_data_types -->
<g id="node8" class="node">
<title>abstract_data_types</title>
<ellipse fill="none" stroke="#000000" cx="1554.1459" cy="-234" rx="80.6858" ry="18"/>
<text text-anchor="middle" x="1554.1459" y="-230.3" font-family="Times,serif" font-size="14.00" fill="#000000">Abstract data types</text>
</g>
<!-- data_types&#45;&#45;abstract_data_types -->
<g id="edge7" class="edge">
<title>data_types&#45;&#45;abstract_data_types</title>
<path fill="none" stroke="#000000" d="M1309.9795,-295.6842C1360.1561,-283.0079 1445.4236,-261.4667 1500.7538,-247.4885"/>
</g>
<!-- arrays -->
<g id="node33" class="node">
<title>arrays</title>
<ellipse fill="none" stroke="#000000" cx="2130.1459" cy="-234" rx="35.9954" ry="18"/>
<text text-anchor="middle" x="2130.1459" y="-230.3" font-family="Times,serif" font-size="14.00" fill="#000000">Arrays</text>
</g>
<!-- data_structures&#45;&#45;arrays -->
<g id="edge32" class="edge">
<title>data_structures&#45;&#45;arrays</title>
<path fill="none" stroke="#000000" d="M2923.2022,-300.7057C2754.67,-286.5301 2297.0869,-248.0418 2165.8004,-236.999"/>
</g>
<!-- graphs -->
<g id="node34" class="node">
<title>graphs</title>
<ellipse fill="none" stroke="#000000" cx="2552.1459" cy="-234" rx="37.0935" ry="18"/>
<text text-anchor="middle" x="2552.1459" y="-230.3" font-family="Times,serif" font-size="14.00" fill="#000000">Graphs</text>
</g>
<!-- data_structures&#45;&#45;graphs -->
<g id="edge33" class="edge">
<title>data_structures&#45;&#45;graphs</title>
<path fill="none" stroke="#000000" d="M2929.8529,-296.6611C2838.9136,-281.5744 2662.3063,-252.2755 2587.2539,-239.8244"/>
</g>
<!-- hash_based_structures -->
<g id="node35" class="node">
<title>hash_based_structures</title>
<ellipse fill="none" stroke="#000000" cx="2917.1459" cy="-234" rx="90.9839" ry="18"/>
<text text-anchor="middle" x="2917.1459" y="-230.3" font-family="Times,serif" font-size="14.00" fill="#000000">Hash&#45;based structures</text>
</g>
<!-- data_structures&#45;&#45;hash_based_structures -->
<g id="edge34" class="edge">
<title>data_structures&#45;&#45;hash_based_structures</title>
<path fill="none" stroke="#000000" d="M2969.4429,-288.5708C2958.7539,-277.4171 2944.9263,-262.9882 2934.1744,-251.7689"/>
</g>
<!-- lists -->
<g id="node36" class="node">
<title>lists</title>
<ellipse fill="none" stroke="#000000" cx="3055.1459" cy="-234" rx="28.6953" ry="18"/>
<text text-anchor="middle" x="3055.1459" y="-230.3" font-family="Times,serif" font-size="14.00" fill="#000000">Lists</text>
</g>
<!-- data_structures&#45;&#45;lists -->
<g id="edge35" class="edge">
<title>data_structures&#45;&#45;lists</title>
<path fill="none" stroke="#000000" d="M3002.8489,-288.5708C3014.176,-276.7512 3029.0278,-261.2537 3040.0089,-249.7951"/>
</g>
<!-- trees -->
<g id="node37" class="node">
<title>trees</title>
<ellipse fill="none" stroke="#000000" cx="3444.1459" cy="-234" rx="31.3957" ry="18"/>
<text text-anchor="middle" x="3444.1459" y="-230.3" font-family="Times,serif" font-size="14.00" fill="#000000">Trees</text>
</g>
<!-- data_structures&#45;&#45;trees -->
<g id="edge36" class="edge">
<title>data_structures&#45;&#45;trees</title>
<path fill="none" stroke="#000000" d="M3043.2259,-297.0267C3141.302,-281.6087 3338.5238,-250.6043 3413.9057,-238.7539"/>
</g>
<!-- recursion -->
<g id="node56" class="node">
<title>recursion</title>
<ellipse fill="none" stroke="#000000" cx="3933.1459" cy="-234" rx="47.3916" ry="18"/>
<text text-anchor="middle" x="3933.1459" y="-230.3" font-family="Times,serif" font-size="14.00" fill="#000000">Recursion</text>
</g>
<!-- algorithms&#45;&#45;recursion -->
<g id="edge55" class="edge">
<title>algorithms&#45;&#45;recursion</title>
<path fill="none" stroke="#000000" d="M4047.309,-291.0816C4022.2655,-278.5598 3986.7142,-260.7842 3961.962,-248.408"/>
</g>
<!-- sorting_algorithms -->
<g id="node57" class="node">
<title>sorting_algorithms</title>
<ellipse fill="none" stroke="#000000" cx="4077.1459" cy="-234" rx="78.7863" ry="18"/>
<text text-anchor="middle" x="4077.1459" y="-230.3" font-family="Times,serif" font-size="14.00" fill="#000000">Sorting algorithms</text>
</g>
<!-- algorithms&#45;&#45;sorting_algorithms -->
<g id="edge56" class="edge">
<title>algorithms&#45;&#45;sorting_algorithms</title>
<path fill="none" stroke="#000000" d="M4077.1459,-287.8314C4077.1459,-277 4077.1459,-263.2876 4077.1459,-252.4133"/>
</g>
<!-- graph_traversal -->
<g id="node63" class="node">
<title>graph_traversal</title>
<ellipse fill="none" stroke="#000000" cx="4387.1459" cy="-234" rx="66.8882" ry="18"/>
<text text-anchor="middle" x="4387.1459" y="-230.3" font-family="Times,serif" font-size="14.00" fill="#000000">Graph traversal</text>
</g>
<!-- algorithms&#45;&#45;graph_traversal -->
<g id="edge62" class="edge">
<title>algorithms&#45;&#45;graph_traversal</title>
<path fill="none" stroke="#000000" d="M4120.5765,-295.9129C4177.2319,-282.7542 4276.1934,-259.7696 4336.2893,-245.8119"/>
</g>
<!-- analysis_of_algorithms -->
<g id="node68" class="node">
<title>analysis_of_algorithms</title>
<ellipse fill="none" stroke="#000000" cx="4758.1459" cy="-234" rx="93.6835" ry="18"/>
<text text-anchor="middle" x="4758.1459" y="-230.3" font-family="Times,serif" font-size="14.00" fill="#000000">Analysis of algorithms</text>
</g>
<!-- algorithms&#45;&#45;analysis_of_algorithms -->
<g id="edge67" class="edge">
<title>algorithms&#45;&#45;analysis_of_algorithms</title>
<path fill="none" stroke="#000000" d="M4126.9456,-300.7348C4243.1547,-288.4484 4533.1841,-257.7845 4676.0219,-242.6827"/>
</g>
<!-- symmetric_cryptography -->
<g id="node72" class="node">
<title>symmetric_cryptography</title>
<ellipse fill="none" stroke="#000000" cx="5039.1459" cy="-234" rx="101.2821" ry="18"/>
<text text-anchor="middle" x="5039.1459" y="-230.3" font-family="Times,serif" font-size="14.00" fill="#000000">Symmetric cryptography</text>
</g>
<!-- cryptography&#45;&#45;symmetric_cryptography -->
<g id="edge71" class="edge">
<title>cryptography&#45;&#45;symmetric_cryptography</title>
<path fill="none" stroke="#000000" d="M5039.1459,-287.8314C5039.1459,-277 5039.1459,-263.2876 5039.1459,-252.4133"/>
</g>
<!-- asymmetric_cryptography -->
<g id="node73" class="node">
<title>asymmetric_cryptography</title>
<ellipse fill="none" stroke="#000000" cx="5300.1459" cy="-234" rx="106.6812" ry="18"/>
<text text-anchor="middle" x="5300.1459" y="-230.3" font-family="Times,serif" font-size="14.00" fill="#000000">Asymmetric cryptography</text>
</g>
<!-- cryptography&#45;&#45;asymmetric_cryptography -->
<g id="edge72" class="edge">
<title>cryptography&#45;&#45;asymmetric_cryptography</title>
<path fill="none" stroke="#000000" d="M5084.0134,-293.6228C5128.3213,-281.3999 5196.2087,-262.6723 5244.0547,-249.4734"/>
</g>
<!-- character -->
<g id="node9" class="node">
<title>character</title>
<ellipse fill="none" stroke="#000000" cx="46.1459" cy="-162" rx="46.2923" ry="18"/>
<text text-anchor="middle" x="46.1459" y="-158.3" font-family="Times,serif" font-size="14.00" fill="#000000">Character</text>
</g>
<!-- primitive_data_types&#45;&#45;character -->
<g id="edge8" class="edge">
<title>primitive_data_types&#45;&#45;character</title>
<path fill="none" stroke="#000000" d="M304.4178,-222.882C249.8736,-213.1486 170.4655,-197.8029 102.1459,-180 95.2284,-178.1974 87.9069,-176.0348 80.9196,-173.8438"/>
</g>
<!-- integer -->
<g id="node10" class="node">
<title>integer</title>
<ellipse fill="none" stroke="#000000" cx="147.1459" cy="-162" rx="36.2938" ry="18"/>
<text text-anchor="middle" x="147.1459" y="-158.3" font-family="Times,serif" font-size="14.00" fill="#000000">Integer</text>
</g>
<!-- primitive_data_types&#45;&#45;integer -->
<g id="edge9" class="edge">
<title>primitive_data_types&#45;&#45;integer</title>
<path fill="none" stroke="#000000" d="M318.7448,-219.6756C282.9871,-209.4021 234.3488,-194.8114 192.1459,-180 186.5882,-178.0495 180.7053,-175.8198 175.0906,-173.6095"/>
</g>
<!-- primitive_data_types_flpn -->
<g id="node11" class="node">
<title>primitive_data_types_flpn</title>
<ellipse fill="none" stroke="#000000" cx="294.1459" cy="-162" rx="92.8835" ry="18"/>
<text text-anchor="middle" x="294.1459" y="-158.3" font-family="Times,serif" font-size="14.00" fill="#000000">Floating&#45;point number</text>
</g>
<!-- primitive_data_types&#45;&#45;primitive_data_types_flpn -->
<g id="edge10" class="edge">
<title>primitive_data_types&#45;&#45;primitive_data_types_flpn</title>
<path fill="none" stroke="#000000" d="M351.3594,-216.2022C339.6669,-205.1252 324.681,-190.928 312.9797,-179.8425"/>
</g>
<!-- boolean -->
<g id="node12" class="node">
<title>boolean</title>
<ellipse fill="none" stroke="#000000" cx="446.1459" cy="-162" rx="40.8928" ry="18"/>
<text text-anchor="middle" x="446.1459" y="-158.3" font-family="Times,serif" font-size="14.00" fill="#000000">Boolean</text>
</g>
<!-- primitive_data_types&#45;&#45;boolean -->
<g id="edge11" class="edge">
<title>primitive_data_types&#45;&#45;boolean</title>
<path fill="none" stroke="#000000" d="M388.9324,-216.2022C401.1524,-204.6255 416.9696,-189.6407 428.8751,-178.3618"/>
</g>
<!-- reference -->
<g id="node13" class="node">
<title>reference</title>
<ellipse fill="none" stroke="#000000" cx="591.1459" cy="-162" rx="85.5853" ry="18"/>
<text text-anchor="middle" x="591.1459" y="-158.3" font-family="Times,serif" font-size="14.00" fill="#000000">Reference or pointer</text>
</g>
<!-- primitive_data_types&#45;&#45;reference -->
<g id="edge12" class="edge">
<title>primitive_data_types&#45;&#45;reference</title>
<path fill="none" stroke="#000000" d="M416.2057,-218.9941C453.7767,-206.7538 506.6252,-189.5362 544.3846,-177.2344"/>
</g>
<!-- cdt_array -->
<g id="node14" class="node">
<title>cdt_array</title>
<ellipse fill="none" stroke="#000000" cx="727.1459" cy="-162" rx="31.6951" ry="18"/>
<text text-anchor="middle" x="727.1459" y="-158.3" font-family="Times,serif" font-size="14.00" fill="#000000">Array</text>
</g>
<!-- composite_data_types&#45;&#45;cdt_array -->
<g id="edge13" class="edge">
<title>composite_data_types&#45;&#45;cdt_array</title>
<path fill="none" stroke="#000000" d="M890.5503,-219.4757C855.5259,-209.3881 808.669,-195.0911 768.1459,-180 762.9007,-178.0466 757.3627,-175.7682 752.1116,-173.5021"/>
</g>
<!-- cdt_object -->
<g id="node15" class="node">
<title>cdt_object</title>
<ellipse fill="none" stroke="#000000" cx="812.1459" cy="-162" rx="35.194" ry="18"/>
<text text-anchor="middle" x="812.1459" y="-158.3" font-family="Times,serif" font-size="14.00" fill="#000000">Object</text>
</g>
<!-- composite_data_types&#45;&#45;cdt_object -->
<g id="edge14" class="edge">
<title>composite_data_types&#45;&#45;cdt_object</title>
<path fill="none" stroke="#000000" d="M912.1007,-216.937C888.9484,-204.2121 857.7672,-187.0743 836.424,-175.3437"/>
</g>
<!-- cdt_record -->
<g id="node16" class="node">
<title>cdt_record</title>
<ellipse fill="none" stroke="#000000" cx="902.1459" cy="-162" rx="37.0935" ry="18"/>
<text text-anchor="middle" x="902.1459" y="-158.3" font-family="Times,serif" font-size="14.00" fill="#000000">Record</text>
</g>
<!-- composite_data_types&#45;&#45;cdt_record -->
<g id="edge15" class="edge">
<title>composite_data_types&#45;&#45;cdt_record</title>
<path fill="none" stroke="#000000" d="M932.7999,-215.8314C926.4422,-204.6667 918.3415,-190.441 912.0643,-179.4177"/>
</g>
<!-- cdt_set -->
<g id="node17" class="node">
<title>cdt_set</title>
<ellipse fill="none" stroke="#000000" cx="984.1459" cy="-162" rx="27" ry="18"/>
<text text-anchor="middle" x="984.1459" y="-158.3" font-family="Times,serif" font-size="14.00" fill="#000000">Set</text>
</g>
<!-- composite_data_types&#45;&#45;cdt_set -->
<g id="edge16" class="edge">
<title>composite_data_types&#45;&#45;cdt_set</title>
<path fill="none" stroke="#000000" d="M953.4919,-215.8314C959.9445,-204.5001 968.1925,-190.0157 974.5073,-178.9263"/>
</g>
<!-- cdt_union -->
<g id="node18" class="node">
<title>cdt_union</title>
<ellipse fill="none" stroke="#000000" cx="1063.1459" cy="-162" rx="33.5952" ry="18"/>
<text text-anchor="middle" x="1063.1459" y="-158.3" font-family="Times,serif" font-size="14.00" fill="#000000">Union</text>
</g>
<!-- composite_data_types&#45;&#45;cdt_union -->
<g id="edge17" class="edge">
<title>composite_data_types&#45;&#45;cdt_union</title>
<path fill="none" stroke="#000000" d="M971.5842,-216.937C992.6538,-204.2953 1020.9823,-187.2981 1040.522,-175.5744"/>
</g>
<!-- associative_array -->
<g id="node19" class="node">
<title>associative_array</title>
<ellipse fill="none" stroke="#000000" cx="1270.1459" cy="-162" rx="155.1726" ry="18"/>
<text text-anchor="middle" x="1270.1459" y="-158.3" font-family="Times,serif" font-size="14.00" fill="#000000">Associative array, or map, or dictionary</text>
</g>
<!-- abstract_data_types&#45;&#45;associative_array -->
<g id="edge18" class="edge">
<title>abstract_data_types&#45;&#45;associative_array</title>
<path fill="none" stroke="#000000" d="M1500.7277,-220.4574C1453.6486,-208.5218 1384.9403,-191.1028 1334.7758,-178.3851"/>
</g>
<!-- adt_graph -->
<g id="node20" class="node">
<title>adt_graph</title>
<ellipse fill="none" stroke="#000000" cx="1476.1459" cy="-162" rx="33.2948" ry="18"/>
<text text-anchor="middle" x="1476.1459" y="-158.3" font-family="Times,serif" font-size="14.00" fill="#000000">Graph</text>
</g>
<!-- abstract_data_types&#45;&#45;adt_graph -->
<g id="edge19" class="edge">
<title>abstract_data_types&#45;&#45;adt_graph</title>
<path fill="none" stroke="#000000" d="M1534.865,-216.2022C1522.0528,-204.3756 1505.3876,-188.9923 1493.0858,-177.6368"/>
</g>
<!-- adt_list -->
<g id="node21" class="node">
<title>adt_list</title>
<ellipse fill="none" stroke="#000000" cx="1554.1459" cy="-162" rx="27" ry="18"/>
<text text-anchor="middle" x="1554.1459" y="-158.3" font-family="Times,serif" font-size="14.00" fill="#000000">List</text>
</g>
<!-- abstract_data_types&#45;&#45;adt_list -->
<g id="edge20" class="edge">
<title>abstract_data_types&#45;&#45;adt_list</title>
<path fill="none" stroke="#000000" d="M1554.1459,-215.8314C1554.1459,-205 1554.1459,-191.2876 1554.1459,-180.4133"/>
</g>
<!-- adt_queue -->
<g id="node22" class="node">
<title>adt_queue</title>
<ellipse fill="none" stroke="#000000" cx="1633.1459" cy="-162" rx="34.394" ry="18"/>
<text text-anchor="middle" x="1633.1459" y="-158.3" font-family="Times,serif" font-size="14.00" fill="#000000">Queue</text>
</g>
<!-- abstract_data_types&#45;&#45;adt_queue -->
<g id="edge21" class="edge">
<title>abstract_data_types&#45;&#45;adt_queue</title>
<path fill="none" stroke="#000000" d="M1573.674,-216.2022C1586.6504,-204.3756 1603.5294,-188.9923 1615.9889,-177.6368"/>
</g>
<!-- adt_stack -->
<g id="node23" class="node">
<title>adt_stack</title>
<ellipse fill="none" stroke="#000000" cx="1717.1459" cy="-162" rx="31.3957" ry="18"/>
<text text-anchor="middle" x="1717.1459" y="-158.3" font-family="Times,serif" font-size="14.00" fill="#000000">Stack</text>
</g>
<!-- abstract_data_types&#45;&#45;adt_stack -->
<g id="edge22" class="edge">
<title>abstract_data_types&#45;&#45;adt_stack</title>
<path fill="none" stroke="#000000" d="M1590.7263,-217.8418C1621.7011,-204.1597 1665.2647,-184.9168 1692.3218,-172.9652"/>
</g>
<!-- adt_tree -->
<g id="node24" class="node">
<title>adt_tree</title>
<ellipse fill="none" stroke="#000000" cx="1793.1459" cy="-162" rx="27.0966" ry="18"/>
<text text-anchor="middle" x="1793.1459" y="-158.3" font-family="Times,serif" font-size="14.00" fill="#000000">Tree</text>
</g>
<!-- abstract_data_types&#45;&#45;adt_tree -->
<g id="edge23" class="edge">
<title>abstract_data_types&#45;&#45;adt_tree</title>
<path fill="none" stroke="#000000" d="M1613.3297,-221.6143C1654.3644,-212.218 1709.907,-197.879 1757.1459,-180 1761.982,-178.1696 1767.0303,-175.8934 1771.764,-173.582"/>
</g>
<!-- aa_implementation -->
<g id="node25" class="node">
<title>aa_implementation</title>
<ellipse fill="none" stroke="#000000" cx="1253.1459" cy="-90" rx="68.4888" ry="18"/>
<text text-anchor="middle" x="1253.1459" y="-86.3" font-family="Times,serif" font-size="14.00" fill="#000000">Implementation</text>
</g>
<!-- associative_array&#45;&#45;aa_implementation -->
<g id="edge24" class="edge">
<title>associative_array&#45;&#45;aa_implementation</title>
<path fill="none" stroke="#000000" d="M1265.8561,-143.8314C1263.2987,-133 1260.061,-119.2876 1257.4935,-108.4133"/>
</g>
<!-- adt_list_implementation -->
<g id="node28" class="node">
<title>adt_list_implementation</title>
<ellipse fill="none" stroke="#000000" cx="1571.1459" cy="-90" rx="68.4888" ry="18"/>
<text text-anchor="middle" x="1571.1459" y="-86.3" font-family="Times,serif" font-size="14.00" fill="#000000">Implementation</text>
</g>
<!-- adt_list&#45;&#45;adt_list_implementation -->
<g id="edge27" class="edge">
<title>adt_list&#45;&#45;adt_list_implementation</title>
<path fill="none" stroke="#000000" d="M1558.3482,-144.2022C1560.9439,-133.2085 1564.2653,-119.1413 1566.8739,-108.0931"/>
</g>
<!-- aa_implementation_hash_table -->
<g id="node26" class="node">
<title>aa_implementation_hash_table</title>
<ellipse fill="none" stroke="#000000" cx="1055.1459" cy="-18" rx="49.2915" ry="18"/>
<text text-anchor="middle" x="1055.1459" y="-14.3" font-family="Times,serif" font-size="14.00" fill="#000000">Hash table</text>
</g>
<!-- aa_implementation&#45;&#45;aa_implementation_hash_table -->
<g id="edge25" class="edge">
<title>aa_implementation&#45;&#45;aa_implementation_hash_table</title>
<path fill="none" stroke="#000000" d="M1212.5999,-75.256C1176.6215,-62.1729 1124.5959,-43.2546 1090.3358,-30.7963"/>
</g>
<!-- aa_implementation_self_balancing_binary_search_tree -->
<g id="node27" class="node">
<title>aa_implementation_self_balancing_binary_search_tree</title>
<ellipse fill="none" stroke="#000000" cx="1253.1459" cy="-18" rx="130.777" ry="18"/>
<text text-anchor="middle" x="1253.1459" y="-14.3" font-family="Times,serif" font-size="14.00" fill="#000000">Self&#45;balancing binary search tree</text>
</g>
<!-- aa_implementation&#45;&#45;aa_implementation_self_balancing_binary_search_tree -->
<g id="edge26" class="edge">
<title>aa_implementation&#45;&#45;aa_implementation_self_balancing_binary_search_tree</title>
<path fill="none" stroke="#000000" d="M1253.1459,-71.8314C1253.1459,-61 1253.1459,-47.2876 1253.1459,-36.4133"/>
</g>
<!-- adt_list_implementation_array -->
<g id="node29" class="node">
<title>adt_list_implementation_array</title>
<ellipse fill="none" stroke="#000000" cx="1433.1459" cy="-18" rx="31.6951" ry="18"/>
<text text-anchor="middle" x="1433.1459" y="-14.3" font-family="Times,serif" font-size="14.00" fill="#000000">Array</text>
</g>
<!-- adt_list_implementation&#45;&#45;adt_list_implementation_array -->
<g id="edge28" class="edge">
<title>adt_list_implementation&#45;&#45;adt_list_implementation_array</title>
<path fill="none" stroke="#000000" d="M1540.176,-73.8418C1514.9056,-60.6572 1479.7381,-42.309 1456.7158,-30.2973"/>
</g>
<!-- adt_list_implementation_vla -->
<g id="node30" class="node">
<title>adt_list_implementation_vla</title>
<ellipse fill="none" stroke="#000000" cx="1571.1459" cy="-18" rx="87.9851" ry="18"/>
<text text-anchor="middle" x="1571.1459" y="-14.3" font-family="Times,serif" font-size="14.00" fill="#000000">Variable length array</text>
</g>
<!-- adt_list_implementation&#45;&#45;adt_list_implementation_vla -->
<g id="edge29" class="edge">
<title>adt_list_implementation&#45;&#45;adt_list_implementation_vla</title>
<path fill="none" stroke="#000000" d="M1571.1459,-71.8314C1571.1459,-61 1571.1459,-47.2876 1571.1459,-36.4133"/>
</g>
<!-- adt_list_implementation_sll -->
<g id="node31" class="node">
<title>adt_list_implementation_sll</title>
<ellipse fill="none" stroke="#000000" cx="1750.1459" cy="-18" rx="72.5877" ry="18"/>
<text text-anchor="middle" x="1750.1459" y="-14.3" font-family="Times,serif" font-size="14.00" fill="#000000">Singly linked list</text>
</g>
<!-- adt_list_implementation&#45;&#45;adt_list_implementation_sll -->
<g id="edge30" class="edge">
<title>adt_list_implementation&#45;&#45;adt_list_implementation_sll</title>
<path fill="none" stroke="#000000" d="M1608.6702,-74.9064C1638.9126,-62.7419 1681.2716,-45.7036 1711.7451,-33.4462"/>
</g>
<!-- adt_list_implementation_dll -->
<g id="node32" class="node">
<title>adt_list_implementation_dll</title>
<ellipse fill="none" stroke="#000000" cx="1917.1459" cy="-18" rx="76.8869" ry="18"/>
<text text-anchor="middle" x="1917.1459" y="-14.3" font-family="Times,serif" font-size="14.00" fill="#000000">Doubly linked list</text>
</g>
<!-- adt_list_implementation&#45;&#45;adt_list_implementation_dll -->
<g id="edge31" class="edge">
<title>adt_list_implementation&#45;&#45;adt_list_implementation_dll</title>
<path fill="none" stroke="#000000" d="M1625.1471,-78.9039C1677.9383,-68.0383 1760.5869,-50.9794 1832.1459,-36 1841.1521,-34.1147 1850.6923,-32.1059 1860.0009,-30.1395"/>
</g>
<!-- array -->
<g id="node38" class="node">
<title>array</title>
<ellipse fill="none" stroke="#000000" cx="1870.1459" cy="-162" rx="31.6951" ry="18"/>
<text text-anchor="middle" x="1870.1459" y="-158.3" font-family="Times,serif" font-size="14.00" fill="#000000">Array</text>
</g>
<!-- arrays&#45;&#45;array -->
<g id="edge37" class="edge">
<title>arrays&#45;&#45;array</title>
<path fill="none" stroke="#000000" d="M2096.6142,-227.6039C2053.1979,-218.8991 1975.4718,-201.8696 1911.1459,-180 1905.6994,-178.1483 1899.9759,-175.8631 1894.5905,-173.5497"/>
</g>
<!-- dynamic_array -->
<g id="node39" class="node">
<title>dynamic_array</title>
<ellipse fill="none" stroke="#000000" cx="1985.1459" cy="-162" rx="64.9885" ry="18"/>
<text text-anchor="middle" x="1985.1459" y="-158.3" font-family="Times,serif" font-size="14.00" fill="#000000">Dynamic array</text>
</g>
<!-- arrays&#45;&#45;dynamic_array -->
<g id="edge38" class="edge">
<title>arrays&#45;&#45;dynamic_array</title>
<path fill="none" stroke="#000000" d="M2104.5566,-221.2936C2080.166,-209.1824 2043.3617,-190.9072 2017.0649,-177.8494"/>
</g>
<!-- circular_buffer -->
<g id="node40" class="node">
<title>circular_buffer</title>
<ellipse fill="none" stroke="#000000" cx="2130.1459" cy="-162" rx="61.99" ry="18"/>
<text text-anchor="middle" x="2130.1459" y="-158.3" font-family="Times,serif" font-size="14.00" fill="#000000">Circular array</text>
</g>
<!-- arrays&#45;&#45;circular_buffer -->
<g id="edge39" class="edge">
<title>arrays&#45;&#45;circular_buffer</title>
<path fill="none" stroke="#000000" d="M2130.1459,-215.8314C2130.1459,-205 2130.1459,-191.2876 2130.1459,-180.4133"/>
</g>
<!-- matrix -->
<g id="node41" class="node">
<title>matrix</title>
<ellipse fill="none" stroke="#000000" cx="2245.1459" cy="-162" rx="35.9954" ry="18"/>
<text text-anchor="middle" x="2245.1459" y="-158.3" font-family="Times,serif" font-size="14.00" fill="#000000">Matrix</text>
</g>
<!-- arrays&#45;&#45;matrix -->
<g id="edge40" class="edge">
<title>arrays&#45;&#45;matrix</title>
<path fill="none" stroke="#000000" d="M2152.5921,-219.9468C2172.7246,-207.342 2202.1283,-188.9327 2222.3633,-176.2639"/>
</g>
<!-- _graph -->
<g id="node42" class="node">
<title>_graph</title>
<ellipse fill="none" stroke="#000000" cx="2332.1459" cy="-162" rx="33.2948" ry="18"/>
<text text-anchor="middle" x="2332.1459" y="-158.3" font-family="Times,serif" font-size="14.00" fill="#000000">Graph</text>
</g>
<!-- graphs&#45;&#45;_graph -->
<g id="edge41" class="edge">
<title>graphs&#45;&#45;_graph</title>
<path fill="none" stroke="#000000" d="M2519.5268,-225.1102C2483.7671,-215.1192 2424.8585,-197.9371 2375.1459,-180 2369.6648,-178.0223 2363.8655,-175.7333 2358.3605,-173.4644"/>
</g>
<!-- adjacency_matrix -->
<g id="node43" class="node">
<title>adjacency_matrix</title>
<ellipse fill="none" stroke="#000000" cx="2459.1459" cy="-162" rx="75.2868" ry="18"/>
<text text-anchor="middle" x="2459.1459" y="-158.3" font-family="Times,serif" font-size="14.00" fill="#000000">Adjacency matrix</text>
</g>
<!-- graphs&#45;&#45;adjacency_matrix -->
<g id="edge42" class="edge">
<title>graphs&#45;&#45;adjacency_matrix</title>
<path fill="none" stroke="#000000" d="M2532.423,-218.7307C2517.4937,-207.1725 2496.9782,-191.2895 2481.4513,-179.2687"/>
</g>
<!-- directed_acyclic_graph -->
<g id="node44" class="node">
<title>directed_acyclic_graph</title>
<ellipse fill="none" stroke="#000000" cx="2645.1459" cy="-162" rx="92.8835" ry="18"/>
<text text-anchor="middle" x="2645.1459" y="-158.3" font-family="Times,serif" font-size="14.00" fill="#000000">Directed acyclic graph</text>
</g>
<!-- graphs&#45;&#45;directed_acyclic_graph -->
<g id="edge43" class="edge">
<title>graphs&#45;&#45;directed_acyclic_graph</title>
<path fill="none" stroke="#000000" d="M2571.8688,-218.7307C2586.6915,-207.255 2607.0209,-191.5162 2622.507,-179.5269"/>
</g>
<!-- hash_table -->
<g id="node45" class="node">
<title>hash_table</title>
<ellipse fill="none" stroke="#000000" cx="2805.1459" cy="-162" rx="49.2915" ry="18"/>
<text text-anchor="middle" x="2805.1459" y="-158.3" font-family="Times,serif" font-size="14.00" fill="#000000">Hash table</text>
</g>
<!-- hash_based_structures&#45;&#45;hash_table -->
<g id="edge44" class="edge">
<title>hash_based_structures&#45;&#45;hash_table</title>
<path fill="none" stroke="#000000" d="M2890.3191,-216.7542C2871.94,-204.9391 2847.7443,-189.3847 2829.8396,-177.8745"/>
</g>
<!-- hash_tree -->
<g id="node46" class="node">
<title>hash_tree</title>
<ellipse fill="none" stroke="#000000" cx="2918.1459" cy="-162" rx="45.4919" ry="18"/>
<text text-anchor="middle" x="2918.1459" y="-158.3" font-family="Times,serif" font-size="14.00" fill="#000000">Hash tree</text>
</g>
<!-- hash_based_structures&#45;&#45;hash_tree -->
<g id="edge45" class="edge">
<title>hash_based_structures&#45;&#45;hash_tree</title>
<path fill="none" stroke="#000000" d="M2917.3982,-215.8314C2917.5487,-205 2917.7391,-191.2876 2917.8902,-180.4133"/>
</g>
<!-- singly_ll -->
<g id="node47" class="node">
<title>singly_ll</title>
<ellipse fill="none" stroke="#000000" cx="3054.1459" cy="-162" rx="72.5877" ry="18"/>
<text text-anchor="middle" x="3054.1459" y="-158.3" font-family="Times,serif" font-size="14.00" fill="#000000">Singly linked list</text>
</g>
<!-- lists&#45;&#45;singly_ll -->
<g id="edge46" class="edge">
<title>lists&#45;&#45;singly_ll</title>
<path fill="none" stroke="#000000" d="M3054.8936,-215.8314C3054.7431,-205 3054.5527,-191.2876 3054.4016,-180.4133"/>
</g>
<!-- doubly_ll -->
<g id="node48" class="node">
<title>doubly_ll</title>
<ellipse fill="none" stroke="#000000" cx="3221.1459" cy="-162" rx="76.8869" ry="18"/>
<text text-anchor="middle" x="3221.1459" y="-158.3" font-family="Times,serif" font-size="14.00" fill="#000000">Doubly linked list</text>
</g>
<!-- lists&#45;&#45;doubly_ll -->
<g id="edge47" class="edge">
<title>lists&#45;&#45;doubly_ll</title>
<path fill="none" stroke="#000000" d="M3078.9297,-223.6842C3106.5417,-211.7079 3152.3978,-191.8184 3184.556,-177.8703"/>
</g>
<!-- tree -->
<g id="node49" class="node">
<title>tree</title>
<ellipse fill="none" stroke="#000000" cx="3343.1459" cy="-162" rx="27.0966" ry="18"/>
<text text-anchor="middle" x="3343.1459" y="-158.3" font-family="Times,serif" font-size="14.00" fill="#000000">Tree</text>
</g>
<!-- trees&#45;&#45;tree -->
<g id="edge48" class="edge">
<title>trees&#45;&#45;tree</title>
<path fill="none" stroke="#000000" d="M3424.1916,-219.7751C3406.025,-206.8247 3379.4108,-187.8522 3361.6966,-175.2242"/>
</g>
<!-- binary_trees -->
<g id="node50" class="node">
<title>binary_trees</title>
<ellipse fill="none" stroke="#000000" cx="3444.1459" cy="-162" rx="55.4913" ry="18"/>
<text text-anchor="middle" x="3444.1459" y="-158.3" font-family="Times,serif" font-size="14.00" fill="#000000">Binary trees</text>
</g>
<!-- trees&#45;&#45;binary_trees -->
<g id="edge49" class="edge">
<title>trees&#45;&#45;binary_trees</title>
<path fill="none" stroke="#000000" d="M3444.1459,-215.8314C3444.1459,-205 3444.1459,-191.2876 3444.1459,-180.4133"/>
</g>
<!-- b_trees -->
<g id="node51" class="node">
<title>b_trees</title>
<ellipse fill="none" stroke="#000000" cx="3554.1459" cy="-162" rx="37.0935" ry="18"/>
<text text-anchor="middle" x="3554.1459" y="-158.3" font-family="Times,serif" font-size="14.00" fill="#000000">B&#45;trees</text>
</g>
<!-- trees&#45;&#45;b_trees -->
<g id="edge50" class="edge">
<title>trees&#45;&#45;b_trees</title>
<path fill="none" stroke="#000000" d="M3464.8361,-220.4574C3484.0044,-207.9108 3512.4301,-189.3049 3532.0387,-176.4701"/>
</g>
<!-- heaps -->
<g id="node52" class="node">
<title>heaps</title>
<ellipse fill="none" stroke="#000000" cx="3642.1459" cy="-162" rx="33.2948" ry="18"/>
<text text-anchor="middle" x="3642.1459" y="-158.3" font-family="Times,serif" font-size="14.00" fill="#000000">Heaps</text>
</g>
<!-- trees&#45;&#45;heaps -->
<g id="edge51" class="edge">
<title>trees&#45;&#45;heaps</title>
<path fill="none" stroke="#000000" d="M3471.4146,-225.2186C3502.7214,-214.9852 3555.5065,-197.2661 3600.1459,-180 3605.3251,-177.9967 3610.8122,-175.7432 3616.0516,-173.526"/>
</g>
<!-- binary_search_trees -->
<g id="node53" class="node">
<title>binary_search_trees</title>
<ellipse fill="none" stroke="#000000" cx="3444.1459" cy="-90" rx="76.8869" ry="18"/>
<text text-anchor="middle" x="3444.1459" y="-86.3" font-family="Times,serif" font-size="14.00" fill="#000000">Binary search tree</text>
</g>
<!-- binary_trees&#45;&#45;binary_search_trees -->
<g id="edge52" class="edge">
<title>binary_trees&#45;&#45;binary_search_trees</title>
<path fill="none" stroke="#000000" d="M3444.1459,-143.8314C3444.1459,-133 3444.1459,-119.2876 3444.1459,-108.4133"/>
</g>
<!-- red_black_tree -->
<g id="node54" class="node">
<title>red_black_tree</title>
<ellipse fill="none" stroke="#000000" cx="3380.1459" cy="-18" rx="64.189" ry="18"/>
<text text-anchor="middle" x="3380.1459" y="-14.3" font-family="Times,serif" font-size="14.00" fill="#000000">Red&#45;black tree</text>
</g>
<!-- binary_search_trees&#45;&#45;red_black_tree -->
<g id="edge53" class="edge">
<title>binary_search_trees&#45;&#45;red_black_tree</title>
<path fill="none" stroke="#000000" d="M3428.3257,-72.2022C3418.4054,-61.0419 3405.6698,-46.7143 3395.7842,-35.593"/>
</g>
<!-- avl_tree -->
<g id="node55" class="node">
<title>avl_tree</title>
<ellipse fill="none" stroke="#000000" cx="3508.1459" cy="-18" rx="45.4919" ry="18"/>
<text text-anchor="middle" x="3508.1459" y="-14.3" font-family="Times,serif" font-size="14.00" fill="#000000">AVL tree</text>
</g>
<!-- binary_search_trees&#45;&#45;avl_tree -->
<g id="edge54" class="edge">
<title>binary_search_trees&#45;&#45;avl_tree</title>
<path fill="none" stroke="#000000" d="M3459.9661,-72.2022C3470.0345,-60.8753 3483.0028,-46.2859 3492.9484,-35.0972"/>
</g>
<!-- insertion_sort -->
<g id="node58" class="node">
<title>insertion_sort</title>
<ellipse fill="none" stroke="#000000" cx="3752.1459" cy="-162" rx="59.2899" ry="18"/>
<text text-anchor="middle" x="3752.1459" y="-158.3" font-family="Times,serif" font-size="14.00" fill="#000000">Insertion sort</text>
</g>
<!-- sorting_algorithms&#45;&#45;insertion_sort -->
<g id="edge57" class="edge">
<title>sorting_algorithms&#45;&#45;insertion_sort</title>
<path fill="none" stroke="#000000" d="M4018.3639,-221.9371C3954.879,-208.8491 3857.8958,-188.6643 3821.1459,-180 3813.1931,-178.125 3804.7547,-176.0204 3796.6097,-173.9292"/>
</g>
<!-- selection_sort -->
<g id="node59" class="node">
<title>selection_sort</title>
<ellipse fill="none" stroke="#000000" cx="3890.1459" cy="-162" rx="60.3893" ry="18"/>
<text text-anchor="middle" x="3890.1459" y="-158.3" font-family="Times,serif" font-size="14.00" fill="#000000">Selection sort</text>
</g>
<!-- sorting_algorithms&#45;&#45;selection_sort -->
<g id="edge58" class="edge">
<title>sorting_algorithms&#45;&#45;selection_sort</title>
<path fill="none" stroke="#000000" d="M4036.5697,-218.3771C4004.0219,-205.8453 3958.7164,-188.4015 3927.1522,-176.2484"/>
</g>
<!-- merge_sort -->
<g id="node60" class="node">
<title>merge_sort</title>
<ellipse fill="none" stroke="#000000" cx="4019.1459" cy="-162" rx="50.8918" ry="18"/>
<text text-anchor="middle" x="4019.1459" y="-158.3" font-family="Times,serif" font-size="14.00" fill="#000000">Merge sort</text>
</g>
<!-- sorting_algorithms&#45;&#45;merge_sort -->
<g id="edge59" class="edge">
<title>sorting_algorithms&#45;&#45;merge_sort</title>
<path fill="none" stroke="#000000" d="M4062.8088,-216.2022C4053.7515,-204.9586 4042.1045,-190.5003 4033.1179,-179.3446"/>
</g>
<!-- quick_sort -->
<g id="node61" class="node">
<title>quick_sort</title>
<ellipse fill="none" stroke="#000000" cx="4136.1459" cy="-162" rx="48.9926" ry="18"/>
<text text-anchor="middle" x="4136.1459" y="-158.3" font-family="Times,serif" font-size="14.00" fill="#000000">Quick sort</text>
</g>
<!-- sorting_algorithms&#45;&#45;quick_sort -->
<g id="edge60" class="edge">
<title>sorting_algorithms&#45;&#45;quick_sort</title>
<path fill="none" stroke="#000000" d="M4091.7302,-216.2022C4100.9437,-204.9586 4112.7915,-190.5003 4121.933,-179.3446"/>
</g>
<!-- bubble_sort -->
<g id="node62" class="node">
<title>bubble_sort</title>
<ellipse fill="none" stroke="#000000" cx="4255.1459" cy="-162" rx="52.7911" ry="18"/>
<text text-anchor="middle" x="4255.1459" y="-158.3" font-family="Times,serif" font-size="14.00" fill="#000000">Bubble sort</text>
</g>
<!-- sorting_algorithms&#45;&#45;bubble_sort -->
<g id="edge61" class="edge">
<title>sorting_algorithms&#45;&#45;bubble_sort</title>
<path fill="none" stroke="#000000" d="M4116.2088,-218.1993C4147.5243,-205.5323 4191.0353,-187.9324 4220.9788,-175.8204"/>
</g>
<!-- tree_traversal -->
<g id="node64" class="node">
<title>tree_traversal</title>
<ellipse fill="none" stroke="#000000" cx="4387.1459" cy="-162" rx="61.1893" ry="18"/>
<text text-anchor="middle" x="4387.1459" y="-158.3" font-family="Times,serif" font-size="14.00" fill="#000000">Tree traversal</text>
</g>
<!-- graph_traversal&#45;&#45;tree_traversal -->
<g id="edge63" class="edge">
<title>graph_traversal&#45;&#45;tree_traversal</title>
<path fill="none" stroke="#000000" d="M4387.1459,-215.8314C4387.1459,-205 4387.1459,-191.2876 4387.1459,-180.4133"/>
</g>
<!-- dijkstra -->
<g id="node65" class="node">
<title>dijkstra</title>
<ellipse fill="none" stroke="#000000" cx="4549.1459" cy="-162" rx="83.3857" ry="18"/>
<text text-anchor="middle" x="4549.1459" y="-158.3" font-family="Times,serif" font-size="14.00" fill="#000000">Dijkstra&#39;s algorithm</text>
</g>
<!-- graph_traversal&#45;&#45;dijkstra -->
<g id="edge64" class="edge">
<title>graph_traversal&#45;&#45;dijkstra</title>
<path fill="none" stroke="#000000" d="M4421.899,-218.5542C4448.5815,-206.6953 4485.333,-190.3613 4512.4813,-178.2954"/>
</g>
<!-- depth_first_search -->
<g id="node66" class="node">
<title>depth_first_search</title>
<ellipse fill="none" stroke="#000000" cx="4299.1459" cy="-90" rx="75.2868" ry="18"/>
<text text-anchor="middle" x="4299.1459" y="-86.3" font-family="Times,serif" font-size="14.00" fill="#000000">Depth&#45;first search</text>
</g>
<!-- tree_traversal&#45;&#45;depth_first_search -->
<g id="edge65" class="edge">
<title>tree_traversal&#45;&#45;depth_first_search</title>
<path fill="none" stroke="#000000" d="M4366.2911,-144.937C4352.4665,-133.626 4334.3804,-118.8282 4320.4623,-107.4407"/>
</g>
<!-- breadth_first_search -->
<g id="node67" class="node">
<title>breadth_first_search</title>
<ellipse fill="none" stroke="#000000" cx="4475.1459" cy="-90" rx="82.5854" ry="18"/>
<text text-anchor="middle" x="4475.1459" y="-86.3" font-family="Times,serif" font-size="14.00" fill="#000000">Breadth&#45;frist search</text>
</g>
<!-- tree_traversal&#45;&#45;breadth_first_search -->
<g id="edge66" class="edge">
<title>tree_traversal&#45;&#45;breadth_first_search</title>
<path fill="none" stroke="#000000" d="M4408.0007,-144.937C4421.8253,-133.626 4439.9114,-118.8282 4453.8295,-107.4407"/>
</g>
<!-- time_complexity -->
<g id="node69" class="node">
<title>time_complexity</title>
<ellipse fill="none" stroke="#000000" cx="4724.1459" cy="-162" rx="73.387" ry="18"/>
<text text-anchor="middle" x="4724.1459" y="-158.3" font-family="Times,serif" font-size="14.00" fill="#000000">Time complexity</text>
</g>
<!-- analysis_of_algorithms&#45;&#45;time_complexity -->
<g id="edge68" class="edge">
<title>analysis_of_algorithms&#45;&#45;time_complexity</title>
<path fill="none" stroke="#000000" d="M4749.5663,-215.8314C4744.3728,-204.8334 4737.7766,-190.865 4732.605,-179.9134"/>
</g>
<!-- space_complexity -->
<g id="node70" class="node">
<title>space_complexity</title>
<ellipse fill="none" stroke="#000000" cx="4891.1459" cy="-162" rx="75.2868" ry="18"/>
<text text-anchor="middle" x="4891.1459" y="-158.3" font-family="Times,serif" font-size="14.00" fill="#000000">Space complexity</text>
</g>
<!-- analysis_of_algorithms&#45;&#45;space_complexity -->
<g id="edge69" class="edge">
<title>analysis_of_algorithms&#45;&#45;space_complexity</title>
<path fill="none" stroke="#000000" d="M4789.665,-216.937C4811.02,-205.3765 4839.1029,-190.1737 4860.3118,-178.6921"/>
</g>
<!-- big_o_notation -->
<g id="node71" class="node">
<title>big_o_notation</title>
<ellipse fill="none" stroke="#000000" cx="5049.1459" cy="-162" rx="64.9885" ry="18"/>
<text text-anchor="middle" x="5049.1459" y="-158.3" font-family="Times,serif" font-size="14.00" fill="#000000">Big O notation</text>
</g>
<!-- analysis_of_algorithms&#45;&#45;big_o_notation -->
<g id="edge70" class="edge">
<title>analysis_of_algorithms&#45;&#45;big_o_notation</title>
<path fill="none" stroke="#000000" d="M4815.6381,-219.7751C4869.6359,-206.4148 4949.5375,-186.6454 5000.4647,-174.0448"/>
</g>
<!-- public_key -->
<g id="node74" class="node">
<title>public_key</title>
<ellipse fill="none" stroke="#000000" cx="5181.1459" cy="-162" rx="49.2915" ry="18"/>
<text text-anchor="middle" x="5181.1459" y="-158.3" font-family="Times,serif" font-size="14.00" fill="#000000">Public key</text>
</g>
<!-- asymmetric_cryptography&#45;&#45;public_key -->
<g id="edge73" class="edge">
<title>asymmetric_cryptography&#45;&#45;public_key</title>
<path fill="none" stroke="#000000" d="M5271.3393,-216.5708C5251.6666,-204.668 5225.8292,-189.0353 5206.8527,-177.5537"/>
</g>
<!-- private_key -->
<g id="node75" class="node">
<title>private_key</title>
<ellipse fill="none" stroke="#000000" cx="5300.1459" cy="-162" rx="51.9908" ry="18"/>
<text text-anchor="middle" x="5300.1459" y="-158.3" font-family="Times,serif" font-size="14.00" fill="#000000">Private key</text>
</g>
<!-- asymmetric_cryptography&#45;&#45;private_key -->
<g id="edge74" class="edge">
<title>asymmetric_cryptography&#45;&#45;private_key</title>
<path fill="none" stroke="#000000" d="M5300.1459,-215.8314C5300.1459,-205 5300.1459,-191.2876 5300.1459,-180.4133"/>
</g>
<!-- fingerprint -->
<g id="node76" class="node">
<title>fingerprint</title>
<ellipse fill="none" stroke="#000000" cx="5421.1459" cy="-162" rx="51.1914" ry="18"/>
<text text-anchor="middle" x="5421.1459" y="-158.3" font-family="Times,serif" font-size="14.00" fill="#000000">Fingerprint</text>
</g>
<!-- asymmetric_cryptography&#45;&#45;fingerprint -->
<g id="edge75" class="edge">
<title>asymmetric_cryptography&#45;&#45;fingerprint</title>
<path fill="none" stroke="#000000" d="M5329.4366,-216.5708C5349.44,-204.668 5375.7117,-189.0353 5395.0071,-177.5537"/>
</g>
<!-- digital_certificate -->
<g id="node77" class="node">
<title>digital_certificate</title>
<ellipse fill="none" stroke="#000000" cx="5564.1459" cy="-162" rx="74.187" ry="18"/>
<text text-anchor="middle" x="5564.1459" y="-158.3" font-family="Times,serif" font-size="14.00" fill="#000000">Digital certificate</text>
</g>
<!-- asymmetric_cryptography&#45;&#45;digital_certificate -->
<g id="edge76" class="edge">
<title>asymmetric_cryptography&#45;&#45;digital_certificate</title>
<path fill="none" stroke="#000000" d="M5356.4567,-218.6425C5403.4011,-205.8395 5469.636,-187.7754 5514.5924,-175.5146"/>
</g>
</g>
</svg>
